<svg xmlns="http://www.w3.org/2000/svg" xmlns:xlink="http://www.w3.org/1999/xlink" width="6912" zoomAndPan="magnify" viewBox="0 0 5184 2592.000001" height="3456" preserveAspectRatio="xMidYMid meet" version="1.0"><defs><clipPath id="c5a6f11193"><path d="M 593 2392 L 4591 2392 L 4591 2582.003906 L 593 2582.003906 Z M 593 2392 " clip-rule="nonzero"/></clipPath></defs><path fill="#182b5c" d="M 1626.296875 1625.558594 L 2592.832031 2173.101562 L 3554.339844 1628.570312 C 3557.355469 1613.5 3559.363281 1597.425781 3559.363281 1582.355469 C 3559.363281 1327.167969 3126.332031 1121.210938 2592.832031 1121.210938 C 2059.328125 1121.210938 1626.296875 1327.167969 1626.296875 1582.355469 Z M 1626.296875 1625.558594 " fill-opacity="1" fill-rule="nonzero"/><path fill="#182b5c" d="M 1710.691406 106.496094 L 2132.671875 106.496094 L 2132.671875 343.597656 L 3053.992188 343.597656 L 3053.992188 106.496094 L 3263.980469 106.496094 L 3263.980469 585.722656 C 3251.921875 593.761719 3243.882812 607.824219 3243.882812 623.902344 L 3243.882812 753.503906 L 3338.328125 753.503906 L 3338.328125 623.902344 C 3338.328125 607.824219 3330.289062 593.761719 3318.234375 585.722656 L 3318.234375 106.496094 L 3476.976562 106.496094 L 3476.976562 0 L 1710.691406 0 Z M 1710.691406 106.496094 " fill-opacity="1" fill-rule="nonzero"/><path fill="#182b5c" d="M 2132.671875 604.8125 C 2132.671875 858.992188 2338.636719 1065.957031 2593.835938 1065.957031 C 2848.027344 1065.957031 3055 860 3055 604.8125 L 3055 414.929688 L 2133.675781 414.929688 L 2133.675781 604.8125 Z M 2132.671875 604.8125 " fill-opacity="1" fill-rule="nonzero"/><path fill="#182b5c" d="M 622.589844 2310.742188 C 622.589844 2325.8125 634.644531 2337.867188 649.714844 2337.867188 L 4535.945312 2337.867188 C 4551.015625 2337.867188 4563.074219 2325.8125 4563.074219 2310.742188 C 4563.074219 2295.671875 4551.015625 2283.617188 4535.945312 2283.617188 L 3357.417969 2283.617188 L 4538.960938 2199.222656 C 4554.03125 2198.21875 4565.082031 2185.160156 4564.078125 2170.089844 C 4563.074219 2155.019531 4550.011719 2143.96875 4534.941406 2144.972656 L 3362.441406 2229.363281 L 4488.722656 2067.613281 C 4503.796875 2065.601562 4513.84375 2051.539062 4511.832031 2036.46875 C 4509.824219 2021.398438 4495.757812 2011.351562 4480.6875 2013.359375 L 3367.464844 2173.101562 L 4427.4375 1944.039062 C 4442.507812 1941.023438 4451.550781 1925.953125 4448.535156 1911.886719 C 4445.519531 1896.816406 4430.449219 1887.777344 4416.382812 1890.789062 L 3382.535156 2113.828125 L 4345.050781 1837.542969 C 4359.117188 1833.523438 4368.160156 1818.453125 4364.140625 1803.382812 C 4360.121094 1789.320312 4345.050781 1780.277344 4329.980469 1784.296875 L 3395.597656 2052.542969 L 4245.582031 1747.121094 C 4259.648438 1742.097656 4267.6875 1726.023438 4261.660156 1711.960938 C 4256.636719 1697.894531 4240.558594 1689.855469 4226.496094 1695.882812 L 3416.695312 1986.234375 L 4131.046875 1678.804688 C 4145.113281 1672.777344 4151.140625 1656.703125 4145.113281 1642.636719 C 4139.085938 1628.570312 4123.007812 1622.542969 4108.941406 1628.570312 L 2592.832031 2281.605469 L 1076.71875 1628.570312 C 1062.652344 1622.542969 1046.578125 1628.570312 1040.550781 1642.636719 C 1034.519531 1656.703125 1040.550781 1672.777344 1054.613281 1678.804688 L 1768.964844 1986.234375 L 959.167969 1695.882812 C 945.101562 1690.859375 929.027344 1697.894531 924.003906 1711.960938 C 918.980469 1726.023438 926.011719 1742.097656 940.078125 1747.121094 L 1790.066406 2052.542969 L 855.683594 1784.296875 C 840.609375 1780.277344 825.539062 1788.3125 821.523438 1803.382812 C 817.503906 1817.449219 825.539062 1833.523438 840.609375 1837.542969 L 1803.125 2113.828125 L 771.285156 1889.785156 C 756.214844 1886.773438 742.148438 1895.8125 739.136719 1910.882812 C 736.121094 1925.953125 745.164062 1940.019531 760.234375 1943.035156 L 1819.203125 2172.097656 L 705.980469 2012.355469 C 690.910156 2010.347656 676.84375 2020.390625 674.832031 2035.460938 C 672.824219 2050.53125 682.871094 2064.597656 697.941406 2066.605469 L 1824.226562 2228.359375 L 651.726562 2143.96875 C 636.652344 2142.960938 623.59375 2154.015625 622.589844 2169.082031 C 621.582031 2184.152344 632.636719 2197.214844 647.707031 2198.21875 L 1829.25 2282.613281 L 649.714844 2282.613281 C 634.644531 2283.617188 622.589844 2295.671875 622.589844 2310.742188 Z M 622.589844 2310.742188 " fill-opacity="1" fill-rule="nonzero"/><g clip-path="url(#c5a6f11193)"><path fill="#182b5c" d="M 4536.949219 2392.121094 L 648.710938 2392.121094 C 618.570312 2392.121094 593.453125 2416.234375 593.453125 2447.378906 C 593.453125 2478.523438 617.566406 2502.632812 648.710938 2502.632812 L 2419.015625 2502.632812 C 2461.214844 2550.859375 2522.5 2582.003906 2591.824219 2582.003906 C 2661.152344 2582.003906 2723.441406 2550.859375 2764.636719 2502.632812 L 4534.941406 2502.632812 C 4565.082031 2502.632812 4590.199219 2478.523438 4590.199219 2447.378906 C 4590.199219 2416.234375 4568.097656 2392.121094 4536.949219 2392.121094 Z M 4536.949219 2392.121094 " fill-opacity="1" fill-rule="nonzero"/></g></svg>