<svg xmlns="http://www.w3.org/2000/svg" xmlns:xlink="http://www.w3.org/1999/xlink" width="6912" zoomAndPan="magnify" viewBox="0 0 5184 2592.000001" height="3456" preserveAspectRatio="xMidYMid meet" version="1.0"><defs><clipPath id="a886a65bca"><path d="M 3494 2049 L 4056 2049 L 4056 2566.261719 L 3494 2566.261719 Z M 3494 2049 " clip-rule="nonzero"/></clipPath><clipPath id="1e4c719c2d"><path d="M 1128 2049 L 1690 2049 L 1690 2566.261719 L 1128 2566.261719 Z M 1128 2049 " clip-rule="nonzero"/></clipPath></defs><path fill="#eb6a18" d="M 3309.710938 1100.1875 L 3309.710938 403.769531 L 2642.324219 222.261719 L 2642.324219 1100.1875 L 3309.710938 1100.1875 " fill-opacity="1" fill-rule="nonzero"/><path fill="#1d333b" d="M 2591.226562 0.0898438 L 1671.800781 250.171875 L 1671.800781 1378.070312 C 1671.800781 1560.207031 1724.757812 1729.976562 1816.113281 1872.835938 C 1848.835938 1861.316406 1881.835938 1850.527344 1915.054688 1840.460938 C 1822.242188 1705.328125 1772.269531 1545.5625 1772.269531 1378.070312 L 1772.269531 326.980469 L 2591.226562 104.234375 L 3410.179688 326.980469 L 3410.179688 1378.070312 C 3410.179688 1545.378906 3360.320312 1704.988281 3267.691406 1840.035156 C 3300.910156 1850.0625 3333.929688 1860.84375 3366.660156 1872.339844 C 3457.824219 1729.59375 3510.648438 1560.007812 3510.648438 1378.070312 L 3510.648438 250.171875 L 2591.226562 0.0898438 " fill-opacity="1" fill-rule="nonzero"/><path fill="#1d333b" d="M 2592.089844 2157.488281 C 2452.800781 2157.488281 2315.71875 2172.289062 2181.832031 2201.628906 C 2305.113281 2263.050781 2444.132812 2297.601562 2591.226562 2297.601562 C 2738.527344 2297.601562 2877.738281 2262.949219 3001.132812 2201.359375 C 2867.644531 2172.203125 2730.957031 2157.488281 2592.089844 2157.488281 " fill-opacity="1" fill-rule="nonzero"/><path fill="#eb6a18" d="M 3771.6875 1377.511719 C 3771.6875 1377.511719 3714.082031 1397.589844 3676.351562 1440.234375 C 3677.488281 1419.605469 3678.097656 1398.878906 3678.097656 1378.070312 L 3678.097656 1358.269531 C 3774.1875 1326.050781 3768.164062 1185.597656 3768.164062 1185.597656 C 3768.164062 1185.597656 3712.921875 1209.128906 3678.097656 1253.523438 L 3678.097656 1173.761719 C 3774.1875 1141.539062 3768.164062 1001.113281 3768.164062 1001.113281 C 3768.164062 1001.113281 3712.921875 1024.652344 3678.097656 1069.042969 L 3678.097656 989.285156 C 3774.1875 957.039062 3768.164062 816.613281 3768.164062 816.613281 C 3768.164062 816.613281 3712.921875 840.144531 3678.097656 884.539062 L 3678.097656 804.773438 C 3774.1875 772.554688 3768.164062 632.109375 3768.164062 632.109375 C 3768.164062 632.109375 3712.921875 655.644531 3678.097656 700.03125 L 3678.097656 620.273438 C 3774.1875 588.054688 3768.164062 447.625 3768.164062 447.625 C 3768.164062 447.625 3712.921875 471.160156 3678.097656 515.527344 L 3678.097656 435.789062 C 3774.1875 403.554688 3768.164062 263.125 3768.164062 263.125 C 3768.164062 263.125 3712.921875 286.65625 3678.097656 331.046875 L 3678.097656 298.335938 C 3768.582031 227.597656 3661.351562 104.234375 3661.351562 104.234375 C 3661.351562 104.234375 3554.132812 227.597656 3644.609375 298.335938 L 3644.609375 331.046875 C 3609.792969 286.65625 3554.5625 263.125 3554.5625 263.125 C 3554.5625 263.125 3548.507812 403.554688 3644.609375 435.789062 L 3644.609375 515.554688 C 3609.792969 471.160156 3554.5625 447.625 3554.5625 447.625 C 3554.5625 447.625 3548.507812 588.054688 3644.609375 620.273438 L 3644.609375 700.03125 C 3609.792969 655.644531 3554.5625 632.109375 3554.5625 632.109375 C 3554.5625 632.109375 3548.507812 772.554688 3644.609375 804.773438 L 3644.609375 884.539062 C 3609.792969 840.144531 3554.5625 816.613281 3554.5625 816.613281 C 3554.5625 816.613281 3548.507812 957.039062 3644.609375 989.285156 L 3644.609375 1069.042969 C 3609.792969 1024.652344 3554.5625 1001.113281 3554.5625 1001.113281 C 3554.5625 1001.113281 3548.507812 1141.539062 3644.609375 1173.761719 L 3644.609375 1253.523438 C 3609.792969 1209.128906 3554.5625 1185.597656 3554.5625 1185.597656 C 3554.5625 1185.597656 3548.507812 1326.050781 3644.609375 1358.269531 L 3644.609375 1378.070312 C 3644.609375 1397.40625 3644.066406 1416.65625 3643.039062 1435.8125 C 3611.207031 1389.863281 3558.554688 1363.09375 3558.554688 1363.09375 C 3558.554688 1363.09375 3543.554688 1498.382812 3632.347656 1539.507812 C 3619.238281 1624.847656 3595.664062 1708.046875 3561.773438 1788.1875 C 3542.238281 1834.363281 3519.597656 1878.820312 3493.964844 1921.375 C 3504.351562 1925.730469 3514.703125 1930.175781 3525.023438 1934.6875 C 3550.496094 1891.972656 3573.066406 1847.449219 3592.628906 1801.226562 C 3627.566406 1718.585938 3651.882812 1632.820312 3665.40625 1544.847656 C 3768.109375 1522.542969 3771.6875 1377.511719 3771.6875 1377.511719 " fill-opacity="1" fill-rule="nonzero"/><path fill="#eb6a18" d="M 1549.511719 1535.714844 C 1626.773438 1496.925781 1629.695312 1377.511719 1629.695312 1377.511719 C 1629.695312 1377.511719 1576.957031 1395.890625 1539.351562 1434.832031 C 1538.355469 1415.984375 1537.84375 1397.074219 1537.84375 1378.070312 L 1537.84375 1357.660156 C 1632.128906 1324.347656 1626.171875 1185.597656 1626.171875 1185.597656 C 1626.171875 1185.597656 1572.734375 1208.394531 1537.84375 1251.378906 L 1537.84375 1173.183594 C 1632.128906 1139.847656 1626.171875 1001.113281 1626.171875 1001.113281 C 1626.171875 1001.113281 1572.734375 1023.894531 1537.84375 1066.894531 L 1537.84375 988.675781 C 1632.128906 955.339844 1626.171875 816.613281 1626.171875 816.613281 C 1626.171875 816.613281 1572.734375 839.386719 1537.84375 882.394531 L 1537.84375 804.171875 C 1632.128906 770.863281 1626.171875 632.109375 1626.171875 632.109375 C 1626.171875 632.109375 1572.734375 654.910156 1537.84375 697.894531 L 1537.84375 619.671875 C 1632.128906 586.351562 1626.171875 447.625 1626.171875 447.625 C 1626.171875 447.625 1572.734375 470.398438 1537.84375 513.382812 L 1537.84375 435.1875 C 1632.128906 401.851562 1626.171875 263.125 1626.171875 263.125 C 1626.171875 263.125 1572.734375 285.898438 1537.84375 328.910156 L 1537.84375 296.976562 C 1625.230469 226.011719 1519.371094 104.234375 1519.371094 104.234375 C 1519.371094 104.234375 1410.753906 229.1875 1504.351562 299.699219 L 1504.351562 333.304688 C 1469.667969 287.460938 1412.578125 263.125 1412.578125 263.125 C 1412.578125 263.125 1406.464844 405.246094 1504.351562 436.347656 L 1504.351562 517.789062 C 1469.667969 471.945312 1412.578125 447.625 1412.578125 447.625 C 1412.578125 447.625 1406.464844 589.730469 1504.351562 620.859375 L 1504.351562 702.289062 C 1469.667969 656.445312 1412.578125 632.109375 1412.578125 632.109375 C 1412.578125 632.109375 1406.464844 774.230469 1504.351562 805.359375 L 1504.351562 886.789062 C 1469.667969 840.953125 1412.578125 816.613281 1412.578125 816.613281 C 1412.578125 816.613281 1406.464844 958.738281 1504.351562 989.84375 L 1504.351562 1071.273438 C 1469.667969 1025.429688 1412.578125 1001.113281 1412.578125 1001.113281 C 1412.578125 1001.113281 1406.464844 1143.242188 1504.351562 1174.34375 L 1504.351562 1255.773438 C 1469.667969 1209.941406 1412.578125 1185.597656 1412.578125 1185.597656 C 1412.578125 1185.597656 1406.464844 1327.726562 1504.351562 1358.847656 L 1504.351562 1378.070312 C 1504.351562 1400.109375 1505.015625 1422.039062 1506.316406 1443.878906 C 1475.425781 1393.011719 1416.582031 1363.09375 1416.582031 1363.09375 C 1416.582031 1363.09375 1399.933594 1513.117188 1505.390625 1545.25 C 1505.554688 1545.9375 1505.6875 1546.652344 1505.863281 1547.367188 C 1507.667969 1547.238281 1509.445312 1547.054688 1511.199219 1546.851562 C 1512.917969 1547.308594 1514.652344 1547.707031 1516.421875 1548.082031 C 1516.691406 1547.394531 1516.921875 1546.722656 1517.171875 1546.035156 L 1517.226562 1546.035156 C 1530.796875 1633.578125 1555.050781 1718.96875 1589.839844 1801.226562 C 1609.480469 1847.675781 1632.171875 1892.394531 1657.777344 1935.269531 C 1668.09375 1930.753906 1678.445312 1926.339844 1688.84375 1921.960938 C 1663.0625 1879.222656 1640.300781 1834.589844 1620.675781 1788.1875 C 1586.28125 1706.84375 1562.496094 1622.371094 1549.511719 1535.714844 " fill-opacity="1" fill-rule="nonzero"/><path fill="#eb6a18" d="M 3001.292969 2348.730469 C 2871.34375 2403.679688 2733.375 2431.574219 2591.226562 2431.574219 C 2449.078125 2431.574219 2311.113281 2403.679688 2181.160156 2348.730469 C 2117.625 2321.847656 2057.386719 2289.089844 2000.835938 2250.753906 C 1987.632812 2255.0625 1974.472656 2259.527344 1961.347656 2264.109375 C 2025.632812 2309.898438 2094.75 2348.53125 2168.113281 2379.5625 C 2302.21875 2436.300781 2444.578125 2465.066406 2591.226562 2465.066406 C 2737.882812 2465.066406 2880.230469 2436.300781 3014.328125 2379.5625 C 3087.910156 2348.441406 3157.21875 2309.679688 3221.667969 2263.707031 C 3208.542969 2259.128906 3195.375 2254.660156 3182.179688 2250.371094 C 3125.464844 2288.871094 3065.027344 2321.761719 3001.292969 2348.730469 " fill-opacity="1" fill-rule="nonzero"/><path fill="#1d333b" d="M 3390.976562 2270.691406 C 2882.890625 2045.328125 2301.285156 2045.328125 1793.203125 2270.691406 C 1751.410156 2177.714844 1709.617188 2084.761719 1667.824219 1991.800781 C 2255.019531 1730.867188 2929.148438 1730.867188 3516.363281 1991.800781 C 3474.570312 2084.761719 3432.769531 2177.714844 3390.976562 2270.691406 " fill-opacity="1" fill-rule="nonzero"/><g clip-path="url(#a886a65bca)"><path fill="#1d333b" d="M 3857.171875 2566.394531 C 3745.050781 2471.609375 3624.105469 2389.636719 3494.367188 2320.933594 C 3541.566406 2230.589844 3588.765625 2140.242188 3635.964844 2049.925781 C 3786.085938 2129.261719 3926.140625 2224.175781 4055.71875 2333.902344 C 3959.917969 2317.582031 3863.652344 2308.007812 3766.503906 2305.574219 C 3802.316406 2390.625 3832.613281 2477.4375 3857.171875 2566.394531 " fill-opacity="1" fill-rule="nonzero"/></g><g clip-path="url(#1e4c719c2d)"><path fill="#1d333b" d="M 1327.003906 2566.394531 C 1439.117188 2471.609375 1560.082031 2389.636719 1689.8125 2320.933594 C 1642.609375 2230.589844 1595.410156 2140.242188 1548.210938 2049.925781 C 1398.09375 2129.261719 1258.054688 2224.175781 1128.464844 2333.902344 C 1224.261719 2317.582031 1320.523438 2308.007812 1417.671875 2305.574219 C 1381.863281 2390.625 1351.574219 2477.4375 1327.003906 2566.394531 " fill-opacity="1" fill-rule="nonzero"/></g><path fill="#ffffff" d="M 3116.691406 864.933594 C 3099.101562 854.144531 3080.480469 845.570312 3061.277344 839.226562 C 3073.824219 809.265625 3080.722656 777.449219 3081.996094 745.429688 L 3167.441406 745.429688 C 3164.894531 791.472656 3146.097656 833.183594 3116.691406 864.933594 Z M 2835.332031 604.375 C 2852.949219 615.164062 2871.554688 623.710938 2890.75 630.078125 C 2878.199219 660.039062 2871.300781 691.855469 2870.054688 723.875 L 2784.585938 723.875 C 2787.15625 677.839844 2805.933594 636.132812 2835.332031 604.375 Z M 2986.796875 723.875 L 2986.796875 643.5625 C 3004.816406 642.847656 3022.789062 640.34375 3040.40625 636.0625 C 3052.457031 664.042969 3059.140625 693.871094 3060.429688 723.875 Z M 2986.796875 825.742188 L 2986.796875 745.429688 L 3060.429688 745.429688 C 3059.140625 775.433594 3052.457031 805.246094 3040.40625 833.246094 C 3022.789062 828.960938 3004.816406 826.457031 2986.796875 825.742188 Z M 3052.082031 858.90625 C 3068.828125 864.261719 3085.101562 871.429688 3100.574219 880.40625 C 3073.824219 903.292969 3040.71875 918.949219 3004.238281 924.332031 C 3023.90625 904.609375 3039.847656 882.480469 3052.082031 858.90625 Z M 2986.796875 911.292969 L 2986.796875 847.296875 C 3001.550781 847.941406 3016.265625 849.886719 3030.761719 853.121094 C 3019.351562 874.109375 3004.699219 893.757812 2986.796875 911.292969 Z M 2899.949219 858.90625 C 2912.1875 882.480469 2928.128906 904.609375 2947.792969 924.332031 C 2911.332031 918.949219 2878.199219 903.292969 2851.460938 880.40625 C 2866.929688 871.429688 2883.203125 864.261719 2899.949219 858.90625 Z M 2965.253906 911.292969 C 2947.324219 893.757812 2932.679688 874.109375 2921.273438 853.121094 C 2935.757812 849.886719 2950.472656 847.941406 2965.253906 847.296875 Z M 2965.253906 745.429688 L 2965.253906 825.742188 C 2947.210938 826.441406 2929.246094 828.9375 2911.628906 833.246094 C 2899.566406 805.246094 2892.894531 775.433594 2891.59375 745.429688 Z M 2965.253906 643.5625 L 2965.253906 723.875 L 2891.59375 723.875 C 2892.894531 693.871094 2899.566406 664.042969 2911.628906 636.0625 C 2929.246094 640.34375 2947.210938 642.847656 2965.253906 643.5625 Z M 2899.949219 610.410156 C 2883.203125 605.046875 2866.929688 597.875 2851.460938 588.882812 C 2878.199219 566.011719 2911.332031 550.367188 2947.792969 544.984375 C 2928.128906 564.695312 2912.1875 586.808594 2899.949219 610.410156 Z M 2965.253906 557.996094 L 2965.253906 621.992188 C 2950.472656 621.363281 2935.757812 619.429688 2921.273438 616.191406 C 2932.679688 595.199219 2947.324219 575.546875 2965.253906 557.996094 Z M 3004.257812 544.984375 C 3040.71875 550.367188 3073.824219 566.011719 3100.574219 588.898438 C 3085.101562 597.875 3068.828125 605.046875 3052.082031 610.410156 C 3039.867188 586.824219 3023.90625 564.695312 3004.257812 544.984375 Z M 2986.796875 557.996094 C 3004.699219 575.546875 3019.351562 595.199219 3030.761719 616.191406 C 3016.265625 619.429688 3001.550781 621.363281 2986.796875 621.992188 Z M 2870.054688 745.429688 C 2871.300781 777.449219 2878.199219 809.265625 2890.75 839.226562 C 2871.554688 845.570312 2852.949219 854.144531 2835.332031 864.933594 C 2805.933594 833.183594 2787.15625 791.472656 2784.585938 745.429688 Z M 3167.441406 723.875 L 3081.996094 723.875 C 3080.722656 691.855469 3073.824219 660.039062 3061.277344 630.078125 C 3080.480469 623.710938 3099.101562 615.164062 3116.691406 604.375 C 3146.097656 636.132812 3164.894531 677.839844 3167.441406 723.875 Z M 2976.015625 522.917969 C 2859.089844 522.917969 2764.289062 617.710938 2764.289062 734.640625 C 2764.289062 851.605469 2859.089844 946.390625 2976.015625 946.390625 C 3092.933594 946.390625 3187.734375 851.605469 3187.734375 734.640625 C 3187.734375 617.710938 3092.933594 522.917969 2976.015625 522.917969 " fill-opacity="1" fill-rule="nonzero"/><path fill="#eb6a18" d="M 1872.738281 1200.667969 L 1872.738281 1378.070312 C 1872.738281 1536.761719 1923.871094 1687.550781 2018.253906 1811.746094 C 2048.796875 1804.019531 2079.484375 1796.894531 2110.308594 1790.394531 C 2251.957031 1760.589844 2396.890625 1744 2541.855469 1740.871094 L 2541.855469 1200.667969 L 1872.738281 1200.667969 " fill-opacity="1" fill-rule="nonzero"/><path fill="#3a95b5" d="M 2642.324219 1200.667969 L 2642.324219 1740.871094 C 2787.3125 1744 2932.234375 1760.589844 3073.851562 1790.394531 C 3104.195312 1796.78125 3134.394531 1803.792969 3164.476562 1811.390625 C 3258.691406 1687.265625 3309.710938 1536.605469 3309.710938 1378.070312 L 3309.710938 1200.667969 L 2642.324219 1200.667969 " fill-opacity="1" fill-rule="nonzero"/><path fill="#3a95b5" d="M 2541.855469 1100.1875 L 2541.855469 221.789062 L 1872.738281 403.769531 L 1872.738281 1100.1875 L 2541.855469 1100.1875 " fill-opacity="1" fill-rule="nonzero"/><path fill="#ffffff" d="M 1968.910156 601.269531 L 1968.910156 872.214844 L 1980.613281 870.960938 C 1989.585938 870 1998.726562 869.511719 2007.789062 869.511719 C 2066.8125 869.511719 2117.050781 890.367188 2148.804688 907.847656 C 2183.234375 926.824219 2203.625 945.789062 2203.824219 945.960938 L 2204.289062 946.390625 C 2175.230469 930.644531 2057.265625 872.859375 1939.300781 903.117188 L 1939.300781 602.792969 C 1949.15625 601.722656 1959.046875 601.25 1968.910156 601.269531 " fill-opacity="1" fill-rule="nonzero"/><path fill="#ffffff" d="M 2183.722656 895.25 C 2145.558594 870.785156 2083.394531 840.839844 2007.789062 840.839844 C 2004.386719 840.839844 2000.976562 840.886719 1997.566406 841.015625 L 1997.566406 585.351562 C 2000.976562 585.191406 2004.386719 585.132812 2007.789062 585.132812 C 2046.328125 585.132812 2085.328125 594.082031 2123.710938 611.726562 C 2150.320312 623.9375 2171.050781 637.894531 2183.722656 647.398438 Z M 1979.480469 568.558594 L 1979.480469 860.441406 C 2088.667969 848.675781 2174.417969 908.449219 2201.820312 930.402344 L 2201.820312 638.519531 C 2174.417969 616.566406 2088.667969 556.792969 1979.480469 568.558594 " fill-opacity="1" fill-rule="nonzero"/><path fill="#ffffff" d="M 2445.25 601.269531 L 2445.25 872.214844 L 2433.542969 870.960938 C 2424.570312 870 2415.421875 869.511719 2406.367188 869.511719 C 2347.34375 869.511719 2297.101562 890.367188 2265.355469 907.847656 C 2230.921875 926.824219 2210.53125 945.789062 2210.332031 945.960938 L 2209.871094 946.390625 C 2238.921875 930.644531 2356.882812 872.859375 2474.855469 903.117188 L 2474.855469 602.792969 C 2464.992188 601.722656 2455.101562 601.25 2445.25 601.269531 " fill-opacity="1" fill-rule="nonzero"/><path fill="#ffffff" d="M 2416.582031 841.015625 C 2413.171875 840.886719 2409.769531 840.839844 2406.367188 840.839844 C 2330.765625 840.839844 2268.597656 870.785156 2230.433594 895.25 L 2230.433594 647.398438 C 2243.105469 637.894531 2263.835938 623.9375 2290.445312 611.726562 C 2328.828125 594.082031 2367.828125 585.132812 2406.367188 585.132812 C 2409.769531 585.132812 2413.179688 585.191406 2416.582031 585.351562 Z M 2212.335938 638.519531 L 2212.335938 930.402344 C 2239.738281 908.449219 2325.488281 848.675781 2434.679688 860.441406 L 2434.679688 568.558594 C 2325.488281 556.792969 2239.738281 616.566406 2212.335938 638.519531 " fill-opacity="1" fill-rule="nonzero"/><path fill="#ffffff" d="M 2822.835938 1621.65625 L 2817.542969 1685.160156 L 2877.023438 1662.34375 C 2862.867188 1644.28125 2844.152344 1630.210938 2822.835938 1621.65625 Z M 2931.878906 1601.113281 C 2916.851562 1608.300781 2898.40625 1607.125 2884.164062 1596.402344 C 2869.894531 1585.710938 2863.597656 1568.335938 2866.320312 1551.878906 C 2854.597656 1557.503906 2840.828125 1558.019531 2828.574219 1552.90625 L 2823.75 1610.847656 C 2848.972656 1620.320312 2871.011719 1636.867188 2887.15625 1658.453125 L 2941.453125 1637.644531 C 2933.097656 1627.308594 2929.75 1613.9375 2931.878906 1601.113281 Z M 3146.8125 1323.460938 L 3098.429688 1387.898438 L 3118.722656 1403.128906 L 3150.808594 1360.390625 C 3159.453125 1348.867188 3157.578125 1332.722656 3146.8125 1323.460938 Z M 2948.824219 1587.203125 C 2939.152344 1600.085938 2939.507812 1617.441406 2948.554688 1629.808594 L 3108.160156 1417.214844 L 3087.867188 1401.96875 Z M 3090.125 1381.644531 L 3138.554688 1317.117188 L 3081.328125 1274.152344 L 3032.878906 1338.664062 Z M 2883.273438 1537.992188 C 2871.441406 1553.753906 2874.632812 1576.238281 2890.417969 1588.074219 C 2906.175781 1599.929688 2928.660156 1596.734375 2940.496094 1580.949219 L 3079.539062 1395.730469 L 3022.316406 1352.75 Z M 3072.9375 1267.96875 C 3061.03125 1260.242188 3045.003906 1262.945312 3036.34375 1274.46875 L 3004.28125 1317.179688 L 3024.578125 1332.433594 Z M 2874.945312 1531.738281 L 3013.988281 1346.496094 L 2993.695312 1331.273438 L 2834.105469 1543.886719 C 2848.527344 1549.113281 2865.273438 1544.621094 2874.945312 1531.738281 " fill-opacity="1" fill-rule="nonzero"/><path fill="#ffffff" d="M 2148.53125 1369.792969 C 2132.984375 1369.792969 2120.378906 1382.40625 2120.378906 1397.949219 C 2120.378906 1413.480469 2132.984375 1426.101562 2148.53125 1426.101562 L 2176.675781 1426.101562 L 2176.675781 1397.949219 C 2176.675781 1382.40625 2164.074219 1369.792969 2148.53125 1369.792969 " fill-opacity="1" fill-rule="nonzero"/><path fill="#ffffff" d="M 2207.296875 1563.226562 C 2220.378906 1563.226562 2231.019531 1552.574219 2231.019531 1539.507812 L 2231.019531 1433.003906 L 2183.574219 1433.003906 L 2183.574219 1539.507812 C 2183.574219 1552.574219 2194.222656 1563.226562 2207.296875 1563.226562 " fill-opacity="1" fill-rule="nonzero"/><path fill="#ffffff" d="M 2294.214844 1397.949219 C 2294.214844 1382.40625 2281.609375 1369.792969 2266.070312 1369.792969 C 2250.519531 1369.792969 2237.917969 1382.40625 2237.917969 1397.949219 L 2237.917969 1426.101562 L 2266.070312 1426.101562 C 2281.609375 1426.101562 2294.214844 1413.480469 2294.214844 1397.949219 " fill-opacity="1" fill-rule="nonzero"/><path fill="#ffffff" d="M 2307.816406 1308.046875 C 2280.964844 1281.539062 2245.269531 1266.964844 2207.304688 1266.964844 L 2206.964844 1266.964844 C 2168.871094 1267.027344 2133.050781 1281.949219 2106.128906 1308.945312 C 2079.199219 1335.914062 2064.363281 1371.773438 2064.363281 1409.914062 C 2064.363281 1450.105469 2081.441406 1488.695312 2111.214844 1515.75 C 2127.742188 1530.761719 2141.773438 1548.355469 2152.953125 1568.023438 L 2152.953125 1439.902344 L 2159.851562 1439.902344 L 2159.851562 1562.195312 C 2169.578125 1559.246094 2176.675781 1550.183594 2176.675781 1539.507812 L 2176.675781 1433.003906 L 2148.53125 1433.003906 C 2129.171875 1433.003906 2113.480469 1417.300781 2113.480469 1397.949219 C 2113.480469 1378.585938 2129.171875 1362.894531 2148.53125 1362.894531 C 2167.886719 1362.894531 2183.574219 1378.585938 2183.574219 1397.949219 L 2183.574219 1426.101562 L 2231.019531 1426.101562 L 2231.019531 1397.949219 C 2231.019531 1378.585938 2246.707031 1362.894531 2266.070312 1362.894531 C 2285.421875 1362.894531 2301.113281 1378.585938 2301.113281 1397.949219 C 2301.113281 1417.300781 2285.421875 1433.003906 2266.070312 1433.003906 L 2237.917969 1433.003906 L 2237.917969 1539.507812 C 2237.917969 1550.183594 2245.015625 1559.246094 2254.742188 1562.195312 L 2254.742188 1439.902344 L 2261.640625 1439.902344 L 2261.640625 1568.738281 C 2273.003906 1548.640625 2287.304688 1530.578125 2304.164062 1515.015625 C 2333.964844 1487.550781 2350.746094 1448.546875 2350.222656 1407.996094 C 2349.722656 1370.035156 2334.671875 1334.527344 2307.816406 1308.046875 " fill-opacity="1" fill-rule="nonzero"/><path fill="#ffffff" d="M 2256.503906 1626.121094 C 2256.503906 1651.265625 2239.015625 1672.324219 2215.539062 1677.792969 C 2233.714844 1667.742188 2246.019531 1648.363281 2246.019531 1626.121094 L 2246.019531 1613.421875 L 2256.503906 1613.421875 Z M 2148.269531 1607.457031 L 2148.269531 1626.121094 C 2148.269531 1658.722656 2174.695312 1685.160156 2207.296875 1685.160156 C 2239.898438 1685.160156 2266.332031 1658.722656 2266.324219 1626.121094 L 2266.324219 1607.457031 L 2148.269531 1607.457031 " fill-opacity="1" fill-rule="nonzero"/><path fill="#ffffff" d="M 2266.332031 1579.300781 L 2148.269531 1579.300781 L 2148.269531 1595.359375 L 2266.332031 1595.359375 L 2266.332031 1579.300781 " fill-opacity="1" fill-rule="nonzero"/></svg>