<svg xmlns="http://www.w3.org/2000/svg" xmlns:xlink="http://www.w3.org/1999/xlink" width="6912" zoomAndPan="magnify" viewBox="0 0 5184 2592.000001" height="3456" preserveAspectRatio="xMidYMid meet" version="1.0"><defs><clipPath id="9dbe0ec88d"><path d="M 1409.855469 0 L 3774.445312 0 L 3774.445312 2591 L 1409.855469 2591 Z M 1409.855469 0 " clip-rule="nonzero"/></clipPath></defs><g clip-path="url(#9dbe0ec88d)"><path fill="#d6a051" d="M 2446.109375 1283.707031 C 2377.726562 1268.296875 2311.035156 1225.402344 2281.101562 1160.027344 L 2281.101562 1159.753906 C 2281.238281 1159.234375 2281.515625 1158.960938 2281.894531 1159.234375 C 2282.03125 1159.234375 2282.171875 1159.234375 2282.171875 1159.511719 C 2329.378906 1217.023438 2383.382812 1244.230469 2446.660156 1282.398438 L 2446.902344 1282.398438 C 2447.179688 1282.914062 2447.039062 1283.433594 2446.523438 1283.671875 L 2446.109375 1283.671875 Z M 2194.269531 1900.3125 C 2255.066406 1884.070312 2297.273438 1891.140625 2359.277344 1900.828125 C 2360.175781 1900.828125 2360.589844 1900.585938 2360.3125 1899.792969 C 2360.3125 1899.277344 2360.175781 1899 2359.761719 1898.761719 C 2359.382812 1898.242188 2358.726562 1897.96875 2357.792969 1897.726562 C 2297.515625 1886.484375 2253.6875 1877.3125 2193.167969 1897.449219 C 2192.511719 1896.933594 2192.269531 1897.449219 2192.511719 1899.035156 C 2192.511719 1900.070312 2193.167969 1900.621094 2194.234375 1900.347656 Z M 1855.601562 1560.375 C 1942.8125 1632.300781 2039.710938 1687.984375 2146.164062 1727.222656 C 2146.164062 1727.222656 2146.300781 1727.5 2146.441406 1727.5 C 2146.957031 1727.5 2147.335938 1726.945312 2147.335938 1726.464844 L 2147.335938 1726.1875 C 2147.0625 1725.394531 2146.785156 1724.601562 2146.542969 1723.84375 C 2146.128906 1722.53125 2145.476562 1721.738281 2144.335938 1721.222656 C 2027.675781 1662.125 1945.191406 1620.300781 1854.1875 1555.960938 C 1854.1875 1555.960938 1853.773438 1555.71875 1853.53125 1555.71875 C 1853.015625 1555.71875 1852.632812 1556.238281 1852.632812 1556.753906 L 1852.632812 1557.269531 C 1853.289062 1559.375 1854.21875 1560.410156 1855.632812 1560.410156 Z M 2368.691406 1367.667969 C 2441.039062 1382.042969 2506.113281 1407.9375 2560.011719 1459.96875 C 2560.285156 1460.246094 2560.664062 1460.519531 2560.90625 1460.246094 C 2561.457031 1460.246094 2561.804688 1459.726562 2562.078125 1458.933594 C 2562.492188 1458.417969 2562.492188 1457.660156 2561.941406 1457.105469 C 2513.457031 1402.179688 2444.003906 1378.425781 2373.796875 1365.320312 L 2328.3125 1354.355469 C 2327.898438 1354.355469 2327.65625 1354.355469 2327.515625 1354.632812 C 2327.378906 1355.148438 2327.277344 1355.667969 2327 1356.183594 C 2326.863281 1356.738281 2327 1357.253906 2327.65625 1357.253906 L 2368.691406 1367.699219 Z M 2506.9375 1230.917969 C 2509.527344 1262.539062 2506.664062 1289.226562 2528.628906 1315.121094 C 2547.078125 1337.117188 2562.769531 1360.875 2575.839844 1386.492188 C 2576.632812 1388.078125 2577.148438 1388.078125 2577.289062 1386.25 C 2583.289062 1321.394531 2552.5625 1267.539062 2509.285156 1224.402344 C 2508.90625 1224.128906 2508.386719 1223.851562 2507.871094 1223.851562 C 2507.214844 1223.851562 2506.421875 1224.402344 2506.007812 1224.886719 C 2505.113281 1226.988281 2505.351562 1229.058594 2506.9375 1230.917969 Z M 1761.320312 773.304688 C 1752.421875 977.25 1789.5625 1169.441406 1900.707031 1342.804688 C 1905.015625 1349.597656 1909.742188 1361.117188 1917.429688 1367.390625 C 1917.808594 1367.667969 1918.328125 1367.941406 1918.980469 1367.941406 C 1920.292969 1367.941406 1921.328125 1366.90625 1921.328125 1365.597656 C 1921.328125 1365.320312 1921.1875 1364.804688 1921.085938 1364.5625 C 1910.222656 1342.324219 1888.117188 1299.191406 1854.632812 1234.851562 C 1773.042969 1078.761719 1764.5625 874.777344 1765.871094 700.894531 C 1765.871094 699.585938 1765.457031 699.308594 1764.5625 700.101562 C 1763.527344 700.894531 1762.976562 701.652344 1762.976562 702.6875 C 1762.835938 726.238281 1762.183594 749.753906 1761.285156 773.304688 Z M 2592.148438 403.300781 L 2593.460938 403.542969 C 2639.738281 405.128906 2676.085938 442.261719 2674.671875 486.15625 C 2673.117188 529.046875 2636.601562 562.804688 2592.148438 563.285156 C 2547.699219 562.769531 2511.214844 529.046875 2509.765625 486.15625 C 2508.179688 442.226562 2544.5625 405.09375 2590.976562 403.542969 Z M 2705.257812 489.292969 L 2714.15625 485.878906 C 2715.328125 485.636719 2715.984375 484.601562 2715.984375 483.535156 C 2715.984375 482.222656 2715.191406 481.191406 2714.015625 480.914062 L 2704.363281 478.050781 C 2701.601562 477.257812 2700.15625 475.429688 2699.773438 472.8125 C 2693.601562 419.195312 2651.773438 397.75 2605.355469 388.851562 C 2602.496094 388.335938 2600.011719 386.507812 2598.839844 383.644531 L 2594.253906 372.921875 C 2593.734375 371.886719 2593.082031 371.335938 2592.148438 370.820312 C 2591.253906 371.335938 2590.597656 371.855469 2590.183594 372.921875 L 2585.460938 383.644531 C 2584.289062 386.542969 2581.804688 388.371094 2578.941406 388.851562 C 2532.628906 397.75 2490.664062 419.195312 2484.558594 472.8125 C 2484.144531 475.429688 2482.695312 477.257812 2479.972656 478.050781 L 2470.28125 480.914062 C 2469.109375 481.191406 2468.316406 482.222656 2468.316406 483.535156 C 2468.316406 484.570312 2469.109375 485.636719 2470.144531 485.878906 L 2479.074219 489.292969 C 2480.902344 490.085938 2481.9375 491.15625 2482.351562 493.222656 C 2488.214844 524.875 2495.558594 558.355469 2526.664062 573.492188 C 2537.25 578.699219 2564.734375 581.835938 2592.148438 582.113281 C 2619.738281 581.835938 2647.222656 578.699219 2657.636719 573.492188 C 2688.878906 558.320312 2696.222656 524.875 2701.980469 493.222656 C 2702.363281 491.121094 2703.394531 490.085938 2705.257812 489.292969 Z M 2592.148438 686.722656 C 2593.046875 686.722656 2593.875 686.207031 2594.769531 684.621094 C 2604.839844 667.898438 2613.183594 650.65625 2620.253906 632.867188 C 2623.117188 625.28125 2622.082031 619.003906 2616.703125 613.765625 C 2616.289062 613.214844 2616.046875 612.972656 2615.804688 612.453125 C 2615.011719 610.628906 2615.945312 608.558594 2617.910156 607.488281 C 2618.460938 607.488281 2618.804688 607.246094 2619.359375 607.246094 L 2935.128906 598.59375 C 2935.511719 598.59375 2935.648438 598.351562 2935.648438 597.800781 L 2935.648438 595.699219 C 2935.648438 595.421875 2935.511719 595.179688 2935.128906 595.179688 C 2916.679688 593.316406 2890.785156 592.007812 2857.195312 590.972656 C 2768.8125 588.871094 2680.808594 586.007812 2592.148438 586.007812 C 2503.492188 586.007812 2415.625 588.871094 2327.105469 590.972656 C 2293.480469 592.007812 2267.582031 593.316406 2249.273438 595.179688 C 2248.894531 595.179688 2248.617188 595.421875 2248.617188 595.699219 L 2248.617188 597.800781 C 2248.617188 598.351562 2248.894531 598.59375 2249.273438 598.59375 L 2565.046875 607.246094 C 2565.460938 607.246094 2565.976562 607.488281 2566.492188 607.488281 C 2568.320312 608.558594 2569.253906 610.660156 2568.460938 612.453125 C 2568.21875 613.007812 2567.941406 613.246094 2567.5625 613.765625 C 2562.355469 618.972656 2561.148438 625.28125 2564.148438 632.867188 C 2571.078125 650.65625 2579.5625 667.898438 2589.496094 684.621094 C 2590.425781 686.207031 2591.355469 686.722656 2592.117188 686.722656 Z M 2738.191406 1283.707031 C 2806.574219 1268.296875 2873.402344 1225.402344 2903.199219 1160.027344 L 2903.199219 1159.753906 C 2903.058594 1159.234375 2902.820312 1158.960938 2902.542969 1159.234375 C 2902.265625 1159.234375 2902.128906 1159.234375 2902.128906 1159.511719 C 2854.953125 1217.023438 2800.917969 1244.230469 2737.640625 1282.398438 C 2737.457031 1282.398438 2737.316406 1282.480469 2737.226562 1282.640625 C 2737.085938 1282.914062 2737.363281 1283.433594 2737.777344 1283.671875 L 2738.15625 1283.671875 Z M 2592.148438 2590.875 L 2592.425781 2590.875 C 2595.425781 2537.257812 2603.53125 2484.710938 2616.460938 2433.199219 C 2647.566406 2310.035156 2739.914062 2194.183594 2870.265625 2172.769531 C 2952.785156 2159.1875 3049.652344 2191.320312 3120.277344 2237.59375 C 3132.035156 2245.214844 3141.589844 2250.9375 3149.175781 2254.867188 C 3154.035156 2257.488281 3154.933594 2256.453125 3151.898438 2252.003906 C 3097.792969 2171.460938 3016.167969 2130.152344 2919.027344 2128.292969 C 2768.535156 2125.15625 2658.566406 2227.421875 2594.21875 2356.308594 C 2593.703125 2357.101562 2593.046875 2357.894531 2592.117188 2358.132812 C 2591.21875 2357.894531 2590.5625 2357.101562 2590.148438 2356.308594 C 2525.835938 2227.421875 2415.695312 2125.15625 2265.34375 2128.292969 C 2168.199219 2130.152344 2086.472656 2171.460938 2032.46875 2252.003906 C 2029.332031 2256.453125 2030.261719 2257.488281 2035.054688 2254.867188 C 2042.675781 2250.9375 2052.332031 2245.214844 2063.953125 2237.59375 C 2134.578125 2191.320312 2231.445312 2159.152344 2313.964844 2172.769531 C 2444.351562 2194.183594 2536.800781 2310.035156 2567.769531 2433.199219 C 2580.699219 2484.710938 2588.804688 2537.292969 2591.941406 2590.875 Z M 2990.0625 1900.3125 C 2929.234375 1884.070312 2887.023438 1891.140625 2825.023438 1900.828125 C 2824.230469 1900.828125 2823.746094 1900.585938 2823.988281 1899.792969 C 2823.988281 1899.277344 2824.261719 1899 2824.539062 1898.761719 C 2824.953125 1898.242188 2825.574219 1897.96875 2826.644531 1897.726562 C 2886.785156 1886.484375 2930.613281 1877.3125 2991.132812 1897.449219 C 2991.789062 1896.933594 2992.03125 1897.449219 2991.789062 1899.035156 C 2991.789062 1900.070312 2991.132812 1900.621094 2990.097656 1900.347656 Z M 3328.699219 1560.375 C 3241.488281 1632.300781 3144.589844 1687.984375 3038.136719 1727.222656 L 3037.894531 1727.5 C 3037.34375 1727.5 3036.960938 1726.945312 3036.960938 1726.464844 L 3036.960938 1726.1875 C 3037.375 1725.394531 3037.515625 1724.601562 3037.757812 1723.84375 C 3038.136719 1722.53125 3038.789062 1721.738281 3039.964844 1721.222656 C 3156.589844 1662.125 3239.109375 1620.300781 3330.113281 1555.960938 C 3330.25 1555.960938 3330.492188 1555.71875 3330.769531 1555.71875 C 3331.320312 1555.71875 3331.804688 1556.238281 3331.804688 1556.753906 L 3331.804688 1557.269531 C 3331.148438 1559.375 3330.113281 1560.410156 3328.664062 1560.410156 Z M 2815.609375 1367.667969 C 2743.292969 1382.042969 2678.1875 1407.9375 2624.425781 1459.96875 C 2624.046875 1460.246094 2623.632812 1460.519531 2623.394531 1460.246094 C 2622.875 1460.246094 2622.597656 1459.726562 2622.21875 1458.933594 C 2621.839844 1458.417969 2621.945312 1457.660156 2622.359375 1457.105469 C 2670.878906 1402.179688 2740.292969 1378.425781 2810.640625 1365.320312 L 2856.023438 1354.355469 C 2856.402344 1354.355469 2856.816406 1354.355469 2856.816406 1354.632812 C 2856.953125 1355.148438 2857.09375 1355.667969 2857.335938 1356.183594 C 2857.472656 1356.738281 2857.230469 1357.253906 2856.816406 1357.253906 L 2815.644531 1367.699219 Z M 2677.53125 1230.917969 C 2674.914062 1262.539062 2677.671875 1289.226562 2655.671875 1315.121094 C 2637.253906 1337.117188 2621.566406 1360.875 2608.460938 1386.492188 C 2607.667969 1388.078125 2607.183594 1388.078125 2607.046875 1386.25 C 2601.011719 1321.394531 2631.773438 1267.539062 2675.050781 1224.402344 C 2675.429688 1224.128906 2675.945312 1223.851562 2676.5 1223.851562 C 2677.292969 1223.851562 2677.914062 1224.402344 2678.328125 1224.886719 C 2679.359375 1226.988281 2679.121094 1229.058594 2677.53125 1230.917969 Z M 3423.082031 773.304688 C 3431.875 977.25 3394.738281 1169.441406 3283.699219 1342.804688 C 3279.25 1349.597656 3274.558594 1361.117188 3266.835938 1367.390625 C 3266.457031 1367.667969 3265.9375 1367.941406 3265.421875 1367.941406 C 3264.109375 1367.941406 3263.078125 1366.90625 3263.078125 1365.597656 C 3263.078125 1365.320312 3263.078125 1364.804688 3263.214844 1364.5625 C 3274.078125 1342.324219 3296.148438 1299.191406 3329.632812 1234.851562 C 3411.21875 1078.761719 3419.703125 874.777344 3418.429688 700.894531 C 3418.429688 699.585938 3418.808594 699.308594 3419.839844 700.101562 C 3420.875 700.894531 3421.289062 701.652344 3421.289062 702.6875 C 3421.566406 726.238281 3422.082031 749.753906 3423.117188 773.304688 Z M 2592.117188 1804.355469 C 2592.769531 1804.355469 2593.425781 1804.078125 2593.976562 1803.5625 C 2687.1875 1746.324219 2777.8125 1684.605469 2865.816406 1618.714844 C 2987.683594 1527.722656 3108.34375 1390.976562 3122.863281 1233.023438 C 3125.070312 1208.4375 3123.277344 1169.476562 3117.378906 1115.894531 C 3096.722656 930.773438 3073.964844 725.515625 3144.175781 544.011719 C 3144.3125 543.496094 3144.449219 543.496094 3144.589844 542.976562 C 3145.898438 541.152344 3148.382812 540.632812 3150.347656 541.945312 C 3150.621094 542.21875 3150.863281 542.496094 3151.140625 542.496094 L 3183.453125 576.734375 C 3184.902344 578.320312 3185.175781 579.871094 3184.625 581.699219 C 3143.449219 713.238281 3147.242188 855.984375 3162.519531 996.144531 C 3173.003906 1091.828125 3178.867188 1152.789062 3180.3125 1178.925781 C 3190.796875 1384.976562 3049.964844 1554.6875 2887.300781 1672.089844 C 2793.539062 1739.84375 2695.980469 1803.871094 2594.667969 1864.003906 C 2593.769531 1864.554688 2592.941406 1864.796875 2592.183594 1865.039062 C 2591.390625 1864.796875 2590.632812 1864.519531 2589.703125 1864.003906 C 2488.492188 1803.871094 2390.933594 1739.808594 2297.066406 1672.089844 C 2134.507812 1554.71875 1993.570312 1385.011719 2004.019531 1178.925781 C 2005.46875 1152.789062 2011.367188 1091.863281 2021.816406 996.144531 C 2037.125 855.984375 2041.058594 713.238281 1999.710938 581.699219 C 1999.191406 579.835938 1999.570312 578.285156 2001.019531 576.734375 L 2033.332031 542.496094 C 2033.332031 542.496094 2033.746094 542.21875 2033.988281 541.945312 C 2035.953125 540.632812 2038.4375 541.148438 2039.746094 542.976562 C 2039.882812 543.53125 2040.160156 543.53125 2040.160156 544.011719 C 2110.507812 725.515625 2087.75 930.773438 2067.09375 1115.894531 C 2061.058594 1169.511719 2059.230469 1208.472656 2061.472656 1233.023438 C 2075.988281 1390.941406 2196.683594 1527.722656 2318.515625 1618.714844 C 2406.554688 1684.605469 2497.285156 1746.324219 2590.390625 1803.5625 C 2591.046875 1804.113281 2591.5625 1804.355469 2592.21875 1804.355469 Z M 2592.117188 1638.816406 C 2632.53125 1640.402344 2654.738281 1687.707031 2678.429688 1716.5 C 2680.121094 1718.601562 2679.738281 1720.394531 2677.53125 1721.980469 L 2599.324219 1773.21875 C 2598.769531 1773.460938 2598.011719 1773.734375 2597.21875 1773.734375 C 2595.496094 1773.734375 2593.941406 1772.703125 2593.5625 1770.875 L 2592.117188 1765.117188 L 2590.667969 1770.875 C 2590.289062 1772.703125 2588.703125 1773.734375 2587.011719 1773.734375 C 2586.21875 1773.734375 2585.425781 1773.460938 2584.90625 1773.21875 L 2506.699219 1721.980469 C 2504.492188 1720.394531 2504.214844 1718.566406 2505.90625 1716.5 C 2529.457031 1687.707031 2551.804688 1640.402344 2592.082031 1638.816406 Z M 2592.117188 1568.996094 L 2596.976562 1568.203125 C 2597.355469 1567.960938 2597.632812 1567.960938 2597.875 1567.960938 C 2601.011719 1567.960938 2603.496094 1570.546875 2603.496094 1573.683594 C 2603.496094 1574.234375 2603.496094 1574.753906 2603.355469 1574.992188 L 2595.253906 1604.820312 C 2595.011719 1605.851562 2593.839844 1606.644531 2592.667969 1606.644531 L 2591.632812 1606.644531 C 2590.460938 1606.644531 2589.425781 1605.851562 2589.011719 1604.820312 L 2580.90625 1574.992188 C 2580.769531 1574.753906 2580.769531 1574.199219 2580.769531 1573.683594 C 2580.769531 1570.546875 2583.253906 1567.960938 2586.390625 1567.960938 C 2586.804688 1567.960938 2587.046875 1567.960938 2587.289062 1568.203125 L 2592.148438 1568.996094 Z M 2592.117188 193.042969 C 2606.632812 222.589844 2626.910156 247.96875 2653.289062 268.863281 C 2777.261719 367.441406 2919.542969 411.125 3079.964844 399.886719 C 3082.308594 399.609375 3083.863281 400.679688 3084.136719 403.300781 C 3089.621094 438.054688 3101 471.019531 3118.136719 501.601562 C 3119.3125 503.945312 3119.449219 506.324219 3118.519531 508.394531 C 3042.550781 716.824219 3063.859375 939.046875 3092.65625 1157.132812 C 3126.242188 1411.285156 2876.230469 1583.613281 2695.773438 1703.914062 C 2694.742188 1704.429688 2693.671875 1704.949219 2692.359375 1704.949219 C 2690.535156 1704.949219 2688.707031 1703.914062 2687.636719 1702.328125 C 2654.289062 1658.160156 2592.839844 1581.511719 2700.742188 1567.683594 C 2702.292969 1567.683594 2702.84375 1566.890625 2702.292969 1565.339844 C 2702.050781 1564.789062 2701.773438 1564.304688 2701.257812 1563.753906 C 2700.464844 1563.238281 2699.292969 1562.71875 2697.707031 1562.71875 C 2676.914062 1562.203125 2656.394531 1561.410156 2635.875 1560.617188 C 2588.148438 1558.511719 2594.011719 1504.414062 2619.632812 1481.382812 C 2694.707031 1414.179688 2776.949219 1486.347656 2845.058594 1439.28125 C 2847.265625 1437.695312 2847.023438 1436.660156 2844.402344 1436.417969 C 2826.746094 1433.523438 2800.089844 1430.660156 2787.640625 1416.523438 C 2787.503906 1416.523438 2787.367188 1416.285156 2787.089844 1416.007812 C 2786.574219 1414.699219 2787.089844 1413.113281 2788.539062 1412.351562 L 2788.953125 1412.351562 C 2809.746094 1408.457031 2833.78125 1407.386719 2851.332031 1401.628906 C 2897.472656 1386.976562 2932.128906 1357.945312 2955.40625 1314.015625 C 2956.855469 1311.15625 2956.199219 1310.363281 2953.304688 1311.671875 C 2912.507812 1330.257812 2896.199219 1310.878906 2860.472656 1308.535156 C 2812.988281 1305.394531 2772.191406 1337.566406 2734.535156 1362.390625 C 2734.019531 1362.667969 2733.640625 1362.910156 2733.121094 1362.910156 C 2731.949219 1362.910156 2730.914062 1361.875 2730.914062 1360.5625 C 2730.914062 1360.5625 2730.914062 1360.046875 2731.050781 1359.769531 C 2768.433594 1270.605469 2872.886719 1289.15625 2933.578125 1232.4375 C 2981.683594 1187.476562 2992.410156 1134.375 2965.375 1072.691406 C 2964.339844 1070.347656 2963.511719 1070.347656 2962.890625 1072.691406 C 2947.476562 1132.03125 2917.75 1181.441406 2873.851562 1220.957031 C 2818.160156 1271.15625 2730.8125 1284.5 2684.636719 1344.082031 C 2658.082031 1378.355469 2632.1875 1413.386719 2607.117188 1448.695312 C 2607.117188 1448.695312 2606.839844 1448.9375 2606.5625 1448.9375 C 2606.152344 1449.210938 2605.53125 1448.9375 2605.253906 1448.417969 L 2605.253906 1447.867188 C 2620.183594 1335.429688 2725.292969 1266.675781 2804.019531 1201.027344 C 2832.539062 1177.234375 2842.851562 1156.582031 2841.816406 1120.515625 C 2841.679688 1118.410156 2840.644531 1117.894531 2838.679688 1118.652344 L 2818.261719 1127.308594 L 2817.46875 1127.308594 C 2816.296875 1127.308594 2815.367188 1126.238281 2815.367188 1125.203125 C 2815.367188 1124.6875 2815.503906 1124.171875 2816.023438 1123.652344 C 2831.851562 1108.480469 2840.089844 1096.171875 2840.886719 1087.035156 C 2845.609375 1031.59375 2827.160156 986.871094 2785.46875 953.390625 C 2782.570312 950.804688 2782.332031 951.046875 2784.8125 953.941406 C 2825.230469 1000.492188 2821.296875 1043.382812 2773.46875 1082.585938 C 2766.8125 1088.070312 2757.777344 1103.242188 2755.535156 1113.964844 C 2742.433594 1177.234375 2747.019531 1232.917969 2688.1875 1275.570312 C 2685.84375 1277.121094 2684.636719 1276.605469 2684.773438 1273.710938 L 2687.394531 1217.507812 C 2687.535156 1215.402344 2688.429688 1213.300781 2690.121094 1212.023438 C 2707.914062 1196.855469 2734.984375 1171.992188 2741.777344 1149.511719 C 2741.777344 1149.238281 2741.914062 1148.960938 2741.914062 1148.71875 C 2741.914062 1147.445312 2740.605469 1146.132812 2739.292969 1146.132812 C 2738.398438 1146.132812 2737.605469 1146.652344 2737.085938 1147.445312 C 2726.363281 1167.304688 2711.742188 1184.0625 2693.535156 1197.648438 C 2692.878906 1198.164062 2691.980469 1198.441406 2691.050781 1198.441406 C 2689.085938 1198.441406 2687.292969 1197.128906 2686.878906 1195.027344 C 2684.773438 1182.199219 2681.53125 1169.683594 2677.464844 1157.375 C 2677.464844 1157.097656 2677.1875 1156.582031 2676.910156 1156.582031 C 2676.394531 1156.0625 2675.601562 1156.339844 2675.222656 1156.855469 C 2674.945312 1157.410156 2674.945312 1157.648438 2674.945312 1157.890625 L 2679.53125 1199.75 C 2679.671875 1202.09375 2678.980469 1204.199219 2677.324219 1206.023438 C 2647.496094 1236.089844 2619.253906 1265.640625 2607.117188 1307.742188 C 2606.703125 1308.773438 2606.082031 1309.292969 2605.148438 1309.292969 C 2603.976562 1309.292969 2602.941406 1308.257812 2602.941406 1307.1875 C 2604.667969 1288.640625 2603.875 1270.570312 2611.460938 1253.089844 C 2646.253906 1174.371094 2704.949219 1093.3125 2664.671875 1004.664062 C 2663.875 1003.113281 2662.1875 1001.800781 2660.222656 1001.800781 C 2658.910156 1001.800781 2657.601562 1002.59375 2656.667969 1003.386719 C 2620.183594 1041.316406 2611.945312 1111.101562 2608.804688 1161.027344 C 2608.804688 1161.582031 2608.53125 1162.0625 2607.910156 1162.0625 C 2607.355469 1162.339844 2606.738281 1162.617188 2606.082031 1162.855469 C 2605.148438 1163.097656 2604.632812 1162.855469 2604.769531 1161.824219 C 2609.355469 1112.652344 2611.804688 1080.761719 2612.082031 1065.863281 C 2612.738281 1024.007812 2653.945312 1013.042969 2655.253906 967.285156 C 2656.050781 937.496094 2619.152344 880.46875 2605.289062 851.953125 C 2603.976562 849.367188 2602.703125 849.367188 2601.390625 851.953125 C 2598.253906 858.46875 2595.21875 864.777344 2592.113281 870.535156 C 2589.113281 864.777344 2585.976562 858.503906 2582.839844 851.953125 C 2581.5625 849.367188 2580.253906 849.367188 2578.941406 851.953125 C 2565.078125 880.46875 2528.320312 937.460938 2529.007812 967.285156 C 2530.320312 1013.042969 2571.492188 1024.039062 2572.148438 1065.863281 C 2572.425781 1080.761719 2574.90625 1112.652344 2579.492188 1161.824219 C 2579.597656 1162.855469 2579.078125 1163.097656 2578.183594 1162.855469 C 2577.527344 1162.582031 2577.011719 1162.304688 2576.320312 1162.0625 C 2575.664062 1162.0625 2575.425781 1161.546875 2575.425781 1161.027344 C 2572.285156 1111.101562 2564.042969 1041.28125 2527.558594 1003.386719 C 2526.664062 1002.59375 2525.351562 1001.800781 2524.007812 1001.800781 C 2522.042969 1001.800781 2520.351562 1003.113281 2519.558594 1004.664062 C 2479.28125 1093.3125 2538.007812 1174.371094 2572.769531 1253.089844 C 2580.390625 1270.605469 2579.699219 1288.640625 2581.285156 1307.1875 C 2581.285156 1308.222656 2580.390625 1309.292969 2579.078125 1309.292969 C 2578.183594 1309.292969 2577.492188 1308.773438 2577.113281 1307.742188 C 2565.078125 1265.640625 2536.699219 1236.089844 2506.902344 1206.023438 C 2505.179688 1204.199219 2504.558594 1202.128906 2504.800781 1199.75 L 2509.25 1157.890625 C 2509.25 1157.617188 2509.25 1157.375 2509.007812 1156.855469 C 2508.59375 1156.339844 2507.835938 1156.0625 2507.285156 1156.582031 C 2507.007812 1156.582031 2506.902344 1157.132812 2506.765625 1157.375 C 2502.695312 1169.648438 2499.558594 1182.199219 2497.351562 1195.027344 C 2496.9375 1197.128906 2495.25 1198.441406 2493.179688 1198.441406 C 2492.28125 1198.441406 2491.316406 1198.164062 2490.695312 1197.648438 C 2472.523438 1184.0625 2458.003906 1167.304688 2447.144531 1147.445312 C 2446.625 1146.652344 2445.832031 1146.132812 2445.039062 1146.132812 C 2443.589844 1146.132812 2442.417969 1147.445312 2442.417969 1148.71875 L 2442.417969 1149.511719 C 2449.210938 1171.992188 2476.28125 1196.820312 2494.074219 1212.023438 C 2495.800781 1213.300781 2496.695312 1215.4375 2496.835938 1217.507812 L 2499.421875 1273.710938 C 2499.558594 1276.605469 2498.523438 1277.121094 2496.007812 1275.570312 C 2437.175781 1232.953125 2441.761719 1177.234375 2428.695312 1113.964844 C 2426.488281 1103.242188 2417.453125 1088.070312 2410.761719 1082.585938 C 2362.761719 1043.347656 2359.105469 1000.457031 2399.382812 953.941406 C 2401.863281 951.082031 2401.726562 950.804688 2398.726562 953.390625 C 2357.035156 986.871094 2338.585938 1031.589844 2343.3125 1087.035156 C 2344.105469 1096.171875 2352.34375 1108.449219 2368.3125 1123.652344 C 2368.691406 1124.171875 2368.828125 1124.6875 2368.828125 1125.203125 C 2368.828125 1126.238281 2367.933594 1127.308594 2366.726562 1127.308594 L 2365.933594 1127.308594 L 2345.519531 1118.652344 C 2343.550781 1117.859375 2342.65625 1118.410156 2342.515625 1120.515625 C 2341.34375 1156.582031 2351.691406 1177.269531 2380.3125 1201.027344 C 2458.902344 1266.675781 2564.148438 1335.429688 2578.941406 1447.867188 C 2579.078125 1448.144531 2578.941406 1448.417969 2578.941406 1448.417969 C 2578.664062 1448.9375 2578.046875 1449.210938 2577.632812 1448.9375 C 2577.492188 1448.9375 2577.355469 1448.695312 2577.253906 1448.695312 C 2552.007812 1413.386719 2526.113281 1378.355469 2499.558594 1344.082031 C 2453.382812 1284.46875 2366.070312 1271.15625 2310.378906 1220.957031 C 2266.445312 1181.476562 2236.753906 1132.03125 2221.304688 1072.691406 C 2220.648438 1070.347656 2219.890625 1070.347656 2218.855469 1072.691406 C 2191.925781 1134.375 2202.613281 1187.476562 2250.753906 1232.4375 C 2311.308594 1289.191406 2415.898438 1270.605469 2453.175781 1359.769531 C 2453.316406 1360.046875 2453.316406 1360.324219 2453.316406 1360.324219 C 2453.316406 1361.875 2452.382812 1362.910156 2450.96875 1362.910156 C 2450.558594 1362.910156 2450.175781 1362.667969 2449.796875 1362.390625 C 2412.140625 1337.53125 2371.207031 1305.394531 2323.757812 1308.535156 C 2288.066406 1310.878906 2271.824219 1330.257812 2231.0625 1311.671875 C 2228.167969 1310.363281 2227.410156 1311.15625 2228.855469 1314.015625 C 2252.132812 1357.945312 2286.792969 1386.976562 2332.964844 1401.628906 C 2350.484375 1407.386719 2374.65625 1408.421875 2395.210938 1412.351562 L 2395.589844 1412.351562 C 2397.175781 1413.144531 2397.796875 1414.699219 2397.175781 1416.007812 C 2397.035156 1416.285156 2396.898438 1416.523438 2396.625 1416.523438 C 2384.207031 1430.660156 2357.519531 1433.523438 2339.863281 1436.417969 C 2337.277344 1436.660156 2337.136719 1437.695312 2339.207031 1439.28125 C 2407.347656 1486.347656 2489.558594 1414.179688 2564.628906 1481.382812 C 2590.390625 1504.414062 2596.289062 1558.511719 2548.390625 1560.617188 C 2527.871094 1561.410156 2507.351562 1562.203125 2486.695312 1562.71875 C 2485.109375 1562.71875 2483.800781 1563.269531 2483.144531 1563.753906 C 2482.59375 1564.304688 2482.246094 1564.789062 2481.972656 1565.339844 C 2481.558594 1566.925781 2481.972656 1567.683594 2483.558594 1567.683594 C 2591.5625 1581.511719 2530.113281 1658.160156 2496.765625 1702.328125 C 2495.59375 1703.914062 2493.730469 1704.949219 2491.902344 1704.949219 C 2490.730469 1704.949219 2489.558594 1704.398438 2488.488281 1703.914062 C 2308.035156 1583.648438 2058.160156 1411.316406 2091.644531 1157.132812 C 2120.402344 939.046875 2141.714844 716.789062 2065.746094 508.394531 C 2064.851562 506.292969 2064.953125 503.945312 2066.265625 501.601562 C 2083.402344 471.019531 2094.644531 438.054688 2100.128906 403.300781 C 2100.542969 400.679688 2101.957031 399.644531 2104.300781 399.886719 C 2264.753906 411.125 2407.003906 367.476562 2530.972656 268.863281 C 2557.390625 247.96875 2577.769531 222.554688 2592.148438 193.042969 Z M 2592.117188 32.226562 C 2593.289062 32.226562 2594.21875 32.78125 2594.734375 33.539062 C 2734.398438 220.246094 2914.300781 325.339844 3153.863281 253.96875 C 3158.449219 252.691406 3160.277344 254.242188 3159.210938 258.933594 C 3134.621094 373.714844 3147.414062 467.054688 3248.800781 540.53125 C 3251.386719 542.632812 3251.800781 544.734375 3249.695312 547.320312 L 3236.730469 564.320312 C 3235.316406 566.183594 3232.695312 566.664062 3230.589844 565.355469 C 3133.691406 505.5 3109.621094 417.882812 3113.3125 308.34375 L 3113.3125 308.066406 C 3113.3125 305.445312 3111.34375 303.617188 3108.722656 303.617188 L 3107.414062 303.617188 C 2892.335938 369.507812 2729.671875 242.175781 2594.976562 93.910156 C 2594.046875 92.878906 2593.011719 92.601562 2592.082031 92.601562 C 2591.148438 92.601562 2590.253906 92.878906 2589.21875 93.910156 C 2454.523438 242.175781 2291.859375 369.507812 2076.78125 303.617188 L 2075.472656 303.617188 C 2072.988281 303.617188 2070.886719 305.445312 2070.886719 308.066406 L 2070.886719 308.34375 C 2074.679688 417.882812 2050.609375 505.5 1953.605469 565.355469 C 1951.636719 566.664062 1948.914062 566.148438 1947.464844 564.320312 L 1934.394531 547.320312 C 1932.535156 544.734375 1932.808594 542.632812 1935.429688 540.53125 C 2036.78125 467.054688 2049.574219 373.714844 2024.988281 258.933594 C 2024.089844 254.207031 2025.78125 252.65625 2030.367188 253.96875 C 2270.03125 325.339844 2449.832031 220.246094 2589.460938 33.539062 C 2590.113281 32.746094 2591.046875 32.226562 2592.082031 32.226562 Z M 2592.117188 2328.066406 L 2592.390625 2327.550781 C 2683.152344 2160.1875 2846.851562 2076.777344 3036.03125 2123.328125 C 3059.066406 2129.085938 3084.136719 2142.429688 3108.585938 2151.324219 C 3110.691406 2151.839844 3112.792969 2151.839844 3114.863281 2151.046875 C 3206.246094 2115.742188 3308.355469 2033.367188 3329.042969 1931.929688 C 3332.804688 1912.828125 3329.421875 1911.277344 3318.699219 1927.480469 C 3299.113281 1957.304688 3270.835938 1984.476562 3234.246094 2009.335938 C 3174.867188 2049.332031 3110.519531 2052.230469 3041.617188 2042.539062 C 2953.613281 2030.507812 2858.679688 2028.164062 2777.746094 2068.433594 C 2744.261719 2085.15625 2711.050781 2114.191406 2680.84375 2139.566406 C 2679.914062 2140.359375 2678.636719 2140.878906 2677.292969 2140.878906 C 2674.015625 2140.878906 2671.53125 2138.257812 2671.53125 2135.117188 C 2671.53125 2134.085938 2671.808594 2133.015625 2672.324219 2131.980469 C 2706.570312 2078.640625 2743.847656 2053.296875 2805.433594 2031.300781 C 2846.886719 2016.40625 2886.886719 1998.097656 2925.476562 1976.648438 C 2927.683594 1975.339844 2927.683594 1974.0625 2925.335938 1972.996094 C 2886.644531 1954.132812 2838.503906 1952.859375 2796.433594 1950.996094 C 2795.78125 1950.996094 2795.125 1950.753906 2794.605469 1950.480469 C 2792.261719 1949.445312 2791.054688 1946.550781 2792.261719 1943.960938 C 2792.503906 1943.410156 2792.917969 1942.929688 2793.296875 1942.652344 C 2816.160156 1920.929688 2931.921875 1945.238281 2964.71875 1950.238281 C 3007.339844 1956.511719 3053.515625 1951.824219 3098.757812 1958.339844 C 3100.863281 1958.582031 3102.691406 1959.375 3104.242188 1960.925781 C 3108.828125 1965.132812 3114.449219 1967.996094 3120.828125 1969.304688 C 3123.726562 1969.824219 3125 1968.511719 3124.378906 1965.652344 C 3105.277344 1866.832031 3005.890625 1833.628906 2916.855469 1849.039062 C 2915.40625 1849.28125 2914.886719 1848.765625 2915.164062 1847.179688 C 2915.40625 1846.386719 2916.0625 1845.867188 2917.269531 1845.351562 C 2948.511719 1834.386719 2980.410156 1829.9375 3012.859375 1831.765625 C 3073 1835.421875 3125.828125 1869.933594 3186.898438 1852.9375 C 3254.386719 1833.835938 3312.457031 1798.007812 3360.941406 1744.945312 C 3362.113281 1743.636719 3362.90625 1742.324219 3363.425781 1740.496094 C 3365.390625 1734.464844 3369.183594 1732.117188 3375.183594 1733.1875 C 3526.363281 1762.460938 3657.128906 1834.628906 3767.339844 1949.445312 C 3771.511719 1951.546875 3773.855469 1952.03125 3774.410156 1950.753906 C 3688.371094 1836.488281 3577.746094 1760.390625 3442.53125 1722.464844 C 3410.117188 1713.292969 3304.179688 1692.121094 3284.042969 1724.566406 C 3282.214844 1727.464844 3283.007812 1728.738281 3286.25 1728.738281 L 3353.976562 1728.738281 C 3356.875 1728.738281 3357.253906 1729.808594 3355.148438 1731.910156 C 3315.527344 1769.011719 3265.316406 1749.945312 3208.832031 1737.117188 C 3177.589844 1730.050781 3140.207031 1732.394531 3096.929688 1744.1875 C 2951.785156 1783.664062 2825.609375 1848.523438 2718.363281 1938.996094 C 2690.359375 1962.789062 2665.53125 1995.476562 2644.222656 2037.058594 C 2629.460938 2067.675781 2617.945312 2099.054688 2609.460938 2131.464844 C 2609.460938 2131.707031 2609.183594 2131.980469 2608.910156 2131.980469 C 2608.253906 2132.257812 2607.875 2132.53125 2607.324219 2132.53125 C 2606.667969 2132.773438 2606.53125 2132.53125 2606.667969 2131.980469 C 2613.183594 2097.46875 2624.703125 2064.78125 2640.910156 2033.402344 C 2735.050781 1853.761719 2939.441406 1768.804688 3125.65625 1725.394531 C 3228.179688 1701.605469 3349.355469 1651.125 3428.117188 1587.578125 C 3492.570312 1535.789062 3547.917969 1447.933594 3534.675781 1361.667969 C 3534.535156 1360.082031 3533.261719 1359.324219 3531.949219 1359.324219 C 3530.914062 1359.324219 3529.847656 1359.839844 3529.46875 1360.875 C 3511.535156 1404.042969 3484.222656 1408.972656 3435.566406 1420.765625 C 3370.324219 1436.453125 3330.839844 1467.3125 3282.214844 1513.34375 C 3281.9375 1513.585938 3281.664062 1513.859375 3281.285156 1513.859375 C 3280.007812 1514.136719 3278.699219 1513.585938 3278.285156 1512.308594 C 3278.144531 1512.035156 3278.144531 1511.515625 3278.285156 1511.242188 C 3281.042969 1492.171875 3324.457031 1452.417969 3339.113281 1439.074219 C 3348.90625 1430.453125 3372.460938 1413.457031 3409.839844 1388.59375 C 3450.53125 1361.425781 3488.8125 1331.359375 3525.054688 1298.394531 C 3556.710938 1269.363281 3566.503906 1238.261719 3581.023438 1199.578125 C 3590.296875 1174.992188 3603.882812 1158.269531 3620.746094 1139.167969 C 3620.886719 1139.167969 3620.886719 1138.894531 3620.886719 1138.617188 C 3620.886719 1138.375 3620.609375 1137.824219 3620.09375 1137.824219 L 3619.816406 1137.824219 C 3588.4375 1157.441406 3554.953125 1172.890625 3519.121094 1184.128906 C 3514.8125 1185.441406 3512.328125 1185.957031 3511.535156 1185.957031 C 3507.363281 1184.921875 3504.363281 1180.992188 3504.363281 1176.785156 C 3504.363281 1174.199219 3505.5 1171.578125 3507.363281 1169.753906 C 3564.367188 1117.445312 3642.023438 1059.65625 3681.542969 1007.351562 C 3728.855469 944.597656 3749.40625 870.605469 3742.992188 786.128906 C 3742.855469 785.335938 3742.339844 784.851562 3741.683594 784.851562 C 3741.132812 784.851562 3740.648438 785.371094 3740.511719 785.886719 C 3729.546875 826.917969 3704.269531 859.363281 3662.816406 871.398438 C 3562.8125 900.707031 3511.535156 954.289062 3465.914062 1053.140625 C 3413.21875 1167.648438 3361.046875 1296.328125 3301.285156 1393.078125 C 3250.800781 1475.207031 3160.96875 1555.753906 3085.929688 1624.230469 C 3084.34375 1625.542969 3083.171875 1625.265625 3082.273438 1623.4375 C 3081.859375 1622.128906 3082 1621.09375 3082.929688 1620.023438 C 3101.242188 1598.300781 3118.105469 1576.890625 3138.898438 1556.203125 C 3326.011719 1368.21875 3464.601562 1097.035156 3498.777344 834.78125 C 3518.261719 684.171875 3466.222656 440.710938 3324.078125 352.339844 C 3323.5625 352.0625 3323.183594 351.820312 3322.628906 351.820312 C 3321.078125 351.820312 3319.90625 353.132812 3319.90625 354.40625 C 3319.90625 354.957031 3320.042969 355.199219 3320.183594 355.71875 C 3343.976562 404.09375 3355.082031 455.089844 3353.667969 508.429688 C 3352.496094 547.667969 3339.390625 593.9375 3329.457031 635.28125 C 3309.871094 716.582031 3331.664062 788.507812 3353.253906 866.675781 C 3353.527344 867.226562 3353.527344 867.707031 3353.527344 868.535156 C 3353.527344 872.433594 3350.253906 875.570312 3346.320312 875.570312 C 3345.289062 875.570312 3344.21875 875.292969 3343.183594 875.050781 C 3341.597656 874.257812 3339.632812 871.914062 3337.425781 867.707031 C 3310.25 817.78125 3296.386719 764.164062 3295.976562 706.894531 C 3295.976562 706.101562 3295.59375 705.859375 3295.078125 706.101562 C 3294.421875 706.101562 3293.90625 706.378906 3293.386719 706.652344 C 3292.972656 706.894531 3292.835938 706.894531 3292.835938 707.445312 C 3293.113281 724.445312 3292.699219 735.925781 3291.386719 741.683594 C 3274.558594 818.574219 3273.113281 896.5 3291.285156 973.390625 C 3304.355469 1028.558594 3321.21875 1076.378906 3314.011719 1133.925781 C 3313.628906 1135.753906 3312.042969 1137.339844 3310.25 1137.339844 C 3308.527344 1137.339844 3306.941406 1136.03125 3306.597656 1134.445312 C 3293.628906 1068.3125 3262.285156 1017.558594 3244.214844 955.082031 C 3243.042969 951.183594 3241.59375 951.183594 3239.902344 954.804688 C 3227.867188 980.976562 3222.109375 1006.871094 3222.625 1032.488281 C 3226.28125 1085.277344 3236.730469 1139.925781 3238.179688 1189.371094 C 3239.488281 1235.675781 3239.488281 1267.296875 3237.765625 1284.8125 C 3228.488281 1393.078125 3163.519531 1496.621094 3089.898438 1578.71875 C 3083.757812 1585.511719 3078 1590.476562 3072.515625 1593.371094 C 3067.929688 1595.992188 3067.414062 1595.199219 3071.066406 1591.542969 C 3156.96875 1502.34375 3222.109375 1399.351562 3233.316406 1275.398438 C 3238.695312 1216.300781 3235.039062 1150.132812 3222.210938 1077.449219 C 3220.109375 1065.414062 3220.800781 1052.105469 3218.695312 1039.039062 C 3204.558594 932.324219 3200.382812 825.125 3205.730469 717.410156 C 3206.523438 702.480469 3208.488281 687.621094 3211.625 672.691406 C 3212.144531 670.347656 3213.453125 669.828125 3215.28125 671.378906 C 3247.457031 696.480469 3288.214844 673.484375 3285.492188 634.519531 C 3283.386719 606.523438 3254.25 593.214844 3230.039062 606.800781 C 3229.523438 607.074219 3229.007812 607.351562 3228.625 607.351562 C 3226.902344 607.351562 3225.730469 606.039062 3225.730469 604.453125 C 3225.730469 603.9375 3225.867188 603.421875 3226.144531 602.902344 L 3270.316406 535.425781 C 3271.628906 533.324219 3271.214844 531.769531 3269.285156 530.460938 C 3214.109375 494.085938 3180.902344 444.710938 3169.898438 382.4375 C 3161.554688 335.890625 3173.96875 280.207031 3184.417969 231.832031 C 3184.96875 229.488281 3183.902344 228.417969 3181.417969 228.96875 C 3143.484375 236.277344 3099.964844 248.3125 3068.066406 252.761719 C 2857.023438 282.308594 2714.226562 155.492188 2594.324219 1.195312 C 2593.804688 0.644531 2593.011719 0.160156 2592.117188 0.160156 C 2591.21875 0.160156 2590.5625 0.679688 2589.910156 1.195312 C 2470.007812 155.492188 2327.34375 282.273438 2116.199219 252.761719 C 2084.265625 248.3125 2040.746094 236.277344 2002.8125 228.96875 C 2000.363281 228.417969 1999.261719 229.488281 1999.8125 231.832031 C 2010.296875 280.207031 2022.675781 335.925781 2014.46875 382.4375 C 2003.367188 444.710938 1970.261719 494.085938 1914.949219 530.460938 C 1912.980469 531.738281 1912.742188 533.324219 1913.914062 535.425781 L 1958.085938 602.902344 C 1958.363281 603.421875 1958.640625 603.9375 1958.640625 604.453125 C 1958.640625 606.039062 1957.328125 607.351562 1955.742188 607.351562 C 1955.226562 607.351562 1954.707031 607.074219 1954.328125 606.800781 C 1930.015625 593.214844 1900.84375 606.523438 1898.773438 634.519531 C 1896.015625 673.484375 1936.8125 696.515625 1968.984375 671.378906 C 1970.949219 669.828125 1972.121094 670.347656 1972.640625 672.691406 C 1975.8125 687.621094 1977.742188 702.480469 1978.535156 717.410156 C 1984.019531 825.125 1979.710938 932.359375 1965.605469 1039.039062 C 1963.5 1052.105469 1964.292969 1065.449219 1962.191406 1077.449219 C 1949.226562 1150.132812 1945.605469 1216.300781 1950.949219 1275.398438 C 1962.191406 1399.351562 2027.433594 1502.34375 2113.199219 1591.542969 C 2116.992188 1595.199219 2116.472656 1595.992188 2111.785156 1593.371094 C 2106.300781 1590.476562 2100.542969 1585.511719 2094.507812 1578.71875 C 2020.746094 1496.621094 1955.777344 1393.042969 1946.5 1284.8125 C 1944.914062 1267.296875 1944.914062 1235.675781 1946.226562 1189.371094 C 1947.535156 1139.925781 1958.019531 1085.277344 1961.640625 1032.488281 C 1962.191406 1006.871094 1956.433594 980.976562 1944.535156 954.804688 C 1942.671875 951.148438 1941.257812 951.148438 1940.191406 955.082031 C 1922.015625 1017.59375 1890.773438 1068.3125 1877.671875 1134.445312 C 1877.289062 1136.03125 1875.703125 1137.339844 1874.015625 1137.339844 C 1872.152344 1137.339844 1870.601562 1135.753906 1870.359375 1133.925781 C 1863.152344 1076.378906 1880.015625 1028.523438 1893.121094 973.390625 C 1911.15625 896.5 1909.707031 818.574219 1892.84375 741.683594 C 1891.671875 735.925781 1891.117188 724.445312 1891.394531 707.445312 C 1891.394531 706.894531 1891.257812 706.894531 1890.878906 706.652344 C 1890.324219 706.378906 1889.84375 706.101562 1889.292969 706.101562 C 1888.636719 705.824219 1888.394531 706.101562 1888.394531 706.894531 C 1887.84375 764.164062 1874.015625 817.78125 1846.808594 867.707031 C 1844.601562 871.914062 1842.773438 874.226562 1841.046875 875.050781 C 1840.011719 875.292969 1838.945312 875.570312 1837.910156 875.570312 C 1834.011719 875.570312 1830.738281 872.433594 1830.738281 868.535156 C 1830.738281 867.742188 1830.839844 867.226562 1830.976562 866.675781 C 1852.703125 788.472656 1874.53125 716.582031 1854.910156 635.28125 C 1844.980469 593.972656 1831.773438 547.667969 1830.597656 508.429688 C 1829.152344 455.089844 1840.253906 404.09375 1864.082031 355.71875 C 1864.324219 355.199219 1864.324219 354.925781 1864.324219 354.40625 C 1864.324219 353.132812 1863.152344 351.820312 1861.601562 351.820312 C 1861.1875 351.820312 1860.703125 352.0625 1860.289062 352.339844 C 1718.042969 440.710938 1665.972656 684.171875 1685.488281 834.78125 C 1719.59375 1097.035156 1858.222656 1368.21875 2045.332031 1556.203125 C 2066.125 1576.890625 2082.988281 1598.300781 2101.4375 1620.023438 C 2102.230469 1621.058594 2102.335938 1622.128906 2101.957031 1623.4375 C 2101.058594 1625.265625 2099.992188 1625.539062 2098.300781 1624.230469 C 2023.226562 1555.753906 1933.535156 1475.207031 1882.945312 1393.078125 C 1823.183594 1296.328125 1771.011719 1167.683594 1718.316406 1053.140625 C 1672.832031 954.320312 1621.417969 900.707031 1521.414062 871.398438 C 1479.960938 859.363281 1454.71875 826.953125 1443.859375 785.886719 C 1443.617188 785.335938 1443.066406 784.851562 1442.546875 784.851562 C 1441.890625 784.851562 1441.410156 785.371094 1441.273438 786.128906 C 1434.996094 870.605469 1455.375 944.597656 1502.824219 1007.351562 C 1542.207031 1059.65625 1619.867188 1117.410156 1676.867188 1169.75 C 1678.730469 1171.578125 1679.902344 1174.199219 1679.902344 1176.785156 C 1679.902344 1180.992188 1677.007812 1184.886719 1672.832031 1185.957031 C 1671.9375 1185.957031 1669.417969 1185.441406 1665.109375 1184.128906 C 1629.28125 1172.890625 1595.796875 1157.476562 1564.554688 1137.824219 L 1564.140625 1137.824219 C 1563.757812 1137.824219 1563.347656 1138.375 1563.347656 1138.617188 C 1563.347656 1138.890625 1563.347656 1139.167969 1563.484375 1139.167969 C 1580.347656 1158.269531 1593.96875 1174.992188 1603.210938 1199.578125 C 1617.726562 1238.261719 1627.695312 1269.398438 1659.316406 1298.394531 C 1695.421875 1331.359375 1733.835938 1361.425781 1774.390625 1388.59375 C 1811.804688 1413.457031 1835.324219 1430.453125 1845.152344 1439.074219 C 1859.808594 1452.417969 1903.222656 1492.171875 1906.085938 1511.242188 C 1906.085938 1511.515625 1906.085938 1512.035156 1905.949219 1512.308594 C 1905.535156 1513.585938 1904.257812 1514.136719 1902.945312 1513.859375 C 1902.535156 1513.859375 1902.292969 1513.585938 1901.914062 1513.34375 C 1853.394531 1467.3125 1813.910156 1436.453125 1748.664062 1420.765625 C 1700.179688 1408.972656 1672.695312 1404.042969 1654.765625 1360.875 C 1654.382812 1359.839844 1653.351562 1359.320312 1652.28125 1359.320312 C 1651.003906 1359.320312 1649.832031 1360.117188 1649.554688 1361.667969 C 1636.347656 1447.933594 1691.800781 1535.789062 1756.113281 1587.578125 C 1834.980469 1651.125 1956.054688 1701.605469 2058.679688 1725.394531 C 2244.859375 1768.804688 2449.246094 1853.761719 2543.285156 2033.402344 C 2559.632812 2064.78125 2571.011719 2097.464844 2577.667969 2131.980469 C 2577.667969 2132.53125 2577.527344 2132.773438 2576.875 2132.53125 C 2576.460938 2132.53125 2575.839844 2132.257812 2575.425781 2131.980469 C 2574.90625 2131.980469 2574.769531 2131.707031 2574.769531 2131.464844 C 2566.253906 2099.050781 2554.769531 2067.640625 2539.976562 2037.058594 C 2518.664062 1995.476562 2493.9375 1962.824219 2465.835938 1938.996094 C 2358.621094 1848.523438 2232.546875 1783.664062 2087.300781 1744.1875 C 2043.988281 1732.394531 2006.746094 1730.050781 1975.363281 1737.117188 C 1918.980469 1749.945312 1868.667969 1769.011719 1829.046875 1731.910156 C 1826.945312 1729.808594 1827.359375 1728.738281 1830.359375 1728.738281 L 1897.945312 1728.738281 C 1901.222656 1728.738281 1901.878906 1727.464844 1900.292969 1724.566406 C 1880.015625 1692.15625 1774.113281 1713.328125 1741.664062 1722.464844 C 1606.484375 1760.390625 1495.859375 1836.488281 1409.820312 1950.753906 C 1410.476562 1952.03125 1412.820312 1951.546875 1416.855469 1949.445312 C 1527.101562 1834.660156 1657.832031 1762.460938 1809.148438 1733.1875 C 1815.046875 1732.117188 1818.945312 1734.464844 1820.769531 1740.496094 C 1821.324219 1742.324219 1822.21875 1743.632812 1823.253906 1744.945312 C 1871.773438 1798.007812 1929.84375 1833.835938 1997.296875 1852.9375 C 2058.367188 1869.933594 2111.335938 1835.421875 2171.339844 1831.765625 C 2203.753906 1829.9375 2235.6875 1834.386719 2266.929688 1845.351562 C 2268.101562 1845.867188 2268.757812 1846.382812 2269.03125 1847.175781 C 2269.410156 1848.765625 2268.757812 1849.28125 2267.308594 1849.039062 C 2178.269531 1833.628906 2078.886719 1866.832031 2059.78125 1965.652344 C 2059.125 1968.546875 2060.4375 1969.824219 2063.332031 1969.304688 C 2069.851562 1967.996094 2075.367188 1965.132812 2080.058594 1960.925781 C 2081.507812 1959.375 2083.472656 1958.582031 2085.542969 1958.339844 C 2130.679688 1951.824219 2176.820312 1956.480469 2219.582031 1950.238281 C 2252.273438 1945.273438 2368.140625 1920.929688 2390.867188 1942.652344 C 2391.277344 1942.929688 2391.660156 1943.445312 2391.933594 1943.960938 C 2393.105469 1946.546875 2392.039062 1949.445312 2389.589844 1950.480469 C 2389.039062 1950.753906 2388.554688 1950.996094 2387.867188 1950.996094 C 2345.621094 1952.859375 2297.515625 1954.132812 2258.824219 1972.996094 C 2256.617188 1974.027344 2256.480469 1975.339844 2258.824219 1976.648438 C 2297.378906 1998.097656 2337.378906 2016.40625 2378.863281 2031.300781 C 2440.316406 2053.296875 2477.59375 2078.640625 2511.972656 2131.980469 C 2512.527344 2133.015625 2512.765625 2134.085938 2512.765625 2135.117188 C 2512.765625 2138.257812 2510.179688 2140.878906 2507.007812 2140.878906 C 2505.59375 2140.878906 2504.421875 2140.359375 2503.351562 2139.566406 C 2473.144531 2114.222656 2439.9375 2085.191406 2406.453125 2068.433594 C 2325.621094 2028.164062 2230.582031 2030.507812 2142.578125 2042.539062 C 2073.679688 2052.230469 2009.332031 2049.332031 1949.984375 2009.335938 C 1913.363281 1984.476562 1885.117188 1957.304688 1865.636719 1927.480469 C 1854.910156 1911.277344 1851.394531 1912.828125 1855.1875 1931.929688 C 1875.84375 2033.367188 1977.984375 2115.777344 2069.367188 2151.046875 C 2071.472656 2151.839844 2073.542969 2151.839844 2075.644531 2151.324219 C 2100.09375 2142.429688 2125.199219 2129.085938 2148.199219 2123.328125 C 2337.378906 2076.777344 2501.113281 2160.1875 2591.839844 2327.550781 Z M 2592.117188 1920.449219 C 2593.703125 1920.449219 2595.253906 1919.894531 2596.703125 1918.859375 C 2687.464844 1863.175781 2781.46875 1811.386719 2869.851562 1751.011719 C 2870.128906 1750.738281 2870.507812 1750.738281 2870.886719 1750.738281 C 2871.679688 1750.738281 2872.335938 1751.53125 2872.195312 1752.289062 C 2872.195312 1752.839844 2872.058594 1753.082031 2871.679688 1753.324219 C 2869.335938 1755.945312 2866.195312 1758.289062 2861.988281 1761.183594 C 2747.46875 1834.144531 2648.703125 1932.722656 2592.117188 2057.953125 C 2535.628906 1932.722656 2436.902344 1834.144531 2322.242188 1761.183594 C 2318.207031 1758.324219 2314.929688 1755.976562 2312.585938 1753.324219 C 2312.308594 1753.082031 2312.171875 1752.804688 2312.035156 1752.289062 C 2312.035156 1751.496094 2312.585938 1750.738281 2313.480469 1750.738281 C 2313.757812 1750.738281 2314.136719 1750.738281 2314.378906 1751.011719 C 2402.761719 1811.386719 2496.800781 1863.175781 2587.527344 1918.859375 C 2589.113281 1919.894531 2590.5625 1920.449219 2592.117188 1920.449219 Z M 2592.117188 436.78125 L 2591.976562 436.78125 C 2567.527344 436.78125 2547.664062 456.640625 2547.664062 481.222656 C 2547.664062 505.808594 2567.527344 525.667969 2591.976562 525.667969 L 2592.390625 525.667969 C 2616.839844 525.667969 2636.703125 505.808594 2636.703125 481.222656 C 2636.703125 456.640625 2616.839844 436.78125 2592.390625 436.78125 Z M 2592.117188 436.78125 " fill-opacity="1" fill-rule="evenodd"/></g></svg>