<svg xmlns="http://www.w3.org/2000/svg" xmlns:xlink="http://www.w3.org/1999/xlink" width="6912" zoomAndPan="magnify" viewBox="0 0 5184 2592.000001" height="3456" preserveAspectRatio="xMidYMid meet" version="1.0"><defs><clipPath id="99c533ab50"><path d="M 1308.453125 36.308594 L 2577 36.308594 L 2577 2554.453125 L 1308.453125 2554.453125 Z M 1308.453125 36.308594 " clip-rule="nonzero"/></clipPath><clipPath id="4f6c07ce22"><path d="M 2606.128906 36.308594 L 3875.40625 36.308594 L 3875.40625 2554.453125 L 2606.128906 2554.453125 Z M 2606.128906 36.308594 " clip-rule="nonzero"/></clipPath></defs><g clip-path="url(#99c533ab50)"><path fill="#fba319" d="M 1812.28125 1261.445312 C 1364.585938 1093.570312 1473.722656 36.328125 1473.722656 36.328125 C 930.90625 1401.71875 1899.023438 2554.453125 1899.023438 2554.453125 C 2625.625 1761.355469 2576.160156 595.902344 2576.160156 595.902344 C 2576.160156 595.902344 2259.976562 1429.320312 1812.28125 1261.445312 " fill-opacity="1" fill-rule="nonzero"/></g><path fill="#fba319" d="M 1961.523438 686.910156 C 1844.066406 686.910156 1748.855469 782.117188 1748.855469 899.550781 C 1748.855469 1017.003906 1844.066406 1112.210938 1961.523438 1112.210938 C 2078.964844 1112.210938 2174.175781 1017.003906 2174.175781 899.550781 C 2174.175781 782.117188 2078.964844 686.910156 1961.523438 686.910156 " fill-opacity="1" fill-rule="nonzero"/><path fill="#fba319" d="M 1632.890625 693.421875 C 1627.304688 695.964844 1623.410156 701.546875 1623.410156 708.074219 C 1623.410156 714.601562 1627.304688 720.1875 1632.890625 722.75 L 1632.890625 725.058594 L 1603.914062 832.535156 L 1675.203125 832.535156 L 1646.246094 725.058594 L 1646.246094 722.75 C 1651.8125 720.1875 1655.710938 714.601562 1655.710938 708.074219 C 1655.710938 701.546875 1651.8125 695.964844 1646.246094 693.421875 L 1646.246094 573.832031 L 1752.199219 533.726562 L 1674.347656 584.929688 L 1736.457031 609.4375 L 1736.457031 763.566406 C 1782.613281 687.480469 1866.226562 636.542969 1961.523438 636.542969 C 2055.222656 636.542969 2137.589844 685.824219 2184.1875 759.8125 L 2184.1875 609.4375 L 2335.65625 549.644531 L 1960.316406 407.09375 L 1584.992188 549.644531 L 1632.890625 568.550781 L 1632.890625 693.421875 " fill-opacity="1" fill-rule="nonzero"/><g clip-path="url(#4f6c07ce22)"><path fill="#be1e2d" d="M 3371.558594 1261.445312 C 3819.253906 1093.570312 3710.117188 36.328125 3710.117188 36.328125 C 4252.933594 1401.71875 3284.816406 2554.453125 3284.816406 2554.453125 C 2558.214844 1761.355469 2607.679688 595.902344 2607.679688 595.902344 C 2607.679688 595.902344 2923.863281 1429.320312 3371.558594 1261.445312 " fill-opacity="1" fill-rule="nonzero"/></g><path fill="#be1e2d" d="M 3222.3125 686.910156 C 3339.773438 686.910156 3434.984375 782.117188 3434.984375 899.550781 C 3434.984375 1017.003906 3339.773438 1112.210938 3222.3125 1112.210938 C 3104.871094 1112.210938 3009.644531 1017.003906 3009.644531 899.550781 C 3009.644531 782.117188 3104.871094 686.910156 3222.3125 686.910156 " fill-opacity="1" fill-rule="nonzero"/><path fill="#be1e2d" d="M 3550.949219 693.421875 C 3556.535156 695.964844 3560.429688 701.546875 3560.429688 708.074219 C 3560.429688 714.601562 3556.535156 720.1875 3550.949219 722.75 L 3550.949219 725.058594 L 3579.90625 832.535156 L 3508.636719 832.535156 L 3537.589844 725.058594 L 3537.589844 722.75 C 3532.023438 720.1875 3528.128906 714.601562 3528.128906 708.074219 C 3528.128906 701.546875 3532.023438 695.964844 3537.589844 693.421875 L 3537.589844 573.832031 L 3431.640625 533.726562 L 3509.472656 584.929688 L 3447.378906 609.4375 L 3447.378906 763.566406 C 3401.226562 687.480469 3317.613281 636.542969 3222.3125 636.542969 C 3128.617188 636.542969 3046.25 685.824219 2999.648438 759.8125 L 2999.648438 609.4375 L 2848.183594 549.644531 L 3223.523438 407.09375 L 3598.847656 549.644531 L 3550.949219 568.550781 L 3550.949219 693.421875 " fill-opacity="1" fill-rule="nonzero"/></svg>