<svg xmlns="http://www.w3.org/2000/svg" xmlns:xlink="http://www.w3.org/1999/xlink" width="6912" zoomAndPan="magnify" viewBox="0 0 5184 2592.000001" height="3456" preserveAspectRatio="xMidYMid meet" version="1.0"><defs><clipPath id="a7b20d8b5f"><path d="M 3343 2013 L 3985.230469 2013 L 3985.230469 2590 L 3343 2590 Z M 3343 2013 " clip-rule="nonzero"/></clipPath><clipPath id="0da05b6ff2"><path d="M 1198.554688 2013 L 1841 2013 L 1841 2590 L 1198.554688 2590 Z M 1198.554688 2013 " clip-rule="nonzero"/></clipPath></defs><path fill="#8b1732" d="M 3966.074219 2127.070312 C 3781.839844 2084.863281 3596.488281 2051.257812 3410.011719 2026.261719 L 3355.460938 2480.84375 C 3529.363281 2504.191406 3702.320312 2535.550781 3874.332031 2574.917969 C 3857.519531 2492.890625 3839.4375 2410.890625 3820.078125 2328.917969 C 3867.621094 2261.109375 3916.285156 2193.828125 3966.074219 2127.070312 Z M 3966.074219 2127.070312 " fill-opacity="1" fill-rule="nonzero"/><g clip-path="url(#a7b20d8b5f)"><path fill="#ffffff" d="M 3888.847656 2589.734375 L 3871.863281 2585.84375 C 3701.324219 2546.777344 3527.121094 2515.195312 3354.039062 2491.992188 L 3343.039062 2490.496094 L 3400.207031 2013.613281 L 3411.507812 2015.109375 C 3597.683594 2040.105469 3785.132812 2074.085938 3968.542969 2116.070312 L 3985.304688 2119.960938 L 3974.753906 2133.730469 C 3926.339844 2198.695312 3878.296875 2265.152344 3831.828125 2331.238281 C 3850.683594 2411.390625 3868.570312 2492.519531 3885.03125 2572.671875 Z M 3367.957031 2471.1875 C 3532.582031 2493.640625 3697.730469 2523.578125 3859.8125 2560.097656 C 3844.023438 2484.136719 3826.964844 2407.347656 3809.15625 2331.535156 L 3807.957031 2326.597656 L 3810.875 2322.480469 C 3855.023438 2259.464844 3900.671875 2196.222656 3946.765625 2134.179688 C 3773.011719 2094.890625 3595.964844 2062.859375 3419.8125 2038.910156 Z M 3367.957031 2471.1875 " fill-opacity="1" fill-rule="nonzero"/></g><path fill="#8b1732" d="M 3612.050781 2396.570312 C 3574.289062 2406.898438 3535.300781 2418.476562 3495.09375 2431.296875 C 3445.929688 2447.089844 3399.308594 2463.628906 3355.234375 2480.542969 C 3360.722656 2434.890625 3366.210938 2389.261719 3371.699219 2343.660156 C 3392.269531 2344.863281 3412.757812 2346.878906 3433.167969 2349.707031 C 3453.578125 2352.53125 3473.847656 2356.160156 3493.972656 2360.589844 C 3514.09375 2365.019531 3534.011719 2370.238281 3553.722656 2376.246094 C 3573.433594 2382.253906 3592.875 2389.027344 3612.050781 2396.570312 Z M 3612.050781 2396.570312 " fill-opacity="1" fill-rule="nonzero"/><path fill="#ffffff" d="M 3341.914062 2497.683594 L 3361.746094 2331.835938 L 3372.296875 2332.433594 C 3393.167969 2333.65625 3413.960938 2335.703125 3434.667969 2338.574219 C 3455.378906 2341.445312 3475.945312 2345.128906 3496.363281 2349.628906 C 3516.78125 2354.128906 3536.988281 2359.425781 3556.988281 2365.527344 C 3576.988281 2371.625 3596.714844 2378.507812 3616.167969 2386.167969 L 3647.671875 2398.519531 L 3615.042969 2407.425781 C 3576.132812 2418.050781 3536.996094 2429.875 3498.535156 2442 C 3451.839844 2456.96875 3404.996094 2473.507812 3359.277344 2491.019531 Z M 3381.574219 2355.484375 L 3368.628906 2463.480469 C 3409.1875 2448.511719 3450.492188 2433.542969 3491.648438 2420.597656 C 3519.335938 2411.691406 3547.472656 2403.15625 3575.535156 2395.148438 C 3551.4375 2386.917969 3526.894531 2379.808594 3502.125 2373.96875 C 3462.429688 2364.640625 3422.246094 2358.503906 3381.574219 2355.558594 Z M 3381.574219 2355.484375 " fill-opacity="1" fill-rule="nonzero"/><path fill="#8b1732" d="M 1217.859375 2127.070312 C 1402.09375 2084.863281 1587.421875 2051.257812 1773.847656 2026.261719 L 1828.398438 2480.84375 C 1654.546875 2504.191406 1481.585938 2535.550781 1309.527344 2574.917969 C 1326.441406 2492.890625 1344.546875 2410.917969 1363.855469 2328.992188 C 1316.261719 2261.085938 1267.597656 2193.777344 1217.859375 2127.070312 Z M 1217.859375 2127.070312 " fill-opacity="1" fill-rule="nonzero"/><g clip-path="url(#0da05b6ff2)"><path fill="#ffffff" d="M 1295.011719 2589.8125 L 1298.527344 2572.671875 C 1315.066406 2492.59375 1332.949219 2411.390625 1351.730469 2331.3125 C 1305.335938 2265.152344 1257.296875 2198.695312 1208.882812 2133.808594 L 1198.554688 2119.960938 L 1215.316406 2116.144531 C 1398.726562 2074.160156 1586.175781 2040.105469 1772.351562 2015.183594 L 1783.652344 2013.613281 L 1840.820312 2490.496094 L 1829.898438 2491.996094 C 1656.738281 2515.269531 1482.535156 2546.851562 1311.996094 2585.917969 Z M 1237.167969 2134.179688 C 1283.1875 2196.222656 1328.835938 2259.539062 1372.984375 2322.554688 L 1375.902344 2326.671875 L 1374.707031 2331.535156 C 1356.894531 2407.347656 1339.835938 2484.136719 1324.046875 2560.097656 C 1486.203125 2523.5 1651.5 2493.640625 1815.902344 2471.261719 L 1764.046875 2038.910156 C 1587.671875 2062.933594 1410.847656 2095.339844 1237.167969 2134.179688 Z M 1237.167969 2134.179688 " fill-opacity="1" fill-rule="nonzero"/></g><path fill="#8b1732" d="M 1571.507812 2397.394531 C 1608.921875 2407.273438 1648.359375 2418.5 1688.765625 2431.371094 C 1738.304688 2447.015625 1784.925781 2463.628906 1828.625 2480.542969 L 1812.164062 2343.660156 C 1791.539062 2344.828125 1770.996094 2346.835938 1750.535156 2349.679688 C 1730.074219 2352.527344 1709.765625 2356.199219 1689.605469 2360.699219 C 1669.445312 2365.199219 1649.5 2370.511719 1629.769531 2376.636719 C 1610.042969 2382.765625 1590.597656 2389.683594 1571.433594 2397.394531 Z M 1571.507812 2397.394531 " fill-opacity="1" fill-rule="nonzero"/><path fill="#ffffff" d="M 1842.09375 2497.832031 L 1824.660156 2491.019531 C 1778.9375 2473.359375 1732.167969 2456.820312 1685.476562 2442.074219 C 1647.011719 2429.875 1607.800781 2418.5 1568.738281 2408.246094 L 1535.964844 2399.714844 L 1567.394531 2386.992188 C 1586.832031 2379.160156 1606.5625 2372.132812 1626.574219 2365.914062 C 1646.589844 2359.691406 1666.828125 2354.300781 1687.28125 2349.738281 C 1707.738281 2345.175781 1728.347656 2341.457031 1749.109375 2338.578125 C 1769.867188 2335.703125 1790.710938 2333.679688 1811.636719 2332.507812 L 1822.191406 2331.910156 Z M 1608.101562 2395.675781 C 1636.3125 2403.15625 1664.449219 2411.839844 1692.210938 2420.671875 C 1733.367188 2433.691406 1774.523438 2448.0625 1815.304688 2463.40625 L 1802.359375 2355.558594 C 1761.667969 2358.410156 1721.484375 2364.570312 1681.808594 2374.046875 C 1656.859375 2379.957031 1632.289062 2387.167969 1608.101562 2395.675781 Z M 1608.101562 2395.675781 " fill-opacity="1" fill-rule="nonzero"/><path fill="#8b1732" d="M 2591.96875 2527.617188 C 1897.167969 2527.617188 1331.976562 1962.347656 1331.976562 1267.453125 C 1331.976562 572.558594 1897.167969 7.289062 2591.96875 7.289062 C 3286.765625 7.289062 3851.957031 572.632812 3851.957031 1267.453125 C 3851.957031 1962.273438 3286.691406 2527.617188 2591.96875 2527.617188 Z M 2591.96875 142 C 1971.476562 142 1466.671875 646.875 1466.671875 1267.453125 C 1466.671875 1888.03125 1971.476562 2392.90625 2591.96875 2392.90625 C 3212.457031 2392.90625 3717.261719 1888.03125 3717.261719 1267.453125 C 3717.261719 646.875 3212.457031 142 2591.96875 142 Z M 2591.96875 142 " fill-opacity="1" fill-rule="nonzero"/><path fill="#8b1732" d="M 1467.945312 1900.753906 C 1560.605469 1883.949219 1653.597656 1869.226562 1746.917969 1856.59375 C 1840.242188 1843.957031 1933.800781 1833.421875 2027.59375 1824.984375 C 2121.386719 1816.550781 2215.324219 1810.21875 2309.402344 1805.996094 C 2403.480469 1801.773438 2497.605469 1799.664062 2591.78125 1799.664062 C 2685.953125 1799.664062 2780.078125 1801.773438 2874.15625 1805.996094 C 2968.234375 1810.21875 3062.171875 1816.550781 3155.964844 1824.984375 C 3249.761719 1833.421875 3343.320312 1843.957031 3436.640625 1856.59375 C 3529.964844 1869.226562 3622.953125 1883.949219 3715.617188 1900.753906 C 3689.425781 2062.308594 3663.261719 2223.839844 3637.121094 2385.347656 C 3550.925781 2369.714844 3464.425781 2356.023438 3377.621094 2344.273438 C 3290.8125 2332.523438 3203.789062 2322.722656 3116.539062 2314.875 C 3029.292969 2307.027344 2941.917969 2301.140625 2854.40625 2297.214844 C 2766.894531 2293.285156 2679.339844 2291.324219 2591.742188 2291.324219 C 2504.144531 2291.324219 2416.589844 2293.285156 2329.078125 2297.214844 C 2241.570312 2301.140625 2154.191406 2307.027344 2066.945312 2314.875 C 1979.699219 2322.722656 1892.671875 2332.523438 1805.863281 2344.273438 C 1719.058594 2356.023438 1632.558594 2369.714844 1546.367188 2385.347656 C 1520.425781 2223.839844 1494.285156 2062.308594 1467.945312 1900.753906 Z M 1467.945312 1900.753906 " fill-opacity="1" fill-rule="nonzero"/><path fill="#ffffff" d="M 3646.625 2398.441406 L 3635.324219 2396.421875 C 3549.304688 2380.773438 3462.972656 2367.066406 3376.335938 2355.304688 C 3289.699219 2343.539062 3202.84375 2333.730469 3115.761719 2325.871094 C 3028.683594 2318.015625 2941.472656 2312.121094 2854.128906 2308.191406 C 2766.785156 2304.257812 2679.398438 2302.292969 2591.96875 2302.292969 C 2504.535156 2302.292969 2417.148438 2304.257812 2329.804688 2308.191406 C 2242.460938 2312.121094 2155.25 2318.015625 2068.171875 2325.871094 C 1981.09375 2333.730469 1894.234375 2343.539062 1807.597656 2355.304688 C 1720.960938 2367.066406 1634.632812 2380.773438 1548.609375 2396.421875 L 1537.386719 2398.441406 L 1455.074219 1891.699219 L 1465.921875 1889.753906 C 1558.746094 1872.863281 1651.898438 1858.070312 1745.386719 1845.371094 C 1838.875 1832.675781 1932.601562 1822.085938 2026.566406 1813.605469 C 2120.527344 1805.128906 2214.636719 1798.765625 2308.886719 1794.523438 C 2403.136719 1790.277344 2497.433594 1788.15625 2591.78125 1788.15625 C 2686.125 1788.15625 2780.425781 1790.277344 2874.675781 1794.523438 C 2968.925781 1798.765625 3063.03125 1805.128906 3156.996094 1813.605469 C 3250.960938 1822.085938 3344.683594 1832.675781 3438.171875 1845.371094 C 3531.660156 1858.070312 3624.816406 1872.863281 3717.636719 1889.753906 L 3728.414062 1891.699219 Z M 1480.964844 1909.882812 L 1555.792969 2372.324219 C 1641.238281 2356.953125 1726.976562 2343.492188 1813.019531 2331.9375 C 1899.058594 2320.382812 1985.316406 2310.75 2071.785156 2303.035156 C 2158.253906 2295.320312 2244.855469 2289.53125 2331.582031 2285.667969 C 2418.308594 2281.808594 2505.078125 2279.878906 2591.890625 2279.878906 C 2678.707031 2279.878906 2765.476562 2281.808594 2852.203125 2285.667969 C 2938.929688 2289.53125 3025.527344 2295.320312 3112 2303.035156 C 3198.46875 2310.75 3284.722656 2320.382812 3370.765625 2331.9375 C 3456.804688 2343.492188 3542.546875 2356.953125 3627.992188 2372.324219 L 3702.820312 1909.882812 C 3611.210938 1893.386719 3519.277344 1878.9375 3427.023438 1866.539062 C 3334.765625 1854.136719 3242.28125 1843.796875 3149.566406 1835.515625 C 3056.851562 1827.234375 2964 1821.019531 2871.007812 1816.875 C 2778.015625 1812.730469 2684.976562 1810.660156 2591.890625 1810.660156 C 2498.808594 1810.660156 2405.769531 1812.730469 2312.777344 1816.875 C 2219.785156 1821.019531 2126.933594 1827.234375 2034.21875 1835.515625 C 1941.503906 1843.796875 1849.015625 1854.136719 1756.761719 1866.539062 C 1664.507812 1878.9375 1572.574219 1893.386719 1480.964844 1909.882812 Z M 1480.964844 1909.882812 " fill-opacity="1" fill-rule="nonzero"/><path fill="#8b1732" d="M 2849.90625 395.636719 C 2874.449219 443.90625 2926.382812 476.015625 2926.457031 477.136719 C 2926.53125 478.257812 2958.785156 421.082031 2937.90625 363.601562 C 2916.878906 304.480469 2843.320312 283.75 2843.472656 285.246094 C 2842.796875 285.542969 2825.210938 346.316406 2849.90625 395.636719 Z M 2849.90625 395.636719 " fill-opacity="1" fill-rule="nonzero"/><path fill="#8b1732" d="M 2817.054688 500.335938 C 2864.722656 474.816406 2925.710938 477.882812 2926.457031 477.136719 C 2925.933594 476.6875 2920.921875 541.722656 2871.007812 576.972656 C 2819.972656 613.496094 2747.539062 588.425781 2748.738281 587.300781 C 2748.363281 586.703125 2768.640625 526.753906 2817.054688 500.335938 Z M 2817.054688 500.335938 " fill-opacity="1" fill-rule="nonzero"/><path fill="#8b1732" d="M 3016.925781 447.050781 C 3032.34375 498.914062 3077.765625 539.851562 3077.539062 540.976562 C 3077.316406 542.097656 3119.445312 491.65625 3109.269531 431.332031 C 3099.242188 369.367188 3030.621094 335.835938 3030.472656 337.335938 C 3029.796875 337.484375 3001.960938 394.136719 3016.925781 447.050781 Z M 3016.925781 447.050781 " fill-opacity="1" fill-rule="nonzero"/><path fill="#8b1732" d="M 2965.894531 544.195312 C 3017.375 527.578125 3076.792969 541.796875 3077.613281 540.976562 C 3077.242188 540.453125 3060.628906 603.46875 3005.179688 629.210938 C 2948.457031 656.003906 2881.933594 618.359375 2883.054688 617.460938 C 2882.832031 616.789062 2913.511719 561.109375 2965.894531 544.195312 Z M 2965.894531 544.195312 " fill-opacity="1" fill-rule="nonzero"/><path fill="#8b1732" d="M 3158.207031 549.804688 C 3164.117188 603.542969 3201.382812 651.964844 3201.011719 653.085938 C 3200.335938 653.085938 3251.070312 612 3251.894531 550.855469 C 3253.089844 488.136719 3191.582031 442.785156 3191.132812 444.207031 C 3190.457031 444.28125 3152.519531 494.949219 3158.207031 549.804688 Z M 3158.207031 549.804688 " fill-opacity="1" fill-rule="nonzero"/><path fill="#8b1732" d="M 3090.484375 635.949219 C 3144.140625 628.914062 3200.035156 653.535156 3201.011719 652.9375 C 3201.011719 652.261719 3173.097656 711.3125 3113.90625 726.730469 C 3053.296875 742.820312 2994.179688 693.875 2995.898438 693.199219 C 2995.75 692.601562 3035.859375 643.433594 3090.484375 635.949219 Z M 3090.484375 635.949219 " fill-opacity="1" fill-rule="nonzero"/><path fill="#8b1732" d="M 3299.261719 667.753906 C 3286.089844 720.144531 3304.125 778.59375 3303.378906 779.492188 C 3302.777344 779.492188 3364.664062 758.460938 3386.664062 701.433594 C 3409.636719 642.984375 3367.730469 579.070312 3366.90625 580.339844 C 3366.160156 580.117188 3313.03125 614.394531 3299.261719 667.753906 Z M 3299.261719 667.753906 " fill-opacity="1" fill-rule="nonzero"/><path fill="#8b1732" d="M 3205.722656 725.15625 C 3258.105469 737.207031 3302.253906 779.792969 3303.003906 779.492188 C 3303.75 779.191406 3256.535156 824.398438 3195.695312 818.410156 C 3133.214844 812.347656 3095.199219 746.039062 3096.695312 745.8125 C 3097.21875 745.140625 3151.621094 713.257812 3205.722656 725.15625 Z M 3205.722656 725.15625 " fill-opacity="1" fill-rule="nonzero"/><path fill="#8b1732" d="M 3385.539062 808.53125 C 3372.371094 860.917969 3390.480469 919.371094 3389.730469 920.265625 C 3389.132812 920.265625 3451.015625 899.238281 3473.015625 842.207031 C 3495.992188 783.757812 3454.085938 719.84375 3453.261719 721.117188 C 3452.515625 720.890625 3399.382812 755.167969 3385.539062 808.53125 Z M 3385.539062 808.53125 " fill-opacity="1" fill-rule="nonzero"/><path fill="#8b1732" d="M 3292.078125 865.933594 C 3344.460938 877.980469 3388.609375 920.566406 3389.730469 920.265625 C 3390.855469 919.96875 3343.261719 965.171875 3282.425781 959.109375 C 3219.941406 953.121094 3181.929688 886.8125 3183.425781 886.589844 C 3183.574219 885.914062 3238.199219 854.035156 3292.078125 865.933594 Z M 3292.078125 865.933594 " fill-opacity="1" fill-rule="nonzero"/><path fill="#8b1732" d="M 3468.003906 972.207031 C 3436.949219 1016.511719 3432.984375 1077.507812 3431.933594 1078.03125 C 3430.886719 1078.554688 3496.664062 1080.277344 3537.671875 1034.921875 C 3579.949219 988.597656 3563.710938 913.90625 3562.4375 914.730469 C 3561.839844 914.28125 3499.957031 927.300781 3468.003906 972.207031 Z M 3468.003906 972.207031 " fill-opacity="1" fill-rule="nonzero"/><path fill="#8b1732" d="M 3360.171875 992.339844 C 3405.070312 1022.273438 3430.8125 1077.882812 3431.933594 1078.03125 C 3433.058594 1078.179688 3372.445312 1103.476562 3317.820312 1075.9375 C 3261.621094 1048.019531 3249.875 972.507812 3251.296875 972.804688 C 3252.71875 973.105469 3314.152344 961.953125 3360.171875 992.339844 Z M 3360.171875 992.339844 " fill-opacity="1" fill-rule="nonzero"/><path fill="#8b1732" d="M 3498.308594 1134.535156 C 3467.253906 1178.839844 3463.289062 1239.835938 3462.242188 1240.359375 C 3461.195312 1240.882812 3526.96875 1242.605469 3567.976562 1197.253906 C 3610.253906 1150.925781 3594.019531 1076.234375 3592.746094 1077.058594 C 3592.222656 1076.609375 3530.261719 1089.632812 3498.308594 1134.535156 Z M 3498.308594 1134.535156 " fill-opacity="1" fill-rule="nonzero"/><path fill="#8b1732" d="M 3390.480469 1154.667969 C 3435.378906 1184.605469 3461.121094 1240.210938 3462.242188 1240.359375 C 3463.363281 1240.511719 3402.75 1265.804688 3348.125 1238.265625 C 3291.929688 1210.347656 3280.179688 1134.835938 3281.601562 1135.132812 C 3283.023438 1135.433594 3344.460938 1124.359375 3390.480469 1154.667969 Z M 3390.480469 1154.667969 " fill-opacity="1" fill-rule="nonzero"/><path fill="#8b1732" d="M 3511.179688 1316.996094 C 3466.28125 1346.933594 3440.539062 1402.539062 3439.417969 1402.765625 C 3438.296875 1402.988281 3499.28125 1428.210938 3553.535156 1400.667969 C 3609.730469 1372.679688 3621.480469 1297.164062 3619.984375 1297.539062 C 3619.683594 1296.863281 3557.203125 1287.0625 3511.179688 1316.996094 Z M 3511.179688 1316.996094 " fill-opacity="1" fill-rule="nonzero"/><path fill="#8b1732" d="M 3403.351562 1296.863281 C 3434.40625 1341.171875 3438.371094 1402.164062 3439.417969 1402.765625 C 3439.867188 1402.242188 3374.691406 1404.933594 3333.683594 1359.582031 C 3291.40625 1313.253906 3307.644531 1238.5625 3308.914062 1239.386719 C 3309.4375 1238.9375 3371.398438 1251.960938 3403.351562 1296.863281 Z M 3403.351562 1296.863281 " fill-opacity="1" fill-rule="nonzero"/><path fill="#8b1732" d="M 3480.875 1479.402344 C 3435.976562 1509.335938 3410.234375 1564.945312 3409.039062 1565.09375 C 3407.839844 1565.242188 3468.902344 1590.539062 3523.226562 1562.996094 C 3579.425781 1535.082031 3591.175781 1459.492188 3589.675781 1459.867188 C 3588.179688 1460.242188 3526.894531 1449.015625 3480.875 1479.402344 Z M 3480.875 1479.402344 " fill-opacity="1" fill-rule="nonzero"/><path fill="#8b1732" d="M 3373.042969 1459.195312 C 3404.097656 1503.5 3408.066406 1564.496094 3409.039062 1565.09375 C 3409.5625 1564.570312 3344.382812 1567.339844 3303.378906 1521.910156 C 3261.097656 1475.585938 3277.335938 1400.894531 3278.609375 1401.714844 C 3278.832031 1401.265625 3341.09375 1414.289062 3373.042969 1459.195312 Z M 3373.042969 1459.195312 " fill-opacity="1" fill-rule="nonzero"/><path fill="#8b1732" d="M 3422.28125 1652.207031 C 3369.527344 1664.257812 3325.75 1706.839844 3324.554688 1706.542969 C 3324.554688 1705.867188 3371.097656 1751.445312 3431.9375 1745.460938 C 3494.417969 1739.398438 3532.359375 1673.089844 3530.859375 1672.863281 C 3530.785156 1672.191406 3476.085938 1640.308594 3422.28125 1652.207031 Z M 3422.28125 1652.207031 " fill-opacity="1" fill-rule="nonzero"/><path fill="#8b1732" d="M 3328.746094 1594.804688 C 3341.914062 1647.195312 3323.804688 1705.644531 3324.554688 1706.542969 C 3325.226562 1706.542969 3263.34375 1685.511719 3241.34375 1628.484375 C 3218.371094 1570.03125 3260.199219 1506.117188 3261.097656 1507.390625 C 3261.773438 1507.167969 3314.976562 1541.519531 3328.746094 1594.804688 Z M 3328.746094 1594.804688 " fill-opacity="1" fill-rule="nonzero"/><path fill="#8b1732" d="M 3335.929688 1792.984375 C 3283.171875 1805.03125 3239.398438 1847.617188 3238.199219 1847.316406 C 3238.199219 1846.644531 3284.746094 1892.222656 3345.582031 1886.160156 C 3408.066406 1880.171875 3446.078125 1813.863281 3444.507812 1813.640625 C 3444.433594 1812.964844 3389.730469 1781.007812 3335.929688 1792.984375 Z M 3335.929688 1792.984375 " fill-opacity="1" fill-rule="nonzero"/><path fill="#8b1732" d="M 3242.390625 1735.582031 C 3255.5625 1787.96875 3237.527344 1846.417969 3238.199219 1847.316406 C 3238.875 1847.316406 3176.988281 1826.285156 3154.988281 1769.257812 C 3132.015625 1710.808594 3173.921875 1646.894531 3174.746094 1648.167969 C 3175.417969 1647.941406 3228.621094 1682.21875 3242.390625 1735.582031 Z M 3242.390625 1735.582031 " fill-opacity="1" fill-rule="nonzero"/><path fill="#8b1732" d="M 3213.429688 1927.472656 C 3159.777344 1920.4375 3103.878906 1945.058594 3102.90625 1944.460938 C 3102.90625 1943.785156 3130.820312 2002.835938 3190.007812 2018.253906 C 3250.695312 2034.34375 3309.363281 1985.472656 3308.015625 1984.722656 C 3308.167969 1983.976562 3268.058594 1935.105469 3213.429688 1927.472656 Z M 3213.429688 1927.472656 " fill-opacity="1" fill-rule="nonzero"/><path fill="#8b1732" d="M 3145.710938 1840.882812 C 3139.796875 1894.617188 3102.535156 1943.039062 3102.90625 1944.160156 C 3103.582031 1944.160156 3052.847656 1903.074219 3052.023438 1841.929688 C 3050.824219 1779.210938 3112.335938 1733.859375 3112.785156 1735.28125 C 3113.457031 1735.65625 3151.621094 1786.324219 3145.710938 1840.882812 Z M 3145.710938 1840.882812 " fill-opacity="1" fill-rule="nonzero"/><path fill="#8b1732" d="M 3083.453125 2029.40625 C 3029.875 2022.292969 2973.976562 2046.992188 2973.003906 2046.320312 C 2973.003906 2045.71875 3000.914062 2104.769531 3060.105469 2120.109375 C 3120.71875 2136.277344 3179.832031 2087.332031 3178.113281 2086.582031 C 3178.261719 2085.910156 3138.078125 2036.964844 3083.453125 2029.40625 Z M 3083.453125 2029.40625 " fill-opacity="1" fill-rule="nonzero"/><path fill="#8b1732" d="M 3015.804688 1943.039062 C 3009.894531 1996.847656 2972.554688 2045.269531 2973.003906 2046.316406 C 2973.453125 2047.367188 2922.941406 2005.304688 2922.117188 1944.160156 C 2920.921875 1881.371094 2982.429688 1836.015625 2982.804688 1837.511719 C 2983.554688 1837.511719 3021.417969 1888.179688 3015.804688 1943.039062 Z M 3015.804688 1943.039062 " fill-opacity="1" fill-rule="nonzero"/><path fill="#8b1732" d="M 2916.878906 2103.945312 C 2869.214844 2078.351562 2808.152344 2081.492188 2807.476562 2080.746094 C 2807.925781 2080.222656 2813.015625 2145.257812 2862.925781 2180.507812 C 2913.960938 2217.03125 2986.171875 2192.03125 2985.199219 2190.835938 C 2985.574219 2190.238281 2965.292969 2130.289062 2916.878906 2103.945312 Z M 2916.878906 2103.945312 " fill-opacity="1" fill-rule="nonzero"/><path fill="#8b1732" d="M 2884.03125 1999.242188 C 2859.785156 2047.441406 2807.402344 2079.546875 2807.402344 2080.746094 C 2807.402344 2081.941406 2775.078125 2024.613281 2795.878906 1967.136719 C 2816.980469 1908.011719 2890.539062 1887.355469 2890.390625 1888.855469 C 2891.136719 1889.152344 2908.722656 1949.921875 2884.03125 1999.242188 Z M 2884.03125 1999.242188 " fill-opacity="1" fill-rule="nonzero"/><path fill="#8b1732" d="M 2759.289062 2153.339844 C 2711.621094 2127.746094 2650.632812 2130.886719 2649.960938 2130.140625 C 2650.410156 2129.691406 2655.421875 2194.652344 2705.335938 2229.976562 C 2756.445312 2266.5 2828.582031 2241.425781 2827.605469 2240.304688 C 2827.980469 2239.707031 2807.402344 2179.757812 2759.289062 2153.339844 Z M 2759.289062 2153.339844 " fill-opacity="1" fill-rule="nonzero"/><path fill="#8b1732" d="M 2726.511719 2048.636719 C 2701.96875 2096.835938 2650.261719 2129.015625 2650.261719 2130.140625 C 2650.261719 2131.261719 2617.933594 2074.085938 2638.734375 2016.605469 C 2659.761719 1957.484375 2733.320312 1936.75 2733.171875 1938.25 C 2733.546875 1938.546875 2751.132812 1999.320312 2726.511719 2048.636719 Z M 2726.511719 2048.636719 " fill-opacity="1" fill-rule="nonzero"/><path fill="#8b1732" d="M 2366.804688 500.335938 C 2319.136719 474.816406 2258.148438 477.882812 2257.476562 477.136719 C 2257.925781 476.6875 2262.9375 541.722656 2312.851562 576.972656 C 2363.886719 613.496094 2436.097656 588.425781 2435.125 587.300781 C 2435.496094 586.703125 2415.21875 526.753906 2366.804688 500.335938 Z M 2366.804688 500.335938 " fill-opacity="1" fill-rule="nonzero"/><path fill="#8b1732" d="M 2333.953125 395.636719 C 2309.484375 443.90625 2257.476562 476.015625 2257.476562 477.136719 C 2257.476562 478.257812 2225.148438 421.082031 2245.953125 363.601562 C 2266.980469 304.480469 2340.539062 283.75 2340.386719 285.246094 C 2341.0625 285.542969 2358.421875 346.316406 2333.953125 395.636719 Z M 2333.953125 395.636719 " fill-opacity="1" fill-rule="nonzero"/><path fill="#8b1732" d="M 2217.964844 544.195312 C 2166.558594 527.578125 2107.066406 541.796875 2106.246094 540.976562 C 2106.246094 540.453125 2123.230469 603.46875 2178.679688 629.210938 C 2235.476562 656.003906 2302 618.359375 2300.804688 617.460938 C 2301.101562 616.789062 2270.347656 561.109375 2217.964844 544.195312 Z M 2217.964844 544.195312 " fill-opacity="1" fill-rule="nonzero"/><path fill="#8b1732" d="M 2166.933594 447.050781 C 2151.441406 498.914062 2106.09375 539.851562 2106.246094 540.976562 C 2106.394531 542.097656 2064.339844 491.65625 2074.515625 431.332031 C 2084.617188 369.367188 2153.3125 335.835938 2153.386719 337.335938 C 2154.136719 337.484375 2182.347656 394.136719 2166.933594 447.050781 Z M 2166.933594 447.050781 " fill-opacity="1" fill-rule="nonzero"/><path fill="#8b1732" d="M 2093.375 635.949219 C 2039.796875 628.914062 1983.824219 653.535156 1982.851562 652.9375 C 1982.851562 652.261719 2010.761719 711.3125 2069.953125 726.730469 C 2130.640625 742.820312 2189.679688 693.875 2188.035156 693.199219 C 2188.109375 692.601562 2148 643.433594 2093.375 635.949219 Z M 2093.375 635.949219 " fill-opacity="1" fill-rule="nonzero"/><path fill="#8b1732" d="M 2025.726562 549.804688 C 2019.816406 603.542969 1982.476562 651.964844 1982.851562 653.085938 C 1983.523438 653.085938 1932.789062 612 1931.964844 550.855469 C 1930.84375 488.136719 1992.351562 442.785156 1992.726562 444.207031 C 1993.402344 444.28125 2031.339844 494.949219 2025.726562 549.804688 Z M 2025.726562 549.804688 " fill-opacity="1" fill-rule="nonzero"/><path fill="#8b1732" d="M 1978.136719 725.15625 C 1925.753906 737.207031 1881.605469 779.792969 1880.480469 779.492188 C 1880.480469 778.820312 1926.953125 824.398438 1987.789062 818.410156 C 2050.273438 812.347656 2088.285156 746.039062 2086.789062 745.8125 C 2086.640625 745.140625 2032.011719 713.257812 1978.136719 725.15625 Z M 1978.136719 725.15625 " fill-opacity="1" fill-rule="nonzero"/><path fill="#8b1732" d="M 1884.671875 667.753906 C 1897.84375 720.144531 1879.734375 778.59375 1880.480469 779.492188 C 1881.082031 779.492188 1819.269531 758.460938 1797.195312 701.433594 C 1774.222656 642.984375 1816.128906 579.070312 1817.027344 580.339844 C 1817.699219 580.117188 1870.902344 614.394531 1884.671875 667.753906 Z M 1884.671875 667.753906 " fill-opacity="1" fill-rule="nonzero"/><path fill="#8b1732" d="M 1891.855469 865.933594 C 1839.101562 877.980469 1795.25 920.34375 1794.128906 920.34375 C 1793.003906 920.34375 1840.597656 965.246094 1901.433594 959.183594 C 1963.917969 953.195312 2001.929688 886.886719 2000.433594 886.664062 C 2000.285156 885.914062 1945.660156 854.035156 1891.855469 865.933594 Z M 1891.855469 865.933594 " fill-opacity="1" fill-rule="nonzero"/><path fill="#8b1732" d="M 1798.320312 808.53125 C 1811.488281 860.917969 1793.378906 919.371094 1794.128906 920.265625 C 1794.726562 920.265625 1732.917969 899.238281 1710.84375 842.207031 C 1687.871094 783.757812 1729.773438 719.84375 1730.671875 721.117188 C 1731.34375 720.890625 1784.550781 755.167969 1798.320312 808.53125 Z M 1798.320312 808.53125 " fill-opacity="1" fill-rule="nonzero"/><path fill="#8b1732" d="M 1823.761719 992.339844 C 1778.863281 1022.273438 1753.046875 1077.882812 1751.925781 1078.03125 C 1750.800781 1078.179688 1811.789062 1103.476562 1866.039062 1075.9375 C 1922.238281 1048.019531 1934.0625 972.507812 1932.5625 972.804688 C 1931.890625 972.207031 1869.78125 961.953125 1823.761719 992.339844 Z M 1823.761719 992.339844 " fill-opacity="1" fill-rule="nonzero"/><path fill="#8b1732" d="M 1715.855469 972.207031 C 1746.910156 1016.511719 1750.875 1077.507812 1751.925781 1078.03125 C 1752.972656 1078.554688 1687.195312 1080.277344 1646.265625 1034.921875 C 1603.910156 988.597656 1620.148438 913.90625 1621.421875 914.730469 C 1622.019531 914.28125 1683.902344 927.300781 1715.855469 972.207031 Z M 1715.855469 972.207031 " fill-opacity="1" fill-rule="nonzero"/><path fill="#8b1732" d="M 1793.453125 1154.667969 C 1748.554688 1184.605469 1722.738281 1240.210938 1721.617188 1240.359375 C 1720.496094 1240.511719 1781.480469 1265.804688 1835.734375 1238.339844 C 1891.929688 1210.347656 1903.753906 1134.835938 1902.257812 1135.132812 C 1900.761719 1135.433594 1839.398438 1124.359375 1793.453125 1154.667969 Z M 1793.453125 1154.667969 " fill-opacity="1" fill-rule="nonzero"/><path fill="#8b1732" d="M 1685.550781 1134.535156 C 1716.605469 1178.839844 1720.570312 1239.835938 1721.617188 1240.359375 C 1722.664062 1240.882812 1656.890625 1242.605469 1615.957031 1197.253906 C 1573.605469 1150.925781 1589.84375 1076.234375 1591.113281 1077.058594 C 1591.710938 1076.609375 1653.597656 1089.632812 1685.550781 1134.535156 Z M 1685.550781 1134.535156 " fill-opacity="1" fill-rule="nonzero"/><path fill="#8b1732" d="M 1780.507812 1296.863281 C 1749.453125 1341.171875 1745.488281 1402.164062 1744.515625 1402.765625 C 1744.066406 1402.242188 1809.167969 1404.933594 1850.175781 1359.582031 C 1892.53125 1313.253906 1876.21875 1238.5625 1874.945312 1239.386719 C 1874.421875 1238.9375 1812.164062 1251.960938 1780.507812 1296.863281 Z M 1780.507812 1296.863281 " fill-opacity="1" fill-rule="nonzero"/><path fill="#8b1732" d="M 1672.679688 1316.996094 C 1717.578125 1346.933594 1743.320312 1402.539062 1744.515625 1402.765625 C 1745.714844 1402.988281 1684.652344 1428.210938 1630.398438 1400.667969 C 1574.203125 1372.679688 1562.378906 1297.164062 1563.875 1297.539062 C 1564.25 1296.863281 1626.660156 1287.0625 1672.679688 1316.996094 Z M 1672.679688 1316.996094 " fill-opacity="1" fill-rule="nonzero"/><path fill="#8b1732" d="M 1810.816406 1459.195312 C 1779.761719 1503.5 1775.792969 1564.496094 1774.820312 1565.09375 C 1774.371094 1564.570312 1839.550781 1567.339844 1880.480469 1521.910156 C 1922.835938 1475.585938 1906.523438 1400.894531 1905.324219 1401.714844 C 1904.726562 1401.265625 1842.84375 1414.289062 1810.816406 1459.195312 Z M 1810.816406 1459.195312 " fill-opacity="1" fill-rule="nonzero"/><path fill="#8b1732" d="M 1702.984375 1479.402344 C 1747.882812 1509.335938 1773.625 1564.945312 1774.820312 1565.09375 C 1776.019531 1565.242188 1714.957031 1590.539062 1660.707031 1562.996094 C 1604.507812 1535.082031 1592.683594 1459.492188 1594.183594 1459.867188 C 1595.679688 1460.242188 1656.964844 1449.015625 1702.984375 1479.402344 Z M 1702.984375 1479.402344 " fill-opacity="1" fill-rule="nonzero"/><path fill="#8b1732" d="M 1855.113281 1594.804688 C 1841.945312 1647.195312 1860.054688 1705.644531 1859.304688 1706.542969 C 1858.707031 1706.542969 1920.515625 1685.511719 1942.589844 1628.484375 C 1965.5625 1570.03125 1923.660156 1506.117188 1922.761719 1507.390625 C 1922.085938 1507.167969 1868.882812 1541.519531 1855.113281 1594.804688 Z M 1855.113281 1594.804688 " fill-opacity="1" fill-rule="nonzero"/><path fill="#8b1732" d="M 1761.578125 1652.207031 C 1814.332031 1664.257812 1858.183594 1706.839844 1859.304688 1706.542969 C 1860.425781 1706.242188 1812.761719 1751.445312 1752 1745.460938 C 1689.515625 1739.398438 1651.5 1673.089844 1653 1672.863281 C 1653.148438 1672.191406 1707.773438 1640.308594 1761.578125 1652.207031 Z M 1761.578125 1652.207031 " fill-opacity="1" fill-rule="nonzero"/><path fill="#8b1732" d="M 1941.46875 1735.582031 C 1928.296875 1787.96875 1946.40625 1846.417969 1945.660156 1847.316406 C 1945.058594 1847.316406 2006.871094 1826.285156 2028.945312 1769.257812 C 2051.84375 1710.808594 2010.011719 1646.894531 2009.113281 1648.167969 C 2008.441406 1647.941406 1955.238281 1682.21875 1941.46875 1735.582031 Z M 1941.46875 1735.582031 " fill-opacity="1" fill-rule="nonzero"/><path fill="#8b1732" d="M 1847.929688 1792.984375 C 1900.3125 1805.03125 1944.535156 1847.617188 1945.660156 1847.316406 C 1945.660156 1846.644531 1899.113281 1892.222656 1838.277344 1886.160156 C 1775.871094 1880.171875 1737.855469 1813.863281 1739.351562 1813.640625 C 1739.425781 1812.964844 1794.128906 1781.007812 1847.929688 1792.984375 Z M 1847.929688 1792.984375 " fill-opacity="1" fill-rule="nonzero"/><path fill="#8b1732" d="M 2038.148438 1840.882812 C 2044.0625 1894.617188 2081.328125 1943.039062 2080.953125 1944.160156 C 2080.277344 1944.160156 2131.011719 1903.074219 2131.835938 1841.929688 C 2133.035156 1779.210938 2071.523438 1733.859375 2071.148438 1735.28125 C 2070.402344 1735.65625 2032.460938 1786.324219 2038.148438 1840.882812 Z M 2038.148438 1840.882812 " fill-opacity="1" fill-rule="nonzero"/><path fill="#8b1732" d="M 1970.429688 1927.472656 C 2024.082031 1920.4375 2079.980469 1945.058594 2080.953125 1944.460938 C 2080.953125 1943.785156 2053.039062 2002.835938 1993.851562 2018.253906 C 1933.238281 2034.34375 1874.121094 1985.472656 1875.84375 1984.722656 C 1875.691406 1983.976562 1915.875 1935.105469 1970.429688 1927.472656 Z M 1970.429688 1927.472656 " fill-opacity="1" fill-rule="nonzero"/><path fill="#8b1732" d="M 2168.128906 1943.039062 C 2174.039062 1996.847656 2211.304688 2045.269531 2210.933594 2046.316406 C 2210.558594 2047.367188 2260.992188 2005.304688 2261.816406 1944.160156 C 2263.015625 1881.371094 2201.429688 1836.015625 2201.054688 1837.511719 C 2200.382812 1837.511719 2162.441406 1888.179688 2168.128906 1943.039062 Z M 2168.128906 1943.039062 " fill-opacity="1" fill-rule="nonzero"/><path fill="#8b1732" d="M 2100.40625 2029.40625 C 2153.984375 2022.292969 2209.960938 2046.992188 2210.933594 2046.320312 C 2210.933594 2045.71875 2183.019531 2104.769531 2123.828125 2120.109375 C 2063.140625 2136.277344 2004.101562 2087.332031 2005.746094 2086.582031 C 2005.671875 2085.910156 2045.78125 2036.964844 2100.40625 2029.40625 Z M 2100.40625 2029.40625 " fill-opacity="1" fill-rule="nonzero"/><path fill="#8b1732" d="M 2299.832031 1999.242188 C 2324.375 2047.441406 2376.382812 2079.546875 2376.382812 2080.746094 C 2376.382812 2081.941406 2408.707031 2024.613281 2387.90625 1967.136719 C 2366.878906 1908.011719 2293.320312 1887.355469 2293.394531 1888.855469 C 2292.796875 1889.152344 2275.210938 1949.921875 2299.832031 1999.242188 Z M 2299.832031 1999.242188 " fill-opacity="1" fill-rule="nonzero"/><path fill="#8b1732" d="M 2266.980469 2103.945312 C 2314.648438 2078.351562 2375.707031 2081.492188 2376.382812 2080.746094 C 2375.933594 2080.222656 2370.917969 2145.257812 2320.933594 2180.507812 C 2269.898438 2217.03125 2197.6875 2192.03125 2198.660156 2190.835938 C 2198.285156 2190.238281 2218.640625 2130.289062 2266.980469 2103.945312 Z M 2266.980469 2103.945312 " fill-opacity="1" fill-rule="nonzero"/><path fill="#8b1732" d="M 2457.421875 2048.636719 C 2481.890625 2096.835938 2533.898438 2129.015625 2533.898438 2130.140625 C 2533.898438 2131.261719 2566.300781 2074.085938 2545.421875 2016.605469 C 2524.394531 1957.484375 2450.835938 1936.75 2450.988281 1938.25 C 2450.3125 1938.546875 2432.730469 1999.320312 2457.421875 2048.636719 Z M 2457.421875 2048.636719 " fill-opacity="1" fill-rule="nonzero"/><path fill="#8b1732" d="M 2424.570312 2153.339844 C 2472.238281 2127.746094 2533.226562 2130.886719 2533.898438 2130.140625 C 2534.574219 2129.390625 2528.4375 2194.652344 2478.523438 2229.976562 C 2427.492188 2266.5 2355.28125 2241.425781 2356.253906 2240.304688 C 2355.878906 2239.707031 2376.15625 2179.757812 2424.570312 2153.339844 Z M 2424.570312 2153.339844 " fill-opacity="1" fill-rule="nonzero"/></svg>