<svg xmlns="http://www.w3.org/2000/svg" xmlns:xlink="http://www.w3.org/1999/xlink" width="6912" zoomAndPan="magnify" viewBox="0 0 5184 2592.000001" height="3456" preserveAspectRatio="xMidYMid meet" version="1.0"><defs><clipPath id="c9780fcec8"><path d="M 1703 2267 L 3473 2267 L 3473 2590.71875 L 1703 2590.71875 Z M 1703 2267 " clip-rule="nonzero"/></clipPath></defs><path fill="#5badff" d="M 3547.105469 2140.503906 C 3460.246094 2163.761719 3367.546875 2171.242188 3283.195312 2200.011719 C 3426.078125 2077.5 3417.917969 1887.949219 3513.246094 1743.65625 C 3543.613281 1702.804688 3568.710938 1659.984375 3604.105469 1621.214844 C 3546.121094 1737.53125 3571.265625 1888.433594 3504.652344 2001.316406 C 3479.007812 2046.152344 3442.335938 2089.652344 3401.777344 2124.863281 C 3415.03125 2124.367188 3426.628906 2112.898438 3438.277344 2105.238281 C 3546.480469 1997.265625 3687.832031 1967.074219 3804.878906 1879.351562 C 3851.761719 1841.992188 3894.707031 1793.039062 3915.3125 1740.097656 C 3893.167969 1919.234375 3714.953125 2087.128906 3547.101562 2140.5 Z M 3547.105469 2140.503906 " fill-opacity="1" fill-rule="nonzero"/><path fill="#5badff" d="M 3936.828125 1415.171875 C 3883.890625 1490.5 3819.847656 1560.625 3770.941406 1637.179688 C 3776.398438 1576.566406 3783.578125 1502.03125 3759.96875 1444.613281 C 3719.050781 1320.96875 3683.101562 1195.429688 3671.503906 1059.730469 L 3673.101562 1007.839844 C 3703.890625 1146.425781 3840.027344 1241.683594 3831.441406 1397.125 C 3834.558594 1434.796875 3822.90625 1466.824219 3815.851562 1499.957031 L 3818.191406 1502.402344 L 3824.324219 1495.53125 C 3844.507812 1419.28125 3854.699219 1339.105469 3886.085938 1267.960938 C 3930.695312 1165.589844 3986.394531 1062.269531 3963.703125 938.664062 C 4031.550781 1084.390625 4010.996094 1279.101562 3936.832031 1415.167969 Z M 3936.828125 1415.171875 " fill-opacity="1" fill-rule="nonzero"/><path fill="#5badff" d="M 3853.304688 630.078125 C 3942.570312 751.046875 3962.136719 943.832031 3897.121094 1082.59375 C 3872.886719 1141.398438 3855.769531 1204.054688 3846.25 1269.148438 C 3841.707031 1257.917969 3840.667969 1242.828125 3836.613281 1230.316406 C 3801.105469 1094.492188 3672.648438 997.699219 3619.816406 869.636719 C 3603.0625 827.761719 3588.78125 784.484375 3580.859375 739.03125 C 3637.3125 843.433594 3776.429688 897.359375 3814.347656 1012.421875 C 3829.882812 1041.519531 3829.007812 1077.875 3838.644531 1109.164062 C 3840.667969 1109.164062 3842.691406 1107.660156 3842.691406 1105.605469 C 3826 987.085938 3831.09375 863.046875 3847.179688 745.996094 C 3846.25 682.59375 3840.0625 621.09375 3804.835938 572.019531 C 3827.425781 585.179688 3837.597656 610.457031 3853.304688 630.085938 Z M 3853.304688 630.078125 " fill-opacity="1" fill-rule="nonzero"/><path fill="#5badff" d="M 3790.339844 606.851562 C 3813.785156 712.859375 3779.539062 816.101562 3801.078125 923.121094 L 3800.277344 924.042969 C 3742.605469 810.644531 3620.167969 757.121094 3535.929688 666.359375 C 3487.105469 612.5 3465.878906 546.859375 3453.671875 477.355469 C 3501.941406 593.730469 3632.199219 619.367188 3706.972656 717.433594 C 3731.992188 740.039062 3740.160156 771.359375 3756.289062 796.996094 L 3758.929688 794.449219 C 3715.925781 702.648438 3701.519531 599.34375 3671.511719 501.441406 C 3656.488281 459.015625 3626.675781 417.328125 3586.675781 390.589844 C 3684.839844 410.648438 3769.910156 513.128906 3790.347656 606.863281 Z M 3790.339844 606.851562 " fill-opacity="1" fill-rule="nonzero"/><path fill="#5badff" d="M 3527.917969 363.742188 C 3601.847656 429.90625 3635.28125 515.582031 3656.871094 604.34375 L 3669.082031 632.53125 C 3561.777344 555.359375 3464.304688 451.621094 3395.785156 342.0625 L 3312.101562 257.402344 C 3385.667969 288.59375 3464.984375 307.214844 3527.921875 363.738281 Z M 3527.917969 363.742188 " fill-opacity="1" fill-rule="nonzero"/><path fill="#5badff" d="M 1833.265625 271.453125 C 1759.089844 336.476562 1707.648438 418.710938 1652.625 495.390625 C 1603.300781 556.460938 1540.207031 596.726562 1484.289062 649.242188 C 1514.472656 586.667969 1515.574219 511.925781 1558.390625 454.441406 C 1619.3125 348.15625 1732.28125 310.761719 1833.265625 271.445312 Z M 1833.265625 271.453125 " fill-opacity="1" fill-rule="nonzero"/><path fill="#5badff" d="M 1427.578125 497.878906 C 1463.652344 453.035156 1509.394531 421.871094 1560.855469 408.714844 C 1460.914062 477.363281 1467.421875 600.386719 1435.738281 702.652344 C 1425.636719 740.46875 1408.09375 775.3125 1399.355469 814.078125 L 1401.898438 816.101562 C 1418.527344 772.273438 1447.753906 730.871094 1484.230469 695.105469 C 1555.207031 629.585938 1660.199219 588.753906 1694.988281 491.832031 C 1693.398438 626.515625 1581.039062 732.402344 1473.53125 808.09375 C 1429.195312 846.988281 1386.445312 891.308594 1362.03125 941.308594 C 1359.636719 907.328125 1367.054688 873.210938 1364.636719 836.8125 C 1352.945312 719.234375 1344.449219 585.046875 1427.574219 497.871094 Z M 1427.578125 497.878906 " fill-opacity="1" fill-rule="nonzero"/><path fill="#5badff" d="M 1225.382812 899.902344 C 1222.375 780.765625 1271.824219 683.503906 1341.507812 594.734375 C 1343.53125 593.722656 1344.972656 591.699219 1347.578125 592.1875 C 1270.871094 708.75 1334.328125 855.570312 1330.832031 988.109375 L 1320.714844 1123.808594 C 1322.21875 1124.792969 1322.21875 1128.871094 1325.777344 1127.304688 C 1330.3125 1112.179688 1331.296875 1096.015625 1334.328125 1080.457031 C 1352.394531 971.003906 1447.453125 893.332031 1530.488281 817.6875 C 1548.214844 797.902344 1563.894531 777.816406 1573 754.597656 C 1566.222656 809.097656 1549.136719 864.070312 1526.527344 914.472656 C 1461.902344 1040.5 1342.523438 1143.898438 1320.71875 1288.175781 C 1310.136719 1149.914062 1216 1046.535156 1225.382812 899.898438 Z M 1225.382812 899.902344 " fill-opacity="1" fill-rule="nonzero"/><path fill="#5badff" d="M 1167.335938 1069.332031 C 1175.921875 1032.070312 1182.488281 993.507812 1198.707031 959.320312 C 1167.980469 1116.824219 1273.921875 1230.3125 1308.675781 1366.839844 C 1323.21875 1417.90625 1326.777344 1472.75 1347.570312 1520.664062 C 1349.503906 1521.710938 1351.191406 1519.6875 1352.386719 1518.152344 C 1300.644531 1373.125 1375.335938 1238.355469 1450.390625 1124.800781 C 1468.640625 1094.035156 1479.160156 1059.773438 1488.238281 1024.40625 C 1496.210938 1090.042969 1479.617188 1165.636719 1470.082031 1233.78125 C 1451.832031 1320.496094 1424.589844 1402.726562 1400.875 1486.871094 C 1385.269531 1539.445312 1389.371094 1598.761719 1397.386719 1653.847656 L 1389.867188 1647.84375 C 1334.84375 1546.375 1225.886719 1467.238281 1193.523438 1356.386719 C 1166.898438 1268.011719 1149.199219 1165.644531 1167.332031 1069.351562 Z M 1167.335938 1069.332031 " fill-opacity="1" fill-rule="nonzero"/><path fill="#5badff" d="M 1162.417969 1376.957031 C 1174.53125 1543.90625 1354.070312 1632.117188 1437.285156 1770.332031 C 1456.976562 1798.609375 1474.0625 1829.898438 1500.375 1853.570312 C 1496.261719 1835.785156 1479.667969 1820.820312 1473.574219 1802.601562 C 1444.457031 1744.632812 1433.84375 1675.554688 1440.84375 1605.496094 C 1448.90625 1520.222656 1484.675781 1441.089844 1471.023438 1351.398438 C 1544.148438 1509.066406 1521.9375 1705.859375 1562.824219 1876.699219 C 1573.53125 1914.0625 1595.160156 1947.429688 1609.332031 1983.140625 C 1459.085938 1880.816406 1254.222656 1783.453125 1187.570312 1595.925781 C 1159.480469 1531.265625 1156.347656 1451.214844 1162.425781 1376.957031 Z M 1162.417969 1376.957031 " fill-opacity="1" fill-rule="nonzero"/><path fill="#5badff" d="M 1252.148438 1760.300781 C 1335.921875 1949.804688 1545.722656 1965.503906 1686.390625 2080.898438 C 1712.273438 2103.84375 1739.398438 2123.351562 1768.621094 2136.964844 L 1770.125 2135.4375 C 1737.828125 2106.234375 1700.472656 2072.980469 1677.863281 2035.136719 C 1595.53125 1920.667969 1624.492188 1760.308594 1562.800781 1637.195312 C 1618.851562 1704.238281 1669.816406 1773.933594 1703.660156 1849.996094 C 1753.996094 1974.15625 1773.230469 2114.402344 1889.695312 2208.257812 C 1763.652344 2166.722656 1615.996094 2178.324219 1504.746094 2100.722656 C 1383.28125 2026.070312 1274.871094 1899.449219 1252.144531 1760.316406 Z M 1252.148438 1760.300781 " fill-opacity="1" fill-rule="nonzero"/><path fill="#5badff" d="M 1467.40625 2113.898438 C 1601.71875 2266.65625 1821.195312 2215.6875 2000.109375 2255.660156 C 2025.382812 2259.105469 2048.511719 2269.230469 2075.296875 2265.121094 C 2053.96875 2251.628906 2024.375 2253.089844 2001.09375 2240.824219 C 1860.84375 2191.554688 1840.277344 2039.730469 1764.140625 1937.351562 C 1861.402344 2001.941406 1943.175781 2089.050781 2032.90625 2173.46875 C 2097.402344 2229.964844 2175.042969 2256.039062 2256.839844 2272.667969 C 2237.179688 2279.851562 2211.410156 2277.882812 2190.3125 2283.40625 C 2043.355469 2319.542969 1880.082031 2378.609375 1724.226562 2325.734375 C 1622.910156 2293.832031 1518.375 2213.722656 1467.398438 2113.898438 Z M 1467.40625 2113.898438 " fill-opacity="1" fill-rule="nonzero"/><g clip-path="url(#c9780fcec8)"><path fill="#5badff" d="M 3290.488281 2469.910156 C 3139.132812 2526.390625 2981.179688 2467.328125 2862.964844 2377.691406 C 2815.105469 2347.269531 2772.910156 2303.464844 2711.003906 2307.339844 C 2688.546875 2306.914062 2666.898438 2308.015625 2647.8125 2313.527344 C 2762.65625 2366.96875 2869.34375 2440.648438 2966.878906 2534.867188 C 2950.4375 2553.636719 2929.148438 2571.191406 2909.097656 2587.378906 C 2815.101562 2486.105469 2711.003906 2388.621094 2594.449219 2331.679688 C 2571.625 2334.640625 2549.910156 2348.371094 2529.332031 2359.421875 C 2434.441406 2419.414062 2340.621094 2496.589844 2270.078125 2591.058594 L 2209.460938 2541 C 2306.207031 2443.136719 2413.222656 2366.960938 2530.285156 2312.542969 C 2415.246094 2276.105469 2340.164062 2372.472656 2252.84375 2421.492188 C 2151.09375 2492.539062 2004.757812 2525.902344 1881.785156 2476.886719 C 1815.652344 2451.800781 1751.582031 2414.863281 1703.695312 2354.820312 C 1800.472656 2421.488281 1944.605469 2428.480469 2054.660156 2385.179688 C 2202.34375 2321.125 2355.8125 2239.917969 2533.839844 2278.753906 C 2561.625 2279.242188 2588.621094 2306.90625 2614.871094 2283.351562 C 2747.195312 2248.992188 2897.007812 2272.613281 3010.933594 2333.09375 L 3128.347656 2380.15625 C 3237.484375 2420.511719 3378.589844 2409.347656 3472.140625 2342.855469 C 3424.042969 2402.71875 3358.34375 2445.609375 3290.492188 2469.910156 Z M 3290.488281 2469.910156 " fill-opacity="1" fill-rule="nonzero"/></g><path fill="#5badff" d="M 3452.617188 2313.511719 C 3282.6875 2377.675781 3111.730469 2298.914062 2948.898438 2272.601562 L 2917.546875 2268.621094 L 2917.546875 2267.628906 C 2995.40625 2249.960938 3070.976562 2226.78125 3132.949219 2170.835938 C 3224.222656 2083.105469 3305.445312 1992.796875 3406.804688 1923.667969 C 3331.640625 2020.039062 3323.667969 2157.210938 3199.503906 2219.175781 C 3168.773438 2239.28125 3129.992188 2242.84375 3098.273438 2258.066406 C 3143.496094 2259.042969 3184.902344 2242.839844 3229.6875 2238.304688 C 3396.1875 2212.167969 3586.660156 2238.984375 3703.472656 2097.152344 C 3660.109375 2195.980469 3551.503906 2278.746094 3452.621094 2313.507812 Z M 3452.617188 2313.511719 " fill-opacity="1" fill-rule="nonzero"/><path fill="#5badff" d="M 3761.398438 1835.441406 C 3694.289062 1879.363281 3626.261719 1920.097656 3561.773438 1970.03125 L 3561.773438 1963.898438 C 3660.550781 1799.742188 3612.261719 1574.226562 3673.125 1393.570312 L 3695.824219 1333.050781 C 3683.125 1445.59375 3732.007812 1540.925781 3728.574219 1653.855469 C 3725.144531 1722.074219 3702.878906 1782.566406 3667.054688 1837.039062 L 3673.125 1837.039062 C 3721.519531 1773.480469 3759.308594 1705.878906 3815.871094 1645.34375 C 3903.667969 1560.683594 3992.925781 1473.875 4004.453125 1356.398438 C 4034.269531 1552.519531 3924.21875 1724.40625 3761.398438 1835.441406 Z M 3761.398438 1835.441406 " fill-opacity="1" fill-rule="nonzero"/><path fill="#5badff" d="M 2569.335938 1407.996094 L 2599.808594 1407.996094 L 2599.808594 2172.425781 L 2569.335938 2172.425781 Z M 2569.335938 1407.996094 " fill-opacity="1" fill-rule="evenodd"/><path fill="#5badff" d="M 2404.0625 1332.941406 L 2425.585938 1354.464844 L 1884.621094 1894.613281 L 1863.09375 1873.089844 Z M 2404.0625 1332.941406 " fill-opacity="1" fill-rule="evenodd"/><path fill="#5badff" d="M 2352.300781 1173.636719 L 2352.300781 1204.113281 L 1587.855469 1203.226562 L 1587.855469 1172.75 Z M 2352.300781 1173.636719 " fill-opacity="1" fill-rule="evenodd"/><path fill="#5badff" d="M 2424.941406 1026.242188 L 2403.417969 1047.757812 L 1862.851562 507.136719 L 1884.457031 485.609375 Z M 2424.941406 1026.242188 " fill-opacity="1" fill-rule="evenodd"/><path fill="#5badff" d="M 2599.488281 963.457031 L 2569.011719 963.429688 L 2569.738281 198.96875 L 2600.132812 199 Z M 2599.488281 963.457031 " fill-opacity="1" fill-rule="evenodd"/><path fill="#5badff" d="M 2752.425781 1036.375 L 2730.980469 1014.816406 L 3272.269531 474.992188 L 3293.714844 496.550781 Z M 2752.425781 1036.375 " fill-opacity="1" fill-rule="evenodd"/><path fill="#5badff" d="M 2811.519531 1206.53125 L 2811.4375 1176.054688 L 3575.886719 1175.089844 L 3575.96875 1205.5625 Z M 2811.519531 1206.53125 " fill-opacity="1" fill-rule="evenodd"/><path fill="#5badff" d="M 2723.238281 1362.125 L 2744.765625 1340.519531 L 3285.734375 1880.667969 L 3264.289062 1902.191406 Z M 2723.238281 1362.125 " fill-opacity="1" fill-rule="evenodd"/><path fill="#5badff" d="M 2869.648438 423.902344 C 3290.707031 581.285156 3504.691406 1050.714844 3347.296875 1471.707031 C 3189.90625 1892.730469 2720.464844 2106.710938 2299.464844 1949.328125 C 1878.410156 1791.949219 1664.460938 1322.53125 1821.816406 901.519531 C 1979.210938 480.488281 2448.644531 266.523438 2869.648438 423.894531 Z M 2857.328125 456.910156 C 3260.132812 607.484375 3464.855469 1056.597656 3314.292969 1459.410156 C 3163.726562 1862.222656 2714.578125 2066.921875 2311.773438 1916.359375 C 1908.964844 1765.804688 1704.261719 1316.683594 1854.8125 913.859375 C 2005.386719 511.0625 2454.519531 306.347656 2857.335938 456.910156 Z M 2857.328125 456.910156 " fill-opacity="1" fill-rule="evenodd"/><path fill="#5badff" d="M 2804.34375 598.664062 C 3128.933594 719.984375 3293.859375 1081.851562 3172.558594 1406.382812 C 3051.222656 1730.941406 2689.332031 1895.886719 2364.816406 1774.570312 C 2040.265625 1653.257812 1875.300781 1291.375 1996.617188 966.847656 C 2117.9375 642.292969 2479.828125 477.347656 2804.359375 598.671875 Z M 2791.960938 631.863281 C 3098.175781 746.324219 3253.832031 1087.78125 3139.363281 1394.019531 C 3024.898438 1700.257812 2683.414062 1855.894531 2377.199219 1741.414062 C 2070.949219 1626.953125 1915.296875 1285.488281 2029.777344 979.257812 C 2144.257812 673.019531 2485.714844 517.382812 2791.960938 631.863281 Z M 2791.960938 631.863281 " fill-opacity="1" fill-rule="evenodd"/><path fill="#5badff" d="M 2740.976562 768.164062 C 2971.996094 854.507812 3089.390625 1112.0625 3003.050781 1343.058594 C 2916.675781 1574.046875 2659.121094 1691.453125 2428.132812 1605.101562 C 2197.125 1518.75 2079.730469 1261.207031 2166.082031 1030.214844 C 2252.4375 799.226562 2509.988281 681.828125 2740.96875 768.171875 Z M 2729.628906 798.546875 C 2943.863281 878.625 3052.75 1117.476562 2972.667969 1331.703125 C 2892.574219 1545.925781 2653.730469 1654.792969 2439.496094 1574.714844 C 2225.269531 1494.648438 2116.398438 1255.785156 2196.472656 1041.554688 C 2276.554688 827.34375 2515.410156 718.46875 2729.636719 798.539062 Z M 2729.628906 798.546875 " fill-opacity="1" fill-rule="evenodd"/><path fill="#5badff" d="M 2669.707031 958.835938 C 2795.460938 1005.839844 2859.375 1146.042969 2812.367188 1271.792969 C 2765.355469 1397.523438 2625.164062 1461.441406 2499.410156 1414.429688 C 2373.660156 1367.433594 2309.757812 1227.234375 2356.753906 1101.484375 C 2403.765625 975.742188 2543.988281 911.835938 2669.707031 958.835938 Z M 2657.414062 991.703125 C 2765.050781 1031.925781 2819.71875 1151.910156 2779.507812 1259.511719 C 2739.261719 1367.113281 2619.304688 1421.796875 2511.699219 1381.574219 C 2404.078125 1341.351562 2349.394531 1221.378906 2389.605469 1113.765625 C 2429.847656 1006.15625 2549.832031 951.472656 2657.414062 991.703125 Z M 2657.414062 991.703125 " fill-opacity="1" fill-rule="evenodd"/><path fill="#5badff" d="M 3059.511719 303.160156 C 3551.984375 574.171875 3738.902344 1189.890625 3476.714844 1677.554688 C 3214.554688 2165.234375 2602.058594 2341.082031 2109.625 2070.082031 C 1617.160156 1799.082031 1430.230469 1183.351562 1692.425781 695.6875 C 1954.605469 208.015625 2567.085938 32.167969 3059.519531 303.167969 Z M 3042.277344 335.246094 C 3516.867188 596.40625 3696.992188 1189.808594 3444.316406 1659.738281 C 3191.675781 2129.699219 2601.425781 2299.167969 2126.808594 2038.003906 C 1652.199219 1776.828125 1472.085938 1183.441406 1724.75 713.511719 C 1977.394531 243.550781 2567.644531 74.089844 3042.261719 335.253906 Z M 3042.277344 335.246094 " fill-opacity="1" fill-rule="evenodd"/><path fill="#5badff" d="M 3179.070312 1659.125 C 3179.648438 1664.355469 3177.851562 1677.234375 3180.292969 1680.191406 C 3182.820312 1684.199219 3192.25 1683.347656 3196.335938 1681.929688 C 3207.503906 1677.734375 3218.609375 1662.984375 3223.769531 1651.925781 C 3227.398438 1646.3125 3229.835938 1639.738281 3229.042969 1632.386719 L 3221.230469 1608.726562 C 3219.28125 1600.429688 3216.65625 1585.84375 3207.808594 1582.398438 C 3208.636719 1580.203125 3211.4375 1576.769531 3211.105469 1573.625 C 3209.058594 1564.277344 3193.441406 1566.730469 3187.859375 1573.597656 C 3185.046875 1577.03125 3185.84375 1584.363281 3185.234375 1588.652344 C 3185.078125 1597.148438 3182.699219 1614.308594 3179.316406 1622.027344 C 3175.929688 1629.730469 3166.441406 1640.121094 3166.316406 1648.613281 C 3166.984375 1654.898438 3173.734375 1658.53125 3179.070312 1659.125 Z M 2659.226562 1593.488281 L 2662 1599.589844 C 2662.125 1600.640625 2663.375 1602.640625 2664.441406 1602.550781 C 2671.519531 1609.335938 2681.4375 1593.609375 2669.601562 1591.503906 C 2668.53125 1591.59375 2666.335938 1590.726562 2665.390625 1591.871094 C 2663.316406 1592.066406 2661.210938 1592.253906 2659.226562 1593.488281 Z M 2667.070312 1577.960938 C 2662.277344 1582.613281 2660.539062 1585.953125 2668.320312 1589.488281 Z M 2540.824219 1485.488281 C 2533.136719 1492.519531 2533.71875 1488.25 2529.78125 1490.71875 C 2526.851562 1493.082031 2529.292969 1496.042969 2526.609375 1500.527344 C 2525.78125 1502.722656 2522.734375 1504.054688 2522.980469 1506.15625 C 2522.273438 1509.390625 2525.632812 1511.207031 2528.894531 1511.96875 C 2533.199219 1512.640625 2545.769531 1511.523438 2549.699219 1509.054688 C 2553.578125 1505.53125 2552.050781 1501.425781 2553.824219 1498.085938 C 2554.769531 1496.945312 2556.628906 1494.65625 2557.574219 1493.511719 C 2558.03125 1488.175781 2546.773438 1481.765625 2540.824219 1485.488281 Z M 2843.960938 1452.996094 L 2845.085938 1463.476562 L 2843.867188 1472.066406 C 2855.273438 1469.976562 2862.296875 1466.175781 2872.421875 1462.085938 C 2875.445312 1460.757812 2881.484375 1458.089844 2883.828125 1460 C 2887.191406 1461.832031 2885.417969 1465.152344 2884.59375 1467.347656 C 2882.949219 1471.726562 2876.421875 1479.738281 2873.609375 1483.167969 C 2865.097656 1492.398438 2852.53125 1493.527344 2841.910156 1502.953125 C 2836.203125 1508.765625 2834.683594 1514.191406 2828.945312 1520.007812 C 2823.246094 1525.800781 2819.152344 1527.238281 2816.222656 1529.617188 C 2813.417969 1533.046875 2815.765625 1534.953125 2809.820312 1538.664062 L 2813.207031 1530.957031 C 2809.972656 1530.179688 2805.757812 1530.5625 2803.316406 1527.589844 C 2801.949219 1524.554688 2801.609375 1521.394531 2802.308594 1518.160156 C 2803.75 1511.679688 2805.058594 1494.609375 2808.8125 1490.03125 C 2809.757812 1488.890625 2817.90625 1486.035156 2820.921875 1484.707031 L 2819.519531 1491.191406 C 2822.664062 1490.917969 2827.882812 1490.445312 2829.859375 1489.207031 C 2834.992188 1487.683594 2840.140625 1476.625 2842.828125 1472.15625 L 2828.613281 1477.664062 C 2831.085938 1471.089844 2838.101562 1457.757812 2843.960938 1452.996094 Z M 2562.945312 1484.554688 C 2560.8125 1494.289062 2566.761719 1490.566406 2570.359375 1494.488281 C 2572.679688 1496.394531 2573.015625 1499.539062 2573.351562 1502.695312 L 2565.085938 1504.492188 L 2561.449219 1510.109375 L 2556.78125 1515.828125 L 2570.96875 1519.855469 C 2563.863281 1522.601562 2559.5625 1521.929688 2555.015625 1528.703125 L 2572.800781 1527.101562 C 2584.425781 1527.117188 2593.152344 1529.511719 2604.105469 1523.222656 L 2601.785156 1521.320312 L 2604.957031 1511.496094 L 2597.058594 1506.917969 L 2594.277344 1500.816406 L 2580.976562 1485.058594 L 2576.554688 1483.335938 C 2580.308594 1478.761719 2587.875 1470.660156 2577.074219 1468.464844 L 2571.734375 1467.886719 L 2576.402344 1462.164062 C 2569.996094 1461.691406 2564.65625 1461.109375 2559.867188 1465.777344 C 2554.253906 1472.628906 2554.097656 1481.113281 2562.949219 1484.554688 Z M 2556.753906 1348.496094 L 2556.511719 1355.921875 L 2554.070312 1352.96875 L 2554.375 1365.644531 C 2556.234375 1372.902344 2564.378906 1370.050781 2566.242188 1367.761719 C 2568.226562 1366.527344 2568.804688 1362.226562 2568.59375 1360.136719 C 2568.378906 1358.046875 2567.097656 1356.035156 2565.9375 1355.085938 C 2563.710938 1354.214844 2562.671875 1354.308594 2560.570312 1354.492188 L 2559.894531 1348.207031 Z M 1693.867188 1415.324219 C 1693.453125 1431.25 1697.648438 1430.867188 1701.203125 1444.320312 C 1703.046875 1451.570312 1700.136719 1453.945312 1705.902344 1468.253906 C 1708.675781 1474.371094 1710.386719 1480.566406 1717.007812 1483.144531 C 1715.101562 1465.3125 1712.917969 1454.921875 1706.9375 1438.511719 C 1702.664062 1428.304688 1699.402344 1427.542969 1695.953125 1415.125 Z M 3140.453125 1241.050781 C 3135.453125 1243.613281 3133.679688 1246.953125 3134.253906 1252.183594 C 3133.765625 1257.539062 3138.40625 1261.351562 3143.53125 1259.828125 C 3150.640625 1257.082031 3151.859375 1238.960938 3140.453125 1241.050781 Z M 2150.585938 1238.757812 C 2148.007812 1244.296875 2147.519531 1249.636719 2153.207031 1253.359375 C 2152.644531 1248.128906 2154.167969 1242.679688 2150.585938 1238.757812 Z M 2459.847656 1243.855469 L 2463.339844 1246.722656 C 2471.027344 1239.675781 2472.679688 1235.285156 2478.292969 1228.433594 C 2482.957031 1222.714844 2486.101562 1222.4375 2489.015625 1220.0625 C 2490.875 1217.769531 2490.644531 1215.667969 2491.34375 1212.433594 C 2492.996094 1208.039062 2496.03125 1206.710938 2495.25 1199.375 C 2495.621094 1192.984375 2491.457031 1183.828125 2484.238281 1185.535156 L 2482.621094 1180.386719 C 2479.480469 1180.664062 2474.355469 1182.183594 2471.441406 1184.558594 C 2468.527344 1186.945312 2470.019531 1191.046875 2466.179688 1194.566406 C 2461.507812 1200.277344 2453.363281 1203.125 2451.378906 1204.363281 C 2448.34375 1205.703125 2449.734375 1208.753906 2444.824219 1212.371094 C 2437.957031 1217.222656 2433.425781 1214.445312 2429.351562 1215.878906 C 2424.226562 1217.390625 2416.632812 1225.488281 2412.785156 1229.011719 C 2407.171875 1235.863281 2405.542969 1240.253906 2403.191406 1247.882812 C 2402.371094 1250.0625 2400.613281 1253.402344 2401.882812 1255.417969 C 2403.144531 1257.417969 2406.292969 1257.125 2408.285156 1255.890625 C 2412.359375 1254.472656 2421.328125 1249.4375 2424.597656 1250.203125 C 2427.722656 1249.910156 2429 1251.921875 2431.214844 1252.78125 C 2434.464844 1253.539062 2436.554688 1253.359375 2438.765625 1254.214844 C 2440.960938 1255.082031 2443.402344 1258.039062 2445.71875 1259.949219 C 2451.289062 1262.617188 2456.902344 1255.769531 2458.550781 1251.390625 C 2459.371094 1249.195312 2460.183594 1246.996094 2459.847656 1243.855469 Z M 2465.933594 1162.8125 L 2466.058594 1163.863281 L 2464.878906 1162.910156 L 2465.9375 1162.8125 Z M 2475.210938 1170.453125 C 2477.984375 1176.5625 2488.203125 1183.054688 2494.003906 1187.835938 C 2495.984375 1186.597656 2496.914062 1185.453125 2497.738281 1183.265625 C 2500.316406 1177.734375 2499.1875 1167.238281 2493.605469 1164.5625 C 2490.25 1162.746094 2486.160156 1164.175781 2483.140625 1165.503906 C 2483.019531 1164.457031 2481.644531 1161.40625 2480.488281 1160.445312 C 2472.25 1152.714844 2461.941406 1174.820312 2475.210938 1170.453125 Z M 2431.414062 1156.382812 C 2438.476562 1163.160156 2438.597656 1164.203125 2448.027344 1163.359375 C 2446.589844 1169.84375 2438.203125 1180.132812 2431.335938 1175.457031 C 2426.820312 1172.679688 2426.363281 1168.484375 2424.167969 1167.621094 C 2420.800781 1165.808594 2420.539062 1173.242188 2418.675781 1175.527344 C 2414.222656 1183.339844 2406.78125 1182.953125 2406.046875 1195.730469 L 2410.011719 1193.242188 C 2414.039062 1201.355469 2421.515625 1192.222656 2426.535156 1189.652344 C 2425.601562 1190.796875 2423.726562 1193.089844 2422.917969 1195.273438 C 2422.183594 1198.519531 2425.679688 1201.390625 2428.714844 1200.046875 C 2431.734375 1198.714844 2435.363281 1193.089844 2438.265625 1190.710938 C 2441.195312 1188.339844 2442.230469 1188.246094 2445.265625 1186.902344 C 2448.179688 1184.535156 2452.023438 1181.011719 2454.953125 1178.628906 C 2463.707031 1171.492188 2464.148438 1175.683594 2467.214844 1164.816406 C 2466.972656 1162.71875 2467.914062 1161.574219 2467.6875 1159.476562 C 2463.523438 1150.316406 2448.515625 1158.019531 2447.339844 1157.074219 L 2440.824219 1155.53125 C 2438.628906 1154.671875 2434.542969 1156.101562 2431.417969 1156.382812 Z M 2479.800781 1154.164062 L 2474.570312 1154.628906 L 2475.957031 1157.679688 C 2482.132812 1156.066406 2486.316406 1155.6875 2486.574219 1148.25 C 2481.339844 1148.722656 2480.289062 1148.8125 2479.800781 1154.164062 Z M 2149.988281 1174.210938 L 2145.132812 1197.957031 L 2147.300781 1208.34375 L 2151.664062 1229.132812 C 2154.347656 1224.664062 2159.167969 1210.460938 2159.65625 1205.125 L 2160.847656 1196.535156 C 2161.214844 1190.15625 2162.035156 1187.964844 2159.261719 1181.855469 L 2152.488281 1187.757812 L 2152.074219 1174.03125 Z M 2490.644531 1146.824219 C 2489.972656 1140.53125 2491.132812 1141.492188 2496.46875 1142.066406 L 2496.394531 1131.480469 C 2493.359375 1132.8125 2489.179688 1133.191406 2486.25 1135.566406 C 2481.582031 1141.277344 2482.164062 1146.535156 2490.644531 1146.824219 Z M 2459.523438 1132.675781 L 2463.109375 1136.589844 C 2470.328125 1134.882812 2472.644531 1136.789062 2479.15625 1138.328125 L 2476.609375 1134.316406 L 2479.292969 1129.839844 C 2485.582031 1129.285156 2486.070312 1123.933594 2483.414062 1118.878906 C 2482.253906 1117.921875 2480.042969 1117.066406 2478.882812 1116.105469 C 2467.609375 1109.710938 2466.542969 1119.335938 2463.859375 1123.8125 Z M 2486.632812 1129.179688 C 2488.722656 1128.992188 2490.828125 1128.808594 2492.808594 1127.574219 C 2496.652344 1124.046875 2494.488281 1113.648438 2491.101562 1111.835938 C 2487.851562 1111.070312 2486.101562 1114.398438 2486.328125 1116.496094 L 2485.613281 1119.75 L 2486.175781 1124.988281 Z M 2150.046875 1155.144531 C 2153.78125 1150.574219 2155.082031 1143.042969 2155.570312 1137.699219 C 2148.582031 1141.515625 2149.253906 1147.800781 2150.046875 1155.144531 Z M 2187.144531 1087.210938 C 2188.152344 1096.652344 2186.964844 1105.230469 2183.667969 1114 C 2179.457031 1123.914062 2169.296875 1137.535156 2167.164062 1147.25 L 2164.738281 1144.289062 C 2160.175781 1151.054688 2159.65625 1165.9375 2162.558594 1173.085938 C 2168.261719 1167.277344 2169.574219 1159.746094 2173.082031 1153.074219 C 2179.992188 1138.691406 2189.222656 1126.21875 2192.761719 1110.007812 C 2193.371094 1105.714844 2194.222656 1093.984375 2191.660156 1089.980469 C 2190.394531 1087.972656 2189.34375 1088.074219 2187.148438 1087.210938 Z M 3140.570312 1114.988281 C 3146.066406 1107.078125 3147.53125 1091.070312 3149.632812 1081.335938 C 3154.609375 1058.65625 3165.101562 1048.183594 3162.046875 1019.855469 C 3161.378906 1013.566406 3158.96875 1001.070312 3151.433594 999.625 C 3139.6875 998.566406 3144.507812 1014.015625 3143.804688 1017.253906 C 3144.144531 1020.40625 3143.316406 1022.597656 3142.492188 1024.792969 C 3137.34375 1035.84375 3139.75 1048.335938 3139.933594 1059.96875 L 3137.703125 1098.300781 Z M 2971.007812 934.257812 C 2971.21875 936.351562 2972.378906 937.3125 2973.660156 939.3125 C 2974.820312 940.273438 2975.984375 941.226562 2977.140625 942.183594 C 2983.878906 945.8125 2987.394531 939.148438 2984.824219 935.132812 C 2983.582031 933.128906 2979.273438 932.457031 2977.171875 932.648438 C 2975.09375 932.835938 2972.992188 933.023438 2971.007812 934.257812 Z M 3127.640625 915.964844 C 3128.648438 925.410156 3132.433594 940.960938 3136.488281 949.066406 L 3145.730469 966.242188 L 3156.652344 999.15625 C 3162.265625 992.296875 3159.28125 984.089844 3157.445312 976.84375 C 3152.722656 962.441406 3145.914062 948.222656 3140.246094 934.96875 C 3136.308594 927.90625 3133.441406 920.742188 3127.640625 915.964844 Z M 3069.761719 898.921875 L 3068.914062 910.644531 L 3054.601562 905.570312 C 3054.363281 913.015625 3057.6875 924.367188 3063.605469 930.183594 L 3075.101562 938.6875 C 3084.375 946.332031 3093.777344 955.023438 3102.105469 963.800781 C 3109.429688 972.683594 3109.761719 975.832031 3112.296875 979.835938 C 3114.617188 981.738281 3116.933594 983.65625 3119.957031 982.324219 C 3121.9375 981.085938 3122.425781 975.75 3123.246094 973.550781 L 3126.757812 966.882812 C 3128.285156 961.457031 3124.253906 953.347656 3121.601562 948.285156 L 3114.671875 933.023438 C 3111.773438 925.867188 3110.035156 919.667969 3105.183594 913.75 C 3096.949219 906.015625 3090.667969 906.578125 3081.96875 904.175781 L 3069.765625 898.921875 Z M 2778.464844 913.402344 C 2777.847656 917.699219 2777.488281 924.089844 2772.363281 925.605469 C 2771.324219 925.699219 2767.023438 925.027344 2765.859375 924.066406 L 2761.867188 936.082031 C 2760.09375 939.410156 2756.800781 948.183594 2757.167969 951.335938 C 2756.679688 956.664062 2764 956.007812 2767.726562 951.441406 C 2771.597656 947.917969 2772.085938 942.578125 2774.769531 938.101562 C 2779.101562 929.238281 2787.125 925.335938 2788.101562 914.664062 Z M 3102.988281 873.691406 C 3106.105469 882.949219 3108.292969 883.8125 3113.394531 891.828125 C 3116.046875 896.886719 3115.347656 900.125 3121.503906 898.515625 C 3117.820312 893.550781 3107.539062 876.464844 3102.988281 873.691406 Z M 2663.933594 930.03125 C 2652.1875 928.972656 2659.9375 942.042969 2658.410156 947.472656 C 2655.847656 953.003906 2644.074219 961.476562 2638.367188 957.746094 C 2635.347656 959.082031 2632.203125 959.367188 2628.941406 958.59375 C 2625.707031 957.820312 2623.386719 955.917969 2620.246094 956.199219 L 2603.558594 968.289062 C 2600.628906 970.667969 2596.691406 973.140625 2592.484375 973.511719 C 2589.371094 973.796875 2585.164062 974.167969 2583.300781 976.464844 C 2580.371094 978.835938 2583.148438 984.945312 2584.550781 987.996094 L 2589.523438 994.964844 C 2579.273438 998 2580.066406 1005.339844 2581.074219 1014.789062 C 2581.652344 1020.03125 2583.667969 1038.914062 2585.164062 1043.015625 C 2586.777344 1048.171875 2593.640625 1052.847656 2599.074219 1054.46875 C 2602.460938 1056.296875 2607.796875 1056.867188 2610.9375 1056.59375 L 2611.671875 1043.8125 L 2614.816406 1043.535156 L 2618.046875 1053.839844 C 2619.085938 1053.738281 2621.191406 1053.558594 2622.230469 1053.457031 L 2635.253906 1056.53125 C 2636.417969 1057.484375 2636.417969 1057.484375 2637.574219 1058.4375 C 2638.949219 1061.488281 2636.386719 1067.019531 2636.71875 1070.167969 C 2638.550781 1077.414062 2646.117188 1078.855469 2652.402344 1078.289062 C 2652.25 1086.773438 2653.070312 1084.585938 2652.582031 1089.921875 C 2653.160156 1095.167969 2650.019531 1095.453125 2656.488281 1106.519531 C 2657.773438 1108.519531 2660.425781 1113.582031 2663.566406 1113.296875 C 2666.707031 1113.019531 2673.238281 1105.015625 2680.226562 1101.210938 C 2681.839844 1106.359375 2681.960938 1107.414062 2686.476562 1110.1875 L 2684.953125 1115.617188 L 2696.851562 1108.195312 C 2693.3125 1124.398438 2686.570312 1120.765625 2679.21875 1130.957031 C 2676.625 1136.492188 2678.242188 1141.640625 2676.714844 1147.070312 L 2677.875 1148.023438 L 2681.839844 1145.554688 L 2684.863281 1144.226562 C 2694.164062 1142.324219 2686.9375 1153.566406 2687.152344 1155.664062 C 2687.484375 1158.816406 2689.714844 1159.667969 2691.910156 1160.539062 L 2686.996094 1164.148438 L 2689.894531 1171.308594 L 2671.042969 1173.003906 C 2661.734375 1174.894531 2654.015625 1181.941406 2646.207031 1187.9375 L 2646.449219 1190.035156 L 2649.6875 1190.800781 L 2631.625 1199.839844 C 2637.085938 1201.457031 2644.195312 1198.710938 2649.441406 1198.238281 C 2654.566406 1196.714844 2653.621094 1197.871094 2659.816406 1196.242188 L 2663.167969 1198.074219 L 2662.558594 1202.359375 L 2685.5625 1209.820312 C 2691.023438 1211.449219 2694.992188 1208.976562 2698.378906 1210.796875 C 2702.890625 1213.570312 2701.363281 1219 2708.929688 1220.433594 C 2717.628906 1222.828125 2724.523438 1217.980469 2731.722656 1216.273438 L 2723.210938 1225.515625 L 2727.144531 1232.578125 L 2737.398438 1229.542969 C 2729.800781 1237.625 2730.164062 1231.25 2715.519531 1232.5625 C 2718.878906 1234.375 2728.855469 1238.769531 2731.082031 1239.640625 C 2736.542969 1241.273438 2739.441406 1238.875 2747.128906 1241.378906 C 2753.628906 1242.902344 2761.527344 1247.496094 2763.632812 1237.761719 C 2764.914062 1239.777344 2766.199219 1241.777344 2767.355469 1242.738281 C 2770.714844 1244.550781 2772.820312 1244.367188 2776.085938 1245.128906 C 2780.382812 1245.804688 2790.570312 1252.296875 2790.117188 1257.640625 C 2789.171875 1258.78125 2788.226562 1259.929688 2787.3125 1261.074219 C 2785.902344 1258.007812 2784.535156 1254.972656 2782.09375 1252.011719 C 2776.085938 1245.128906 2766.867188 1248.074219 2759.304688 1246.625 L 2744.078125 1242.707031 L 2732.335938 1241.640625 C 2725.957031 1241.152344 2722.355469 1237.246094 2716.074219 1237.808594 C 2713.964844 1237.996094 2710.949219 1239.320312 2711.191406 1241.421875 C 2711.402344 1243.511719 2713.722656 1245.4375 2714.882812 1246.382812 C 2721.625 1250.011719 2719.183594 1247.050781 2729.40625 1253.550781 C 2735.078125 1257.273438 2737.0625 1256.039062 2742.523438 1257.667969 L 2748.105469 1260.351562 C 2752.40625 1261.027344 2753.230469 1258.828125 2757.53125 1259.5 C 2759.605469 1259.316406 2763.910156 1259.988281 2766.132812 1260.855469 L 2747.953125 1268.835938 L 2734.011719 1266.914062 C 2736.785156 1273.015625 2737.949219 1273.976562 2733.277344 1279.679688 L 2730.714844 1275.6875 C 2727.910156 1279.101562 2728.152344 1281.207031 2725.347656 1284.636719 L 2720.679688 1290.34375 C 2719.855469 1292.542969 2717.046875 1295.972656 2714.941406 1296.15625 C 2711.800781 1296.445312 2708.230469 1292.527344 2705.878906 1290.621094 C 2701.367188 1287.839844 2699.261719 1288.027344 2694.136719 1289.550781 C 2697.980469 1295.5625 2699.964844 1294.324219 2705.515625 1296.992188 C 2710.0625 1299.769531 2721.65625 1309.320312 2725.257812 1313.238281 C 2724.1875 1313.332031 2723.148438 1313.425781 2722.328125 1315.621094 C 2720.464844 1317.910156 2722.507812 1327.257812 2724.949219 1330.203125 C 2727.269531 1332.121094 2729.496094 1332.976562 2732.605469 1332.707031 L 2720.132812 1344.421875 C 2725.589844 1346.035156 2727.574219 1344.800781 2732.210938 1348.628906 L 2721.746094 1349.558594 L 2707.925781 1339.15625 L 2693.527344 1333.023438 C 2698.898438 1333.601562 2707.378906 1333.910156 2712.378906 1331.332031 C 2721.351562 1326.296875 2717.082031 1316.09375 2710.125 1310.359375 C 2705.609375 1307.578125 2702.464844 1307.871094 2697.125 1307.292969 C 2692.824219 1306.617188 2686.207031 1304.027344 2681.992188 1304.40625 L 2670.585938 1306.496094 L 2671.316406 1303.25 C 2668.050781 1302.484375 2666.894531 1301.523438 2663.964844 1303.90625 C 2660.484375 1301.035156 2660.394531 1300 2656.089844 1299.328125 L 2656.640625 1304.558594 L 2651.882812 1299.695312 L 2651.425781 1305.03125 C 2648.863281 1301.019531 2648.742188 1299.984375 2644.347656 1298.261719 L 2647.886719 1311.699219 L 2646.148438 1315.039062 C 2640.320312 1319.796875 2640.378906 1330.386719 2641.082031 1336.6875 C 2642.421875 1349.269531 2639.617188 1352.703125 2638.550781 1362.328125 C 2638.273438 1369.757812 2640.714844 1372.71875 2638.703125 1383.5 C 2638.125 1387.785156 2634.125 1399.792969 2632.355469 1403.136719 L 2627.6875 1408.839844 L 2624.179688 1415.503906 C 2622.410156 1418.84375 2619.511719 1421.222656 2617.746094 1424.566406 C 2616.09375 1428.941406 2618.414062 1430.863281 2619.695312 1432.863281 C 2621.433594 1439.054688 2617.011719 1437.332031 2624.300781 1446.222656 L 2620.578125 1450.785156 L 2624.757812 1450.402344 C 2622.410156 1458.03125 2627.167969 1462.914062 2634.367188 1461.203125 C 2639.492188 1459.675781 2645.105469 1452.828125 2646.632812 1447.382812 L 2648.738281 1447.199219 L 2662.832031 1470.292969 C 2665.273438 1473.253906 2665.851562 1478.5 2670.15625 1479.171875 C 2674.457031 1479.84375 2676.074219 1475.464844 2677.84375 1472.125 C 2679.707031 1469.835938 2681.6875 1468.601562 2683.546875 1466.3125 C 2686.140625 1460.792969 2681.046875 1452.769531 2681.535156 1447.425781 C 2682.113281 1443.144531 2685.042969 1440.761719 2685.53125 1435.425781 C 2684.742188 1428.085938 2679.277344 1426.453125 2675.679688 1422.53125 C 2672.074219 1418.628906 2671.652344 1414.433594 2671.070312 1409.1875 C 2669.820312 1397.636719 2675.769531 1393.933594 2676.867188 1384.308594 C 2677.234375 1377.917969 2673.632812 1374.011719 2673.175781 1369.804688 C 2672.839844 1366.65625 2673.539062 1363.425781 2676.6875 1363.136719 C 2683.914062 1361.425781 2684.796875 1369.832031 2685.378906 1375.066406 L 2684.402344 1385.742188 C 2683.824219 1390.042969 2682.054688 1393.371094 2682.632812 1398.613281 C 2684.128906 1402.71875 2686.570312 1405.679688 2687.941406 1408.730469 C 2690.382812 1411.6875 2690.71875 1414.847656 2693.039062 1416.753906 C 2695.234375 1417.609375 2696.390625 1418.554688 2698.5 1418.371094 C 2700.695312 1419.242188 2702.890625 1420.09375 2704.996094 1419.910156 C 2710.121094 1418.382812 2715.398438 1408.378906 2720.277344 1404.777344 C 2723.207031 1402.386719 2727.511719 1403.070312 2730.652344 1402.777344 C 2728.882812 1406.121094 2724.214844 1411.839844 2722.355469 1414.117188 C 2718.390625 1416.585938 2711.15625 1418.292969 2710.792969 1424.683594 C 2708.5625 1433.367188 2720.066406 1432.324219 2719.820312 1439.753906 C 2719.332031 1445.09375 2711.21875 1438.410156 2708.75 1444.984375 C 2705.242188 1451.652344 2709.878906 1455.484375 2711.492188 1460.636719 C 2711.832031 1463.78125 2710.089844 1467.105469 2709.359375 1470.355469 C 2704.933594 1478.164062 2701.214844 1473.207031 2695.261719 1476.914062 C 2690.257812 1479.492188 2684.765625 1487.394531 2679.640625 1488.921875 C 2675.585938 1490.339844 2672.074219 1487.46875 2668.933594 1487.742188 C 2664.753906 1488.125 2661.246094 1494.804688 2654.289062 1489.070312 C 2647.210938 1482.285156 2655.265625 1478.394531 2653.527344 1472.1875 L 2649.253906 1461.980469 C 2643.308594 1465.6875 2637.480469 1470.460938 2639.433594 1478.761719 C 2642.332031 1485.898438 2649.285156 1491.632812 2645.65625 1497.246094 C 2642.730469 1499.628906 2636.441406 1500.191406 2631.5625 1503.808594 C 2625.613281 1507.527344 2619.421875 1518.664062 2617.4375 1519.917969 C 2614.507812 1522.292969 2611.367188 1522.570312 2608.46875 1524.949219 L 2597.941406 1535.425781 C 2597.023438 1536.570312 2597.023438 1536.570312 2596.078125 1537.71875 L 2582.960938 1533.597656 L 2583.753906 1540.933594 C 2578.507812 1541.40625 2578.507812 1541.40625 2574.203125 1540.738281 C 2570.972656 1539.957031 2564.5625 1539.484375 2562.917969 1543.863281 C 2561.144531 1547.203125 2569.871094 1549.597656 2572.101562 1550.453125 C 2585.429688 1556.675781 2588.054688 1571.261719 2582.351562 1577.085938 C 2578.507812 1580.59375 2571.886719 1578.015625 2567.585938 1577.347656 C 2557.914062 1576.09375 2542.691406 1572.15625 2533.171875 1571.960938 C 2520.597656 1573.074219 2524.628906 1581.1875 2522.191406 1587.765625 C 2521.574219 1592.066406 2517.609375 1594.535156 2516.910156 1597.773438 C 2515.960938 1598.914062 2516.085938 1599.96875 2516.207031 1601.019531 C 2516.085938 1599.96875 2519.652344 1613.417969 2519.53125 1612.367188 C 2521.027344 1616.46875 2528.382812 1615.816406 2532.683594 1616.484375 C 2538.113281 1618.105469 2539.519531 1621.171875 2544.03125 1623.945312 C 2548.453125 1625.652344 2550.4375 1624.417969 2554.523438 1623 C 2563.925781 1622.148438 2572.894531 1626.644531 2586.867188 1619.03125 C 2589.886719 1617.707031 2592.816406 1615.328125 2593.636719 1613.132812 C 2596.445312 1609.714844 2595.042969 1606.648438 2598.886719 1603.125 C 2603.675781 1598.457031 2612.980469 1596.5625 2617.890625 1592.949219 C 2621.738281 1589.425781 2618.960938 1583.324219 2626.066406 1580.566406 C 2631.195312 1579.054688 2636.871094 1582.777344 2643.980469 1580.015625 C 2650.140625 1578.398438 2656.792969 1571.457031 2662.984375 1569.84375 C 2669.269531 1569.277344 2673.171875 1576.339844 2681.898438 1578.734375 L 2716.527344 1586.207031 C 2717.59375 1586.117188 2719.789062 1586.988281 2720.953125 1587.949219 C 2730.226562 1595.578125 2716.863281 1598.898438 2711.734375 1600.425781 C 2707.648438 1601.84375 2706.609375 1601.933594 2702.402344 1602.316406 C 2703.589844 1603.265625 2703.683594 1604.316406 2704.84375 1605.273438 C 2709.269531 1607 2719.941406 1608.160156 2723.816406 1604.632812 C 2725.679688 1602.347656 2725.464844 1600.242188 2725.132812 1597.097656 C 2729.1875 1595.683594 2731.171875 1594.445312 2732.820312 1590.054688 C 2732.480469 1586.910156 2731.082031 1583.859375 2734.007812 1581.480469 C 2735.871094 1579.191406 2740.046875 1578.808594 2743.21875 1578.519531 C 2738.339844 1572.617188 2734.375 1575.085938 2727.964844 1574.597656 C 2724.734375 1573.839844 2723.453125 1571.824219 2720.1875 1571.0625 C 2717.046875 1571.351562 2714.148438 1573.730469 2709.726562 1572.007812 C 2706.460938 1571.226562 2702.980469 1568.363281 2699.75 1567.597656 C 2696.359375 1565.785156 2687.757812 1564.441406 2688.246094 1559.101562 C 2689.070312 1556.902344 2690.015625 1555.761719 2692.089844 1555.578125 C 2693.039062 1554.433594 2694.074219 1554.339844 2695.140625 1554.234375 L 2696.636719 1558.355469 C 2707.804688 1554.175781 2704.167969 1559.789062 2713.84375 1561.039062 C 2722.539062 1563.433594 2732.789062 1560.398438 2741.632812 1563.847656 C 2747.097656 1565.460938 2745.328125 1568.804688 2750.085938 1573.667969 C 2755.886719 1578.460938 2764.152344 1576.644531 2771.46875 1575.988281 C 2770.554688 1577.132812 2769.492188 1577.238281 2769.613281 1578.273438 C 2767.839844 1581.617188 2770.164062 1583.523438 2772.390625 1584.375 C 2780.257812 1588.96875 2791.949219 1579.453125 2781.941406 1575.058594 L 2798.019531 1567.265625 C 2790.238281 1563.726562 2786.390625 1567.25 2776.167969 1560.75 C 2781.421875 1560.277344 2782.453125 1560.1875 2786.300781 1556.660156 L 2786.910156 1552.359375 L 2803.929688 1543.421875 C 2798.539062 1552.375 2804.609375 1549.71875 2806.648438 1559.074219 C 2811.898438 1558.601562 2818.394531 1560.125 2823.644531 1559.667969 C 2827.730469 1558.234375 2838.894531 1554.054688 2841.824219 1551.671875 C 2844.722656 1549.292969 2845.453125 1546.058594 2848.351562 1543.679688 L 2860.46875 1538.355469 C 2865.382812 1534.742188 2869.105469 1530.167969 2872.851562 1525.589844 C 2874.710938 1523.300781 2876.578125 1521.015625 2879.84375 1521.789062 C 2884.238281 1523.515625 2885.363281 1534.007812 2885.820312 1538.207031 C 2887.222656 1541.257812 2888.71875 1545.34375 2889.054688 1548.5 C 2888.410156 1562.320312 2873.890625 1564.6875 2865.136719 1571.824219 C 2859.3125 1576.582031 2854.855469 1584.390625 2848.785156 1587.0625 C 2840.972656 1593.054688 2818.605469 1601.417969 2808.355469 1604.453125 L 2786.601562 1608.523438 C 2781.605469 1611.101562 2775.777344 1615.859375 2774.132812 1620.238281 C 2772.480469 1624.628906 2775.132812 1629.679688 2770.132812 1632.242188 C 2765.125 1634.824219 2744.292969 1637.734375 2738.949219 1637.171875 C 2730.347656 1635.8125 2733.246094 1633.433594 2720.675781 1634.5625 C 2709.175781 1635.601562 2696.726562 1637.78125 2684.863281 1635.660156 C 2686.71875 1633.375 2690.476562 1628.796875 2691.175781 1625.5625 C 2692 1623.367188 2690.839844 1622.40625 2690.597656 1620.316406 C 2690.503906 1619.277344 2690.257812 1617.175781 2689.101562 1616.214844 C 2686.660156 1613.253906 2678.300781 1614.003906 2675.160156 1614.289062 C 2667.925781 1616 2669.210938 1618 2657.707031 1619.035156 L 2619.054688 1623.5625 C 2600.230469 1625.246094 2585.1875 1632.960938 2577.867188 1633.617188 C 2572.617188 1634.089844 2560.871094 1633.023438 2555.410156 1631.390625 C 2550.992188 1629.667969 2546.351562 1625.839844 2541.347656 1628.417969 C 2536.21875 1629.941406 2534.574219 1634.320312 2528.535156 1636.972656 C 2522.460938 1639.644531 2510.964844 1640.679688 2504.066406 1645.53125 C 2497.199219 1650.382812 2500.785156 1654.300781 2492.75 1658.191406 C 2488.675781 1659.625 2474.960938 1659.792969 2469.714844 1660.265625 C 2458.089844 1660.253906 2452.261719 1665.011719 2442.121094 1669.097656 L 2430.9375 1673.277344 C 2426.867188 1674.695312 2418.597656 1676.5 2416.84375 1679.835938 C 2415.089844 1683.164062 2417.636719 1687.175781 2417.972656 1690.332031 C 2418.308594 1693.472656 2417.605469 1696.707031 2416.886719 1699.957031 C 2411.410156 1707.859375 2397.304688 1714.417969 2399.605469 1725.875 C 2401.4375 1733.121094 2405.738281 1733.789062 2413.851562 1740.46875 C 2424.515625 1751.164062 2432.492188 1766.339844 2443.980469 1774.839844 C 2458.824219 1785.164062 2480.300781 1798.070312 2498.664062 1801.714844 L 2530.546875 1803.085938 C 2547.632812 1804.722656 2560.753906 1808.855469 2578.691406 1808.292969 L 2618.109375 1801.578125 C 2626.496094 1800.832031 2638.945312 1798.652344 2647.667969 1801.042969 C 2656.394531 1803.4375 2658.105469 1809.644531 2673.816406 1808.230469 L 2695.691406 1805.210938 C 2700.816406 1803.699219 2704.902344 1802.265625 2710.457031 1804.949219 C 2723.941406 1812.210938 2701.09375 1825.90625 2711.523438 1834.511719 C 2717.324219 1839.289062 2736.507812 1840.738281 2744.199219 1843.21875 C 2749.539062 1843.804688 2766.375 1852.878906 2769.984375 1856.796875 C 2772.296875 1858.703125 2772.511719 1860.808594 2774.949219 1863.769531 C 2777.359375 1866.730469 2782.855469 1868.347656 2783.1875 1871.503906 C 2783.523438 1874.644531 2776.753906 1880.550781 2774.886719 1882.835938 C 2769.15625 1888.648438 2758.050781 1903.414062 2764.304688 1912.382812 C 2766.746094 1915.339844 2773.367188 1917.917969 2776.753906 1919.734375 L 2807.292969 1928.640625 C 2820.527344 1933.816406 2821.660156 1944.308594 2829.683594 1949.9375 C 2835.359375 1953.675781 2844.785156 1952.820312 2852.234375 1953.21875 L 2883.71875 1960.980469 C 2894.671875 1964.246094 2890.09375 1971.003906 2898.691406 1972.34375 C 2916.847656 1973.902344 2944.710938 1957.625 2959.503906 1947.832031 L 2989.558594 1932.425781 C 3001.578125 1926.054688 3012.40625 1918.714844 3023.238281 1911.394531 C 3043.773438 1895.789062 3060.582031 1875.210938 3070.769531 1852.054688 C 3074.28125 1845.390625 3084.222656 1829.660156 3084.839844 1825.375 C 3086.238281 1818.894531 3079.492188 1815.261719 3082.089844 1809.742188 C 3085.476562 1802.007812 3099.144531 1791.25 3102.410156 1782.496094 C 3105.125 1778.011719 3104.332031 1770.675781 3099.78125 1767.898438 C 3095.386719 1766.175781 3092.457031 1768.554688 3083.734375 1766.160156 C 3090.324219 1748.632812 3102.253906 1731.667969 3112.171875 1715.941406 C 3116.746094 1709.1875 3124.917969 1696.800781 3125.078125 1688.320312 C 3125.109375 1678.785156 3116.589844 1678.480469 3113.023438 1674.574219 C 3109.542969 1671.707031 3110.339844 1669.511719 3108.140625 1668.640625 C 3103.75 1666.933594 3096.734375 1670.730469 3092.433594 1670.058594 C 3089.285156 1670.335938 3086.972656 1668.429688 3084.773438 1667.574219 C 3081.390625 1665.761719 3077.324219 1667.175781 3074.183594 1667.453125 C 3069.460938 1653.054688 3079.308594 1626.753906 3084.136719 1612.554688 C 3093.527344 1582.058594 3106.101562 1551.265625 3101.550781 1518.84375 L 3096.734375 1493.859375 C 3095.363281 1490.792969 3092.828125 1486.796875 3088.742188 1488.214844 C 3082.578125 1489.832031 3077.144531 1508.320312 3074.585938 1513.839844 L 3060.429688 1539.480469 C 3056.800781 1545.09375 3054.445312 1552.722656 3049.660156 1557.390625 C 3045.808594 1560.917969 3039.738281 1563.570312 3034.738281 1566.132812 C 3033.117188 1560.992188 3030.101562 1562.316406 3026.015625 1563.75 L 3007.035156 1573.925781 C 3003.074219 1576.398438 2995.265625 1582.394531 2990.011719 1582.867188 C 2985.832031 1583.25 2983.390625 1580.289062 2977.234375 1581.890625 C 2973.054688 1582.273438 2965.945312 1585.03125 2962.679688 1584.253906 C 2958.378906 1583.582031 2953.742188 1579.769531 2949.433594 1579.097656 C 2946.207031 1578.320312 2940.011719 1579.9375 2936.988281 1581.265625 C 2926.515625 1582.210938 2910.132812 1577.3125 2899.304688 1575.117188 C 2901.289062 1573.878906 2903.394531 1573.699219 2903.179688 1571.59375 C 2904.707031 1566.164062 2896.347656 1557.378906 2906.597656 1554.339844 C 2907.636719 1554.25 2909.738281 1554.050781 2910.777344 1553.960938 L 2928.679688 1553.410156 L 2939.066406 1551.425781 C 2944.402344 1552.007812 2945.804688 1555.058594 2953.125 1554.402344 L 2978.847656 1547.859375 C 2989.34375 1546.910156 2993.578125 1557.132812 3004.445312 1549.796875 C 3013.292969 1543.710938 3021.625 1522.828125 3024.796875 1513.019531 L 3033.945312 1489.953125 L 3037.488281 1473.753906 C 3041.480469 1461.734375 3045.109375 1456.121094 3043.644531 1442.484375 L 3041.511719 1422.546875 C 3040.597656 1414.15625 3038.886719 1407.949219 3030.253906 1416.140625 C 3023.574219 1423.097656 3021.222656 1430.722656 3010.546875 1429.566406 C 3007.710938 1442.53125 3009.507812 1459.308594 2996.570312 1466.832031 C 2991.65625 1470.445312 2986.203125 1468.8125 2981.105469 1470.339844 C 2978.050781 1471.664062 2974.085938 1474.152344 2971.886719 1473.285156 C 2968.746094 1473.554688 2966.429688 1471.648438 2966.09375 1468.507812 C 2966.675781 1464.222656 2973.785156 1461.460938 2976.832031 1460.132812 C 2986.964844 1456.046875 2992.089844 1454.519531 2999.5625 1445.382812 C 3004.105469 1438.609375 3004.59375 1433.269531 3008.222656 1427.65625 C 3011.945312 1423.082031 3015.214844 1423.84375 3018.9375 1419.28125 C 3021.742188 1415.851562 3026.898438 1404.792969 3029.582031 1400.320312 L 3042.390625 1362.097656 C 3048.585938 1350.945312 3058.964844 1348.960938 3061.679688 1334.945312 L 3063.296875 1340.101562 C 3074.371094 1334.867188 3074.277344 1324.285156 3072.113281 1313.894531 C 3078.394531 1313.328125 3091.179688 1314.292969 3096.308594 1312.78125 L 3120.066406 1297.941406 C 3126.019531 1294.214844 3135.8125 1286.984375 3137.214844 1280.5 C 3138.863281 1276.125 3132.058594 1261.910156 3129.617188 1258.949219 C 3128.367188 1256.949219 3127.210938 1255.988281 3124.980469 1255.136719 C 3119.515625 1253.507812 3112.320312 1255.214844 3108.386719 1248.148438 C 3103.503906 1242.230469 3098.101562 1221.535156 3094.078125 1213.417969 C 3085.410156 1191.957031 3084.835938 1196.242188 3080.773438 1188.132812 C 3078.121094 1183.078125 3078.609375 1177.738281 3078.027344 1172.488281 C 3076.539062 1168.394531 3074.097656 1165.4375 3073.886719 1163.328125 C 3073.421875 1159.136719 3076.347656 1156.757812 3079.160156 1153.332031 C 3083.585938 1145.511719 3082.90625 1139.222656 3087.703125 1134.554688 C 3091.542969 1131.03125 3094.929688 1132.855469 3096.667969 1129.515625 C 3103.109375 1120.46875 3087.550781 1113.390625 3092.796875 1103.386719 C 3095.480469 1098.90625 3103.078125 1090.816406 3108.320312 1090.339844 C 3112.382812 1088.921875 3115.769531 1090.730469 3119.824219 1089.3125 C 3123.792969 1086.832031 3124.066406 1079.394531 3125.714844 1075.011719 C 3129.800781 1064.050781 3136.207031 1064.539062 3137.765625 1049.578125 C 3138.253906 1044.234375 3138.5 1036.792969 3135.964844 1032.789062 C 3131.082031 1026.863281 3124.21875 1031.722656 3122.570312 1036.105469 C 3118.941406 1041.71875 3119.738281 1049.074219 3120.40625 1055.363281 C 3120.035156 1061.75 3118.847656 1070.328125 3115.21875 1075.949219 C 3110.792969 1083.765625 3101.730469 1078.222656 3099.171875 1074.21875 C 3097.921875 1072.210938 3098.746094 1070.023438 3098.503906 1067.917969 C 3098.652344 1059.429688 3096.210938 1056.480469 3098.347656 1046.753906 C 3098.929688 1042.460938 3102.921875 1030.453125 3101.675781 1028.449219 C 3101.304688 1025.300781 3091.695312 1014.523438 3089.285156 1011.554688 C 3084.527344 1006.691406 3075.957031 995.804688 3068.027344 1000.757812 C 3061.035156 1004.554688 3062.5 1018.199219 3061.191406 1025.726562 C 3060.484375 1028.964844 3059.050781 1035.449219 3055.910156 1035.734375 C 3053.957031 1036.96875 3050.453125 1034.097656 3048.164062 1032.195312 C 3042.242188 1026.367188 3038.644531 1022.457031 3037.636719 1013.011719 C 3040.871094 1013.773438 3049.59375 1016.175781 3050.203125 1011.882812 C 3049.746094 1007.691406 3044.777344 1000.71875 3040.566406 1001.101562 C 3036.265625 1000.425781 3035.683594 1004.714844 3029.976562 1000.992188 C 3025.335938 997.171875 3015.054688 980.085938 3010.175781 974.167969 C 3004.050781 966.242188 2994.890625 959.652344 2985.925781 955.160156 C 2980.492188 953.539062 2962.824219 946.644531 2957.917969 950.265625 C 2955.933594 951.5 2956.265625 954.640625 2955.449219 956.832031 C 2954.289062 955.886719 2953.125 954.925781 2951.054688 955.109375 C 2943.488281 953.671875 2941.261719 962.34375 2940.773438 967.6875 C 2940.984375 969.78125 2941.441406 973.984375 2938.417969 975.3125 C 2935.371094 976.640625 2933.046875 974.734375 2930.726562 972.820312 C 2925.050781 969.097656 2924.929688 968.046875 2917.269531 965.558594 C 2918.765625 969.660156 2920.261719 973.765625 2922.796875 977.769531 C 2928.953125 985.691406 2933.136719 985.3125 2932.160156 996 C 2923.339844 992.550781 2913.367188 988.15625 2907.328125 981.277344 L 2915.476562 978.425781 L 2915.253906 976.335938 C 2911.902344 974.511719 2900.398438 966.015625 2899.941406 961.820312 C 2899.605469 958.671875 2903.785156 958.289062 2903.453125 955.144531 C 2904.1875 951.90625 2900.800781 950.089844 2902.445312 945.707031 C 2905.25 942.273438 2911.320312 939.613281 2910.863281 935.414062 C 2910.617188 933.316406 2908.304688 931.410156 2906.109375 930.550781 C 2901.589844 927.773438 2893.566406 922.144531 2888.777344 926.804688 C 2884.9375 930.328125 2887.835938 937.480469 2885.699219 947.207031 C 2882.433594 946.445312 2876.851562 943.761719 2873.617188 942.996094 C 2869.316406 942.324219 2864.308594 944.886719 2858.726562 942.21875 C 2851.042969 939.726562 2848.296875 933.617188 2841.675781 931.03125 C 2829.472656 925.773438 2819.21875 928.816406 2807.8125 930.898438 C 2802.589844 931.363281 2794.199219 932.121094 2789.199219 934.683594 C 2785.230469 937.164062 2783.460938 940.492188 2781.71875 943.828125 C 2777.058594 949.546875 2767.839844 952.484375 2768.761719 960.875 C 2770.585938 968.128906 2776.996094 968.617188 2779.3125 970.511719 L 2785.996094 983.691406 C 2778.792969 985.394531 2775.40625 983.585938 2769.15625 984.144531 L 2744.351562 989.542969 C 2731.660156 989.628906 2727.722656 982.566406 2719.945312 979.027344 C 2715.550781 977.304688 2712.410156 977.582031 2709.023438 975.769531 C 2705.542969 972.910156 2705.210938 969.761719 2704.046875 968.796875 C 2701.605469 965.847656 2690.929688 964.679688 2687.789062 964.964844 C 2688.003906 967.070312 2688.125 968.113281 2686.261719 970.390625 C 2684.496094 973.734375 2675.523438 978.777344 2671.34375 979.148438 C 2669.363281 980.386719 2666.09375 979.621094 2663.898438 978.761719 L 2664.480469 974.464844 C 2664.96875 969.136719 2661.824219 969.414062 2657.769531 970.835938 C 2651.574219 972.449219 2647.851562 977.019531 2642.941406 980.636719 C 2644.710938 977.304688 2646.359375 972.917969 2649.164062 969.492188 C 2653.011719 965.96875 2658.136719 964.445312 2663.140625 961.878906 L 2678.972656 951.988281 C 2682.9375 949.515625 2689.011719 946.847656 2691.90625 944.46875 C 2700.664062 937.328125 2702.492188 914.929688 2700.207031 903.484375 C 2684.007812 910.222656 2688.304688 910.894531 2677.355469 917.175781 C 2673.390625 919.648438 2671.285156 919.84375 2668.265625 921.167969 C 2665.363281 923.554688 2664.632812 926.796875 2663.929688 930.03125 Z M 2775.046875 891.46875 L 2785.359375 899.019531 L 2793.222656 913.136719 C 2799.269531 910.472656 2800.089844 908.285156 2804.183594 906.859375 C 2806.160156 905.625 2819.191406 908.691406 2816.167969 900.492188 C 2815.007812 899.53125 2813.851562 898.578125 2812.695312 897.625 L 2811.992188 900.867188 C 2808.515625 898 2803.878906 894.175781 2799.453125 892.453125 C 2795.027344 890.738281 2780.257812 891.003906 2775.046875 891.46875 Z M 2810.5 896.761719 C 2825.140625 895.453125 2822.609375 891.4375 2831 890.6875 C 2835.054688 889.257812 2841.550781 890.800781 2845.855469 891.46875 L 2845.273438 895.753906 C 2854.09375 899.203125 2853.539062 893.957031 2860.042969 895.488281 C 2866.664062 898.074219 2870.71875 906.191406 2881.640625 909.4375 C 2886.03125 911.171875 2888.261719 912.023438 2892.230469 909.550781 C 2894.757812 913.5625 2895.828125 913.472656 2900.007812 913.089844 C 2900.496094 907.753906 2903.511719 906.417969 2902.109375 903.367188 C 2900.742188 900.308594 2889.695312 896.007812 2888.75 906.691406 C 2885.027344 901.71875 2887.007812 900.484375 2885.640625 897.4375 C 2881.914062 892.46875 2874.476562 892.078125 2869.34375 893.597656 C 2867.175781 883.199219 2868.554688 886.25 2854.058594 879.082031 C 2849.515625 876.3125 2839.542969 871.910156 2834.171875 871.332031 C 2827.796875 870.84375 2826.148438 875.230469 2821.144531 877.800781 C 2818.339844 881.234375 2815.074219 880.460938 2812.175781 882.84375 C 2809.363281 886.265625 2810.042969 892.566406 2810.496094 896.761719 Z M 3031.746094 850.425781 L 3044.988281 865.132812 C 3049.964844 872.097656 3054.933594 879.070312 3060.855469 884.886719 C 3065.492188 888.710938 3072.113281 891.296875 3078.277344 889.6875 C 3082.363281 888.257812 3094.714844 875.5 3084.621094 870.046875 C 3081.261719 868.234375 3076.230469 870.804688 3073.121094 871.082031 C 3073.363281 863.644531 3072.90625 859.449219 3071.074219 852.199219 C 3070.859375 850.101562 3070.402344 845.910156 3066.308594 847.332031 C 3061.308594 849.902344 3067.199219 865.253906 3059.292969 860.671875 L 3055.941406 858.855469 L 3052.460938 855.988281 C 3048.714844 860.554688 3053.128906 862.28125 3056.734375 866.191406 C 3061.375 870.023438 3064.941406 873.9375 3065.640625 880.226562 C 3054.265625 872.765625 3053.59375 866.484375 3046.273438 857.605469 C 3041.539062 852.734375 3038.0625 849.863281 3031.746094 850.425781 Z M 3077.175781 840.003906 C 3080.039062 847.15625 3091.265625 863.097656 3098.960938 865.582031 C 3093.738281 856.519531 3087.03125 843.347656 3077.175781 840.003906 Z M 2302.011719 916.964844 C 2305.152344 916.6875 2309.347656 916.308594 2311.4375 916.117188 L 2338.742188 924.261719 C 2346.308594 925.699219 2353.753906 926.09375 2358.726562 933.058594 C 2345.117188 934.285156 2348.019531 931.902344 2337.214844 929.695312 C 2327.574219 928.445312 2324.644531 930.824219 2317.203125 930.429688 C 2312.898438 929.753906 2310.703125 928.898438 2307.441406 928.132812 L 2279.402344 932.761719 C 2271.960938 932.371094 2270.34375 927.222656 2265.917969 925.5 C 2261.402344 922.722656 2257.316406 924.148438 2253.347656 926.628906 C 2246.269531 929.386719 2239.378906 934.234375 2232.496094 939.09375 C 2219.667969 947.648438 2204.875 957.457031 2195.640625 969.933594 C 2189.222656 978.980469 2190.824219 984.136719 2184.398438 993.183594 C 2177.871094 1001.183594 2162.832031 1008.886719 2152.671875 1022.515625 C 2145.304688 1032.707031 2145.972656 1038.996094 2143.183594 1042.429688 C 2141.304688 1044.707031 2128.371094 1052.230469 2125.335938 1053.558594 C 2122.316406 1054.882812 2119.171875 1055.167969 2117.191406 1056.410156 C 2114.277344 1058.789062 2112.519531 1062.125 2110.753906 1065.460938 L 2100.382812 1076.980469 C 2097.695312 1081.457031 2086.804688 1098.320312 2086.210938 1102.613281 C 2085.949219 1110.050781 2097.941406 1113.214844 2091.609375 1123.3125 C 2090.675781 1124.449219 2089.75 1125.597656 2088.816406 1126.746094 C 2081.9375 1131.59375 2080.09375 1124.34375 2074.753906 1123.765625 C 2068.238281 1122.230469 2058.554688 1130.511719 2052.757812 1125.738281 C 2049.160156 1121.824219 2050.699219 1116.394531 2050.257812 1112.195312 C 2048.640625 1107.046875 2046.320312 1105.136719 2044.824219 1101.035156 C 2042.15625 1095.96875 2044.277344 1086.246094 2036.859375 1076.324219 C 2033.050781 1070.316406 2028.640625 1068.589844 2025.242188 1076.320312 L 2022.769531 1082.886719 C 2018.621094 1073.734375 2020.964844 1066.105469 2013.398438 1064.65625 C 2003.761719 1063.410156 2000.816406 1075.328125 1995.203125 1082.179688 C 1981.199219 1099.328125 1978.867188 1097.417969 1968.140625 1105.789062 L 1953.910156 1120.835938 L 1945.035156 1126.929688 C 1940.257812 1131.59375 1937.085938 1141.414062 1934.628906 1147.988281 L 1924.363281 1190.21875 C 1922.121094 1198.882812 1918.351562 1213.007812 1909.15625 1215.933594 C 1906.132812 1217.261719 1896.585938 1217.0625 1893.335938 1216.300781 C 1889.964844 1214.484375 1887.539062 1211.527344 1884.289062 1210.75 C 1881.148438 1211.042969 1872.757812 1211.785156 1864.980469 1208.246094 C 1860.34375 1204.4375 1854.210938 1196.503906 1849.785156 1194.792969 C 1845.375 1193.054688 1841.183594 1193.4375 1837.003906 1193.820312 C 1831.753906 1194.273438 1824.433594 1194.945312 1820.128906 1194.273438 C 1809.210938 1191.019531 1802.160156 1174.703125 1798.011719 1165.542969 C 1796.519531 1161.441406 1793.738281 1155.332031 1790.371094 1153.515625 C 1785.734375 1149.695312 1780.136719 1156.550781 1774.675781 1154.925781 C 1770.371094 1154.25 1760.851562 1144.519531 1755.289062 1141.832031 C 1754.125 1140.875 1750.632812 1138.019531 1748.664062 1139.253906 C 1746.574219 1139.4375 1745.964844 1143.738281 1745.15625 1145.917969 C 1745.003906 1154.410156 1747.339844 1156.316406 1752.1875 1162.238281 C 1753.347656 1163.1875 1756.949219 1167.109375 1754.019531 1169.488281 C 1749.136719 1173.101562 1742.089844 1156.789062 1736.601562 1164.695312 C 1735.773438 1166.894531 1735.894531 1167.941406 1734.953125 1169.074219 L 1732.859375 1169.265625 L 1727.796875 1151.71875 L 1727.019531 1144.371094 L 1719.972656 1128.058594 L 1711.339844 1136.246094 L 1709.277344 1126.898438 L 1706.394531 1119.746094 C 1704.777344 1114.597656 1700.601562 1114.96875 1696.632812 1117.4375 C 1688.824219 1123.441406 1683.421875 1132.398438 1678.539062 1136.011719 C 1672.59375 1139.726562 1668.0625 1136.953125 1663.992188 1138.375 C 1658.988281 1140.945312 1655.476562 1147.613281 1653.9375 1153.050781 L 1645.882812 1196.136719 C 1638.910156 1229.601562 1634.457031 1237.410156 1638.300781 1273.074219 L 1642.539062 1292.816406 L 1646.523438 1319.996094 L 1650.078125 1333.449219 L 1652.179688 1333.253906 C 1650.714844 1319.617188 1651.144531 1294.15625 1655.019531 1281.101562 C 1658.800781 1267.003906 1664.84375 1264.335938 1665.148438 1247.359375 L 1667.652344 1260.917969 C 1673.371094 1255.089844 1672.925781 1250.894531 1680.953125 1247.007812 C 1683.621094 1252.054688 1684.78125 1253.019531 1686.503906 1259.226562 C 1688.121094 1264.363281 1688.5625 1268.558594 1691.230469 1273.625 C 1693.886719 1278.671875 1696.085938 1279.542969 1698.632812 1283.550781 C 1701.074219 1286.496094 1702.675781 1291.652344 1704.167969 1295.753906 C 1707.066406 1302.914062 1709.355469 1314.367188 1718.0625 1316.761719 C 1721.46875 1309.042969 1720.460938 1299.601562 1720.582031 1291.105469 C 1721.40625 1288.910156 1721.785156 1282.535156 1723.753906 1281.296875 C 1728.878906 1279.769531 1730.957031 1289.125 1731.289062 1292.265625 C 1734.28125 1300.472656 1736.460938 1310.875 1741.433594 1317.828125 C 1746.632812 1326.90625 1750.722656 1325.472656 1757.527344 1339.6875 L 1759.066406 1334.257812 C 1761.953125 1341.410156 1758.320312 1347.039062 1766.222656 1351.617188 C 1765.765625 1347.421875 1764.910156 1329.5 1766.648438 1326.15625 C 1767.476562 1323.960938 1770.617188 1323.6875 1772.722656 1323.503906 L 1777.605469 1359.074219 C 1778.042969 1363.269531 1779.648438 1368.429688 1782.085938 1371.386719 C 1788.003906 1377.214844 1794.886719 1372.347656 1797.539062 1377.410156 L 1801.671875 1396.097656 C 1805.226562 1409.550781 1810.1875 1426.058594 1815.707031 1438.261719 C 1819.871094 1447.425781 1825.410156 1459.644531 1832.488281 1466.417969 C 1834.925781 1469.378906 1838.515625 1473.300781 1842.582031 1471.863281 C 1846.675781 1470.445312 1845.054688 1465.289062 1845.757812 1462.058594 C 1846.367188 1457.769531 1848.335938 1456.535156 1849.050781 1453.285156 C 1849.539062 1447.945312 1847.800781 1441.738281 1850.484375 1437.269531 C 1849.082031 1443.753906 1851.28125 1444.605469 1851.964844 1450.90625 C 1852.867188 1459.292969 1854.925781 1468.648438 1857.929688 1476.839844 C 1862.417969 1489.164062 1865.753906 1500.496094 1873.277344 1511.480469 C 1878.265625 1518.453125 1889.753906 1526.945312 1896.707031 1532.683594 C 1906.226562 1542.414062 1915.605469 1551.109375 1927.09375 1559.605469 L 1940.792969 1568.972656 L 1952.167969 1576.433594 C 1962.269531 1581.875 1963.335938 1572.234375 1969.621094 1571.683594 C 1972.882812 1572.449219 1984.355469 1580.941406 1987.835938 1583.8125 C 2005.472656 1600.238281 1999.671875 1595.46875 2011.84375 1610.261719 L 2039.300781 1639.566406 C 2046.378906 1646.339844 2055.167969 1659.335938 2064.824219 1660.570312 L 2074.480469 1661.839844 C 2085.28125 1664.050781 2097.363281 1668.257812 2108.648438 1665.117188 C 2112.84375 1664.734375 2115.757812 1662.371094 2117.632812 1660.082031 C 2120.425781 1656.648438 2122.074219 1652.273438 2126.269531 1651.890625 C 2130.566406 1652.5625 2140.5625 1656.957031 2144.96875 1658.695312 C 2156.121094 1664.035156 2171.910156 1673.214844 2183.761719 1675.320312 C 2195.628906 1677.441406 2204.144531 1668.199219 2202.191406 1659.902344 C 2199.199219 1651.695312 2186.660156 1643.289062 2179.964844 1630.125 C 2173.480469 1619.0625 2168.996094 1606.753906 2161.578125 1596.824219 L 2144.558594 1576.109375 L 2134.367188 1560.074219 L 2129.394531 1553.109375 C 2128.117188 1551.109375 2126.285156 1543.859375 2125.945312 1540.703125 L 2114.292969 1511.035156 C 2108.984375 1500.921875 2098.488281 1501.867188 2091.6875 1487.652344 C 2096.550781 1493.566406 2105.84375 1501.210938 2112.449219 1503.792969 C 2109.460938 1495.582031 2102.761719 1482.421875 2097.773438 1475.449219 L 2087.113281 1464.757812 C 2092.90625 1469.527344 2097.546875 1473.359375 2105.109375 1474.792969 L 2107.339844 1466.109375 C 2110.632812 1457.339844 2113.652344 1456.015625 2113.578125 1445.429688 C 2112.707031 1427.507812 2096.15625 1401.449219 2093.792969 1379.425781 C 2092.769531 1369.984375 2094.890625 1360.265625 2095.972656 1350.644531 L 2096.265625 1333.664062 C 2095.925781 1330.519531 2097.789062 1328.214844 2098.398438 1323.945312 L 2098.203125 1312.308594 C 2099.617188 1305.824219 2100.441406 1303.628906 2099.773438 1297.328125 L 2094.707031 1279.785156 L 2094.402344 1267.09375 L 2092.589844 1250.316406 C 2091.230469 1237.730469 2098 1231.828125 2099.195312 1223.253906 C 2099.804688 1218.953125 2094.371094 1207.785156 2092.039062 1205.882812 C 2088.667969 1204.066406 2081.46875 1205.773438 2084.03125 1200.253906 C 2086.609375 1194.730469 2096.109375 1204.460938 2098.550781 1207.421875 C 2101.601562 1196.558594 2099.285156 1194.640625 2097.226562 1185.292969 L 2093.242188 1158.113281 C 2091.410156 1150.863281 2086.773438 1147.046875 2086.421875 1143.898438 C 2087.140625 1140.652344 2090.28125 1140.371094 2094.003906 1135.804688 C 2097.757812 1131.230469 2099.285156 1125.796875 2099.773438 1120.460938 L 2099.953125 1102.433594 C 2101.128906 1093.859375 2108.375 1082.617188 2117.589844 1079.671875 C 2126.894531 1077.78125 2136.398438 1087.511719 2141.628906 1087.046875 C 2146.875 1086.570312 2149.441406 1081.054688 2151.207031 1077.710938 L 2163.289062 1042.734375 L 2165.394531 1042.542969 C 2170.59375 1051.621094 2176.058594 1053.242188 2183.121094 1060.023438 L 2189.160156 1066.898438 C 2190.320312 1067.851562 2192.304688 1066.613281 2194.285156 1065.378906 C 2198.011719 1060.808594 2202.492188 1043.460938 2199.839844 1038.402344 C 2198.34375 1034.300781 2193.707031 1030.476562 2192.089844 1025.328125 C 2191.753906 1022.179688 2193.511719 1018.84375 2195.261719 1015.515625 C 2197.734375 1008.933594 2199.03125 1001.402344 2203.804688 996.738281 C 2213.265625 986.355469 2232.117188 984.660156 2243.601562 993.167969 C 2249.417969 997.941406 2248.683594 1001.179688 2251.125 1004.140625 C 2254.722656 1008.054688 2259.957031 1007.589844 2261.679688 1013.789062 C 2261.910156 1015.886719 2261.4375 1021.226562 2260.71875 1024.464844 C 2261.40625 1030.761719 2262.65625 1032.761719 2260.199219 1039.335938 C 2256.691406 1046.003906 2250.867188 1050.765625 2248.5 1058.390625 C 2245.222656 1067.160156 2250.574219 1067.742188 2249.265625 1075.269531 C 2246.914062 1082.898438 2241.195312 1088.710938 2238.84375 1096.335938 C 2236.144531 1100.8125 2236.601562 1105.007812 2231.722656 1108.625 C 2227.753906 1111.09375 2221.351562 1110.613281 2217.167969 1110.984375 C 2210.992188 1112.59375 2206.09375 1116.21875 2201.09375 1118.785156 C 2201.304688 1120.886719 2201.53125 1122.976562 2202.800781 1124.984375 C 2204.535156 1131.183594 2209.773438 1130.710938 2214.882812 1129.191406 C 2223.148438 1127.402344 2234.101562 1121.113281 2242.234375 1127.796875 C 2249.296875 1134.585938 2251.445312 1154.515625 2257.472656 1161.382812 C 2263.265625 1166.160156 2267.460938 1165.785156 2273.972656 1167.320312 C 2278.382812 1169.042969 2281.757812 1170.859375 2285.230469 1173.726562 C 2293.347656 1180.40625 2290.785156 1185.9375 2294.476562 1190.894531 C 2297.953125 1193.753906 2300.988281 1192.441406 2304.574219 1196.347656 L 2319.964844 1221.4375 L 2330.570312 1212.015625 C 2334.167969 1215.933594 2338.363281 1215.550781 2338.835938 1210.210938 C 2338.5 1207.070312 2336.792969 1200.878906 2335.386719 1197.8125 C 2342.464844 1204.597656 2343.03125 1209.847656 2343 1219.378906 C 2343.230469 1221.472656 2342.40625 1223.667969 2343.6875 1225.683594 C 2344.132812 1229.859375 2349.226562 1237.886719 2352.699219 1240.75 C 2357.230469 1243.511719 2360.25 1242.183594 2364.21875 1239.710938 C 2367.847656 1234.097656 2369.972656 1224.367188 2375.566406 1217.519531 C 2380.253906 1211.800781 2389.554688 1209.910156 2397.964844 1199.613281 C 2395.765625 1198.757812 2389.144531 1196.179688 2389.847656 1192.929688 C 2391.492188 1188.554688 2397.777344 1187.988281 2401.742188 1185.511719 C 2407.574219 1180.75 2412.027344 1172.933594 2413.324219 1165.410156 L 2400.523438 1164.433594 L 2392.972656 1162.996094 L 2382.492188 1163.941406 L 2372.183594 1156.390625 L 2357.296875 1155.605469 C 2359.859375 1150.082031 2361.625 1146.742188 2367.914062 1146.179688 C 2371.054688 1145.894531 2375.460938 1147.625 2377.445312 1146.390625 C 2381.515625 1144.957031 2381.058594 1140.761719 2383.988281 1138.382812 C 2389.585938 1131.527344 2397.839844 1129.726562 2399.046875 1121.144531 C 2407.648438 1122.488281 2409.527344 1120.207031 2413.8125 1120.878906 C 2422.640625 1124.320312 2425.390625 1139.960938 2429.433594 1148.074219 C 2418.507812 1144.820312 2420.566406 1154.164062 2420.308594 1161.601562 C 2424.277344 1159.128906 2428.945312 1153.417969 2433.015625 1151.988281 L 2446.746094 1151.8125 C 2449.886719 1151.53125 2450.816406 1150.394531 2453.855469 1149.058594 C 2461.066406 1147.359375 2465.824219 1152.222656 2469.640625 1158.234375 C 2473.609375 1155.761719 2473.382812 1153.660156 2470.828125 1149.652344 L 2476.066406 1149.179688 L 2473.074219 1140.984375 C 2467.84375 1141.449219 2466.664062 1140.496094 2465.140625 1145.925781 C 2460.625 1143.15625 2460.625 1143.15625 2455.273438 1142.574219 L 2459.128906 1139.058594 L 2458.886719 1136.953125 C 2449.949219 1132.464844 2460.203125 1129.429688 2461.726562 1123.992188 C 2462.441406 1120.75 2461.179688 1118.753906 2459.894531 1116.746094 L 2473.058594 1111.324219 C 2478.65625 1104.472656 2483.414062 1109.339844 2485.765625 1101.710938 C 2496.566406 1103.921875 2493.011719 1090.472656 2501.171875 1087.617188 C 2503.140625 1086.382812 2506.390625 1087.15625 2508.496094 1086.960938 C 2511.515625 1085.636719 2514.535156 1084.308594 2517.585938 1082.972656 C 2521.765625 1082.601562 2523.871094 1082.417969 2527.925781 1080.980469 C 2531.894531 1078.515625 2535.523438 1072.890625 2538.332031 1069.46875 C 2540.195312 1067.167969 2544.035156 1063.652344 2544.863281 1061.457031 C 2545.5625 1058.21875 2544.1875 1055.175781 2543.640625 1049.917969 C 2547.941406 1050.589844 2551.085938 1050.308594 2553.863281 1046.882812 C 2556.789062 1044.503906 2556.332031 1040.304688 2551.910156 1038.585938 C 2550.871094 1038.683594 2547.726562 1038.96875 2546.691406 1039.058594 L 2561.152344 1026.109375 L 2563.992188 1013.140625 L 2559.902344 1014.566406 L 2561.335938 1008.082031 L 2549.804688 1009.121094 C 2551.664062 1006.835938 2557.277344 999.976562 2559.140625 997.691406 C 2564.054688 994.074219 2569.390625 994.65625 2571.863281 988.070312 C 2561.519531 990.0625 2548.800781 999.671875 2542.269531 1007.671875 L 2532.078125 1021.292969 L 2532.691406 1017.007812 C 2522.441406 1020.050781 2523.109375 1026.34375 2519.140625 1028.816406 L 2517.160156 1030.046875 C 2520.300781 1029.769531 2499.253906 1030.597656 2502.515625 1031.371094 C 2497.164062 1030.789062 2491.363281 1026.015625 2486.726562 1022.1875 C 2483.234375 1019.324219 2480.824219 1016.367188 2476.859375 1018.84375 L 2457.242188 1003.660156 C 2459.101562 1001.375 2460.050781 1000.226562 2457.730469 998.316406 C 2455.410156 996.40625 2449.953125 994.777344 2445.421875 992.003906 C 2437.289062 985.324219 2437.667969 978.933594 2436.644531 969.492188 C 2435.765625 961.105469 2434.695312 961.195312 2431.828125 954.039062 C 2430.4375 950.980469 2430.210938 948.882812 2427.769531 945.925781 C 2425.34375 942.964844 2419.65625 939.242188 2416.175781 936.375 C 2411.539062 932.558594 2405.742188 927.78125 2400.390625 927.199219 C 2392.839844 925.765625 2387.007812 930.523438 2380.480469 928.984375 C 2375.023438 927.359375 2367.957031 920.582031 2361.339844 917.992188 C 2357.035156 917.320312 2351.804688 917.792969 2347.609375 918.167969 C 2347.378906 916.070312 2346.921875 911.875 2344.726562 911.015625 C 2341.367188 909.199219 2335.296875 911.859375 2331.117188 912.234375 C 2326.925781 912.609375 2325.535156 909.558594 2322.289062 908.785156 C 2319.035156 908.023438 2304.253906 908.289062 2302.382812 910.574219 C 2300.398438 911.8125 2301.800781 914.863281 2302.015625 916.960938 Z M 3050.390625 807.453125 C 3058.964844 818.332031 3074.28125 832.847656 3087.183594 834.871094 C 3083.371094 828.851562 3080.105469 828.089844 3075.46875 824.269531 C 3068.632812 819.585938 3057.015625 810.035156 3050.390625 807.453125 Z M 2966.554688 765.199219 L 2963.902344 760.140625 C 2968.324219 761.855469 2972.75 763.582031 2975.285156 767.59375 C 2976.65625 770.644531 2976.898438 772.742188 2977.238281 775.890625 C 2977.90625 782.183594 2988.921875 796.027344 2995.300781 796.503906 C 2997.519531 797.367188 2997.402344 796.324219 2999.503906 796.132812 L 2994.101562 775.433594 C 2991.664062 772.472656 2988.648438 773.808594 2985.050781 769.894531 L 2963.265625 744.308594 C 2961.980469 742.300781 2957.132812 736.382812 2957.832031 733.148438 C 2959.691406 730.859375 2964.941406 730.386719 2967.042969 730.207031 L 2947.09375 711.871094 C 2944.769531 709.957031 2941.171875 706.046875 2937.085938 707.46875 C 2933.023438 708.894531 2931.496094 714.328125 2929.726562 717.65625 C 2927.984375 721 2925.183594 724.425781 2925.515625 727.574219 C 2927.011719 731.679688 2931.773438 736.546875 2934.191406 739.5 L 2952.769531 754.777344 C 2957.527344 759.652344 2959.933594 762.613281 2966.558594 765.199219 Z M 3238.054688 763.078125 C 3235.304688 747.433594 3225.238281 732.453125 3213.433594 720.804688 L 3194.855469 705.523438 C 3187.679688 697.699219 3179.933594 684.625 3169.378906 674.976562 C 3157.789062 665.425781 3149.066406 663.035156 3138.75 655.484375 L 3121.207031 640.109375 L 3089.90625 614.320312 C 3081.789062 607.640625 3072.152344 596.847656 3066.015625 588.929688 C 3059.757812 579.957031 3061.53125 576.621094 3057.929688 572.707031 C 3055.492188 569.75 3046.671875 566.300781 3042.375 565.628906 L 3044.019531 561.246094 L 3036.242188 557.707031 C 3040.570312 548.84375 3034.5 551.507812 3028.367188 543.589844 C 3025.925781 540.628906 3025.503906 536.425781 3021.660156 530.417969 C 3015.644531 523.546875 3007.621094 517.90625 2999.75 513.328125 L 2961.554688 492.386719 C 2949.226562 486.082031 2932.378906 476.996094 2918.5625 476.121094 C 2907.972656 476.011719 2901.199219 481.917969 2890.824219 483.902344 C 2881.523438 485.796875 2861.417969 485.488281 2854.976562 494.53125 C 2848.449219 502.53125 2864.800781 516.953125 2870.722656 522.78125 L 2887.289062 539.292969 C 2892.050781 544.167969 2893.421875 547.21875 2898.269531 553.136719 C 2902.941406 556.957031 2911.96875 562.503906 2915.695312 567.460938 C 2919.386719 572.425781 2913.222656 574.042969 2918.191406 581.003906 C 2922.007812 587.015625 2931.3125 594.65625 2934.09375 600.765625 C 2935.589844 604.867188 2936.257812 611.164062 2939.738281 614.03125 C 2943.09375 615.847656 2947.0625 613.367188 2950.203125 613.085938 C 2955.328125 611.570312 2970.375 603.863281 2974.886719 606.640625 C 2979.402344 609.40625 2994.835938 624.96875 2998.441406 628.890625 C 3000.757812 630.792969 3005.488281 635.660156 3004.789062 638.910156 C 3005.363281 644.152344 2988.859375 638.214844 2992.796875 645.277344 C 2994.070312 647.285156 3004.171875 652.730469 3007.652344 655.597656 L 3020.523438 667.152344 L 3035.476562 678.515625 C 3038.957031 681.386719 3042.765625 687.394531 3046.152344 689.214844 C 3052.773438 691.796875 3056.160156 684.078125 3061.867188 687.800781 C 3073 693.152344 3080.992188 708.332031 3092.585938 717.878906 C 3100.460938 722.464844 3102.4375 721.230469 3109.058594 723.816406 C 3114.640625 726.492188 3118.246094 730.40625 3123.914062 734.132812 C 3132.859375 738.625 3133.589844 735.382812 3144.023438 743.980469 C 3157.933594 755.4375 3169.777344 767.089844 3181.703125 779.789062 C 3186.457031 784.652344 3198.175781 795.253906 3203.636719 796.878906 C 3204.675781 796.789062 3205.707031 796.699219 3206.78125 796.601562 L 3218.769531 790.230469 C 3218.769531 790.230469 3219.839844 790.128906 3219.714844 789.085938 C 3220.414062 785.847656 3219.960938 781.648438 3220.660156 778.40625 C 3221.390625 775.167969 3223.375 773.929688 3223.957031 769.636719 C 3224.660156 766.40625 3223.988281 760.101562 3227.003906 758.773438 C 3230.058594 757.441406 3235.855469 762.214844 3238.050781 763.078125 Z M 2982.484375 490.503906 C 2982.027344 486.308594 2980.871094 485.355469 2979.375 481.253906 C 2973.117188 472.28125 2966.164062 466.554688 2956.277344 463.195312 C 2953.046875 462.4375 2943.285156 460.128906 2941.515625 463.464844 C 2938.828125 467.9375 2950.207031 475.398438 2953.558594 477.214844 C 2957.039062 480.074219 2961.464844 481.800781 2964.945312 484.667969 C 2971.683594 488.296875 2974.921875 489.066406 2982.488281 490.503906 Z M 2572.292969 402.339844 C 2586.144531 403.207031 2591.363281 402.742188 2604.601562 407.90625 C 2616.683594 412.117188 2623.761719 418.894531 2637.613281 419.773438 L 2622.082031 403.160156 L 2630.933594 397.074219 C 2626.296875 393.253906 2624.21875 393.4375 2619.675781 390.671875 C 2617.355469 388.761719 2617.144531 386.660156 2614.824219 384.75 C 2612.71875 384.945312 2607.472656 385.40625 2605.394531 385.597656 C 2599.203125 387.207031 2594.105469 388.734375 2587 391.484375 C 2580.804688 393.097656 2572.570312 394.894531 2572.292969 402.339844 Z M 2635.78125 373.34375 C 2634.253906 378.769531 2629.128906 380.289062 2624.21875 383.902344 C 2625.378906 384.855469 2625.5 385.910156 2626.660156 386.863281 C 2630.046875 388.679688 2647.253906 391.371094 2651.554688 392.046875 C 2662.140625 392.160156 2662.507812 385.773438 2674.953125 383.59375 L 2690.542969 381.136719 C 2705.1875 379.816406 2725.203125 379.085938 2738.257812 372.617188 C 2733.289062 365.65625 2730.144531 365.925781 2722.484375 363.441406 C 2710.5 360.277344 2697.710938 359.308594 2685.480469 363.582031 C 2674.191406 366.714844 2674.648438 370.910156 2659.976562 372.230469 L 2635.785156 373.34375 Z M 2413.371094 2168.40625 C 2168.816406 2116.191406 2463.121094 2178.769531 2413.371094 2168.40625 Z M 2413.371094 2168.40625 " fill-opacity="1" fill-rule="nonzero"/></svg>